%TF.GenerationSoftware,KiCad,Pcbnew,8.0.2*%
%TF.CreationDate,2025-04-20T12:58:55+12:00*%
%TF.ProjectId,summit_scourer,73756d6d-6974-45f7-9363-6f757265722e,rev?*%
%TF.SameCoordinates,Original*%
%TF.FileFunction,Paste,Top*%
%TF.FilePolarity,Positive*%
%FSLAX46Y46*%
G04 Gerber Fmt 4.6, Leading zero omitted, Abs format (unit mm)*
G04 Created by KiCad (PCBNEW 8.0.2) date 2025-04-20 12:58:55*
%MOMM*%
%LPD*%
G01*
G04 APERTURE LIST*
G04 Aperture macros list*
%AMRoundRect*
0 Rectangle with rounded corners*
0 $1 Rounding radius*
0 $2 $3 $4 $5 $6 $7 $8 $9 X,Y pos of 4 corners*
0 Add a 4 corners polygon primitive as box body*
4,1,4,$2,$3,$4,$5,$6,$7,$8,$9,$2,$3,0*
0 Add four circle primitives for the rounded corners*
1,1,$1+$1,$2,$3*
1,1,$1+$1,$4,$5*
1,1,$1+$1,$6,$7*
1,1,$1+$1,$8,$9*
0 Add four rect primitives between the rounded corners*
20,1,$1+$1,$2,$3,$4,$5,0*
20,1,$1+$1,$4,$5,$6,$7,0*
20,1,$1+$1,$6,$7,$8,$9,0*
20,1,$1+$1,$8,$9,$2,$3,0*%
%AMRotRect*
0 Rectangle, with rotation*
0 The origin of the aperture is its center*
0 $1 length*
0 $2 width*
0 $3 Rotation angle, in degrees counterclockwise*
0 Add horizontal line*
21,1,$1,$2,0,0,$3*%
G04 Aperture macros list end*
%ADD10RoundRect,0.237500X0.250000X0.237500X-0.250000X0.237500X-0.250000X-0.237500X0.250000X-0.237500X0*%
%ADD11RoundRect,0.237500X-0.300000X-0.237500X0.300000X-0.237500X0.300000X0.237500X-0.300000X0.237500X0*%
%ADD12RoundRect,0.237500X-0.237500X0.300000X-0.237500X-0.300000X0.237500X-0.300000X0.237500X0.300000X0*%
%ADD13RoundRect,0.237500X0.237500X-0.250000X0.237500X0.250000X-0.237500X0.250000X-0.237500X-0.250000X0*%
%ADD14RoundRect,0.200000X-0.275000X0.200000X-0.275000X-0.200000X0.275000X-0.200000X0.275000X0.200000X0*%
%ADD15RoundRect,0.237500X-0.237500X0.250000X-0.237500X-0.250000X0.237500X-0.250000X0.237500X0.250000X0*%
%ADD16RoundRect,0.250000X0.412500X1.100000X-0.412500X1.100000X-0.412500X-1.100000X0.412500X-1.100000X0*%
%ADD17RoundRect,0.150000X-0.725000X-0.150000X0.725000X-0.150000X0.725000X0.150000X-0.725000X0.150000X0*%
%ADD18RoundRect,0.375000X0.725000X-0.375000X0.725000X0.375000X-0.725000X0.375000X-0.725000X-0.375000X0*%
%ADD19R,1.500000X2.400000*%
%ADD20RoundRect,0.250000X1.100000X-0.412500X1.100000X0.412500X-1.100000X0.412500X-1.100000X-0.412500X0*%
%ADD21RoundRect,0.250000X-0.950000X-0.500000X0.950000X-0.500000X0.950000X0.500000X-0.950000X0.500000X0*%
%ADD22RoundRect,0.250000X-0.275000X-0.500000X0.275000X-0.500000X0.275000X0.500000X-0.275000X0.500000X0*%
%ADD23RoundRect,0.087500X0.087500X-0.725000X0.087500X0.725000X-0.087500X0.725000X-0.087500X-0.725000X0*%
%ADD24RoundRect,0.237500X-0.250000X-0.237500X0.250000X-0.237500X0.250000X0.237500X-0.250000X0.237500X0*%
%ADD25RoundRect,0.200000X0.200000X0.275000X-0.200000X0.275000X-0.200000X-0.275000X0.200000X-0.275000X0*%
%ADD26RoundRect,0.250000X-1.100000X0.412500X-1.100000X-0.412500X1.100000X-0.412500X1.100000X0.412500X0*%
%ADD27RoundRect,0.200000X-0.200000X-0.275000X0.200000X-0.275000X0.200000X0.275000X-0.200000X0.275000X0*%
%ADD28RoundRect,0.250000X0.950000X0.500000X-0.950000X0.500000X-0.950000X-0.500000X0.950000X-0.500000X0*%
%ADD29RoundRect,0.250000X0.275000X0.500000X-0.275000X0.500000X-0.275000X-0.500000X0.275000X-0.500000X0*%
%ADD30RoundRect,0.200000X0.275000X-0.200000X0.275000X0.200000X-0.275000X0.200000X-0.275000X-0.200000X0*%
%ADD31RoundRect,0.237500X0.300000X0.237500X-0.300000X0.237500X-0.300000X-0.237500X0.300000X-0.237500X0*%
%ADD32RotRect,1.400000X1.200000X315.000000*%
%ADD33RoundRect,0.237500X0.237500X-0.300000X0.237500X0.300000X-0.237500X0.300000X-0.237500X-0.300000X0*%
%ADD34RoundRect,0.250000X-0.412500X-1.100000X0.412500X-1.100000X0.412500X1.100000X-0.412500X1.100000X0*%
%ADD35RoundRect,0.150000X-0.150000X0.825000X-0.150000X-0.825000X0.150000X-0.825000X0.150000X0.825000X0*%
%ADD36RoundRect,0.150000X0.725000X0.150000X-0.725000X0.150000X-0.725000X-0.150000X0.725000X-0.150000X0*%
%ADD37RoundRect,0.150000X-0.587500X-0.150000X0.587500X-0.150000X0.587500X0.150000X-0.587500X0.150000X0*%
%ADD38RoundRect,0.375000X0.375000X0.725000X-0.375000X0.725000X-0.375000X-0.725000X0.375000X-0.725000X0*%
%ADD39R,1.000000X1.800000*%
G04 APERTURE END LIST*
D10*
%TO.C,R25*%
X153887499Y-106100000D03*
X152062499Y-106100000D03*
%TD*%
%TO.C,R26*%
X153900000Y-104500000D03*
X152075000Y-104500000D03*
%TD*%
D11*
%TO.C,C5*%
X158325000Y-100250000D03*
X160050002Y-100250000D03*
%TD*%
D12*
%TO.C,C35*%
X126575000Y-116750000D03*
X126575000Y-118475002D03*
%TD*%
D13*
%TO.C,R5*%
X145700000Y-98712500D03*
X145700000Y-96887500D03*
%TD*%
D14*
%TO.C,R29*%
X165250000Y-109375000D03*
X165250000Y-111025000D03*
%TD*%
D15*
%TO.C,R32*%
X171200000Y-96787500D03*
X171200000Y-98612500D03*
%TD*%
D16*
%TO.C,C15*%
X152762500Y-115000000D03*
X149637500Y-115000000D03*
%TD*%
D17*
%TO.C,U6*%
X129500000Y-89595001D03*
X129500000Y-90865000D03*
X129500000Y-92135000D03*
X129500000Y-93404999D03*
X134650000Y-93404999D03*
X134650000Y-92135000D03*
X134650000Y-90865000D03*
X134650000Y-89595001D03*
%TD*%
D18*
%TO.C,L5*%
X122542500Y-113550000D03*
X122542500Y-108050000D03*
%TD*%
D19*
%TO.C,L8*%
X156075000Y-85000000D03*
X150575000Y-85000000D03*
%TD*%
D15*
%TO.C,R10*%
X143900000Y-96887500D03*
X143900000Y-98712500D03*
%TD*%
D20*
%TO.C,C59*%
X138825000Y-89062500D03*
X138825000Y-85937500D03*
%TD*%
D11*
%TO.C,C21*%
X134637500Y-106750000D03*
X136362500Y-106750000D03*
%TD*%
D21*
%TO.C,D4*%
X160437501Y-98000000D03*
D22*
X158062501Y-98000000D03*
%TD*%
D23*
%TO.C,U3*%
X169575000Y-104862500D03*
X170075001Y-104862500D03*
X170575000Y-104862500D03*
X171074999Y-104862500D03*
X171575000Y-104862500D03*
X171575000Y-100637500D03*
X171074999Y-100637500D03*
X170575000Y-100637500D03*
X170075001Y-100637500D03*
X169575000Y-100637500D03*
%TD*%
D24*
%TO.C,R3*%
X142037500Y-114450000D03*
X143862500Y-114450000D03*
%TD*%
D25*
%TO.C,R40*%
X134825000Y-116250000D03*
X133175000Y-116250000D03*
%TD*%
D26*
%TO.C,C32*%
X129075000Y-115437500D03*
X129075000Y-118562500D03*
%TD*%
D27*
%TO.C,R35*%
X131250000Y-106750000D03*
X132900000Y-106750000D03*
%TD*%
D28*
%TO.C,D3*%
X158737501Y-95400000D03*
D29*
X161112501Y-95400000D03*
%TD*%
D27*
%TO.C,R53*%
X134675000Y-103750000D03*
X136325000Y-103750000D03*
%TD*%
D12*
%TO.C,C16*%
X153850000Y-109437499D03*
X153850000Y-111162501D03*
%TD*%
D30*
%TO.C,R31*%
X127325000Y-93825000D03*
X127325000Y-92175000D03*
%TD*%
D11*
%TO.C,C31*%
X133387500Y-114500000D03*
X135112500Y-114500000D03*
%TD*%
D31*
%TO.C,C7*%
X169662501Y-96800000D03*
X167937499Y-96800000D03*
%TD*%
D32*
%TO.C,Y3*%
X168621142Y-109123223D03*
X170176777Y-110678858D03*
X171378858Y-109476777D03*
X169823223Y-107921142D03*
%TD*%
D10*
%TO.C,R4*%
X143912500Y-112900000D03*
X142087500Y-112900000D03*
%TD*%
D24*
%TO.C,R1*%
X165887500Y-104800000D03*
X167712500Y-104800000D03*
%TD*%
D33*
%TO.C,C2*%
X159600000Y-90862501D03*
X159600000Y-89137499D03*
%TD*%
%TO.C,C20*%
X174635000Y-93112501D03*
X174635000Y-91387499D03*
%TD*%
D12*
%TO.C,C3*%
X155725000Y-114412498D03*
X155725000Y-116137500D03*
%TD*%
D14*
%TO.C,R28*%
X163525000Y-109375000D03*
X163525000Y-111025000D03*
%TD*%
D34*
%TO.C,C18*%
X121762500Y-86250000D03*
X124887500Y-86250000D03*
%TD*%
D12*
%TO.C,C4*%
X161725000Y-114412499D03*
X161725000Y-116137501D03*
%TD*%
D30*
%TO.C,R30*%
X127325000Y-90825000D03*
X127325000Y-89175000D03*
%TD*%
D12*
%TO.C,C1*%
X154000000Y-94637499D03*
X154000000Y-96362501D03*
%TD*%
D35*
%TO.C,U8*%
X172885000Y-88275000D03*
X171615000Y-88275000D03*
X170345000Y-88275000D03*
X169075000Y-88275000D03*
X167805000Y-88275000D03*
X166535000Y-88275000D03*
X165265000Y-88275000D03*
X165265000Y-93225000D03*
X166535000Y-93225000D03*
X167805000Y-93225000D03*
X169075000Y-93225000D03*
X170345000Y-93225000D03*
X171615000Y-93225000D03*
X172885000Y-93225000D03*
%TD*%
D12*
%TO.C,C8*%
X166200000Y-96137499D03*
X166200000Y-97862501D03*
%TD*%
D30*
%TO.C,R7*%
X149600000Y-112475000D03*
X149600000Y-110825000D03*
%TD*%
D34*
%TO.C,C58*%
X136762500Y-77500000D03*
X139887500Y-77500000D03*
%TD*%
D31*
%TO.C,C17*%
X134687501Y-88000000D03*
X132962499Y-88000000D03*
%TD*%
D36*
%TO.C,U1*%
X161400000Y-111945001D03*
X161400000Y-110675000D03*
X161400000Y-109404999D03*
X161400000Y-108135000D03*
X161400000Y-106865000D03*
X161400000Y-105595001D03*
X161400000Y-104325000D03*
X161400000Y-103054999D03*
X156250000Y-103054999D03*
X156250000Y-104325000D03*
X156250000Y-105595001D03*
X156250000Y-106865000D03*
X156250000Y-108135000D03*
X156250000Y-109404999D03*
X156250000Y-110675000D03*
X156250000Y-111945001D03*
%TD*%
D12*
%TO.C,C13*%
X152350000Y-109437499D03*
X152350000Y-111162501D03*
%TD*%
D37*
%TO.C,Q2*%
X155662500Y-89950000D03*
X155662500Y-91850000D03*
X157537501Y-90900000D03*
%TD*%
D24*
%TO.C,R2*%
X165887500Y-101950000D03*
X167712500Y-101950000D03*
%TD*%
D38*
%TO.C,L2*%
X147325000Y-88750000D03*
X141825000Y-88750000D03*
%TD*%
D13*
%TO.C,R43*%
X155575000Y-96412500D03*
X155575000Y-94587500D03*
%TD*%
D20*
%TO.C,C23*%
X161325000Y-81562500D03*
X161325000Y-78437500D03*
%TD*%
D10*
%TO.C,R27*%
X153887499Y-102900000D03*
X152062499Y-102900000D03*
%TD*%
D39*
%TO.C,Y1*%
X159974999Y-114375000D03*
X157475001Y-114375000D03*
%TD*%
M02*
