%TF.GenerationSoftware,KiCad,Pcbnew,8.0.2*%
%TF.CreationDate,2025-04-20T12:58:55+12:00*%
%TF.ProjectId,summit_scourer,73756d6d-6974-45f7-9363-6f757265722e,rev?*%
%TF.SameCoordinates,Original*%
%TF.FileFunction,Legend,Bot*%
%TF.FilePolarity,Positive*%
%FSLAX46Y46*%
G04 Gerber Fmt 4.6, Leading zero omitted, Abs format (unit mm)*
G04 Created by KiCad (PCBNEW 8.0.2) date 2025-04-20 12:58:55*
%MOMM*%
%LPD*%
G01*
G04 APERTURE LIST*
%ADD10C,0.200000*%
%ADD11C,0.150000*%
%ADD12C,0.100000*%
%ADD13C,0.120000*%
G04 APERTURE END LIST*
D10*
X169761904Y-115099712D02*
X169619047Y-115147331D01*
X169619047Y-115147331D02*
X169380952Y-115147331D01*
X169380952Y-115147331D02*
X169285714Y-115099712D01*
X169285714Y-115099712D02*
X169238095Y-115052092D01*
X169238095Y-115052092D02*
X169190476Y-114956854D01*
X169190476Y-114956854D02*
X169190476Y-114861616D01*
X169190476Y-114861616D02*
X169238095Y-114766378D01*
X169238095Y-114766378D02*
X169285714Y-114718759D01*
X169285714Y-114718759D02*
X169380952Y-114671140D01*
X169380952Y-114671140D02*
X169571428Y-114623521D01*
X169571428Y-114623521D02*
X169666666Y-114575902D01*
X169666666Y-114575902D02*
X169714285Y-114528283D01*
X169714285Y-114528283D02*
X169761904Y-114433045D01*
X169761904Y-114433045D02*
X169761904Y-114337807D01*
X169761904Y-114337807D02*
X169714285Y-114242569D01*
X169714285Y-114242569D02*
X169666666Y-114194950D01*
X169666666Y-114194950D02*
X169571428Y-114147331D01*
X169571428Y-114147331D02*
X169333333Y-114147331D01*
X169333333Y-114147331D02*
X169190476Y-114194950D01*
X168333333Y-114480664D02*
X168333333Y-115147331D01*
X168761904Y-114480664D02*
X168761904Y-115004473D01*
X168761904Y-115004473D02*
X168714285Y-115099712D01*
X168714285Y-115099712D02*
X168619047Y-115147331D01*
X168619047Y-115147331D02*
X168476190Y-115147331D01*
X168476190Y-115147331D02*
X168380952Y-115099712D01*
X168380952Y-115099712D02*
X168333333Y-115052092D01*
X167857142Y-115147331D02*
X167857142Y-114480664D01*
X167857142Y-114575902D02*
X167809523Y-114528283D01*
X167809523Y-114528283D02*
X167714285Y-114480664D01*
X167714285Y-114480664D02*
X167571428Y-114480664D01*
X167571428Y-114480664D02*
X167476190Y-114528283D01*
X167476190Y-114528283D02*
X167428571Y-114623521D01*
X167428571Y-114623521D02*
X167428571Y-115147331D01*
X167428571Y-114623521D02*
X167380952Y-114528283D01*
X167380952Y-114528283D02*
X167285714Y-114480664D01*
X167285714Y-114480664D02*
X167142857Y-114480664D01*
X167142857Y-114480664D02*
X167047618Y-114528283D01*
X167047618Y-114528283D02*
X166999999Y-114623521D01*
X166999999Y-114623521D02*
X166999999Y-115147331D01*
X166523809Y-115147331D02*
X166523809Y-114480664D01*
X166523809Y-114575902D02*
X166476190Y-114528283D01*
X166476190Y-114528283D02*
X166380952Y-114480664D01*
X166380952Y-114480664D02*
X166238095Y-114480664D01*
X166238095Y-114480664D02*
X166142857Y-114528283D01*
X166142857Y-114528283D02*
X166095238Y-114623521D01*
X166095238Y-114623521D02*
X166095238Y-115147331D01*
X166095238Y-114623521D02*
X166047619Y-114528283D01*
X166047619Y-114528283D02*
X165952381Y-114480664D01*
X165952381Y-114480664D02*
X165809524Y-114480664D01*
X165809524Y-114480664D02*
X165714285Y-114528283D01*
X165714285Y-114528283D02*
X165666666Y-114623521D01*
X165666666Y-114623521D02*
X165666666Y-115147331D01*
X165190476Y-115147331D02*
X165190476Y-114480664D01*
X165190476Y-114147331D02*
X165238095Y-114194950D01*
X165238095Y-114194950D02*
X165190476Y-114242569D01*
X165190476Y-114242569D02*
X165142857Y-114194950D01*
X165142857Y-114194950D02*
X165190476Y-114147331D01*
X165190476Y-114147331D02*
X165190476Y-114242569D01*
X164857143Y-114480664D02*
X164476191Y-114480664D01*
X164714286Y-114147331D02*
X164714286Y-115004473D01*
X164714286Y-115004473D02*
X164666667Y-115099712D01*
X164666667Y-115099712D02*
X164571429Y-115147331D01*
X164571429Y-115147331D02*
X164476191Y-115147331D01*
X163428571Y-115099712D02*
X163285714Y-115147331D01*
X163285714Y-115147331D02*
X163047619Y-115147331D01*
X163047619Y-115147331D02*
X162952381Y-115099712D01*
X162952381Y-115099712D02*
X162904762Y-115052092D01*
X162904762Y-115052092D02*
X162857143Y-114956854D01*
X162857143Y-114956854D02*
X162857143Y-114861616D01*
X162857143Y-114861616D02*
X162904762Y-114766378D01*
X162904762Y-114766378D02*
X162952381Y-114718759D01*
X162952381Y-114718759D02*
X163047619Y-114671140D01*
X163047619Y-114671140D02*
X163238095Y-114623521D01*
X163238095Y-114623521D02*
X163333333Y-114575902D01*
X163333333Y-114575902D02*
X163380952Y-114528283D01*
X163380952Y-114528283D02*
X163428571Y-114433045D01*
X163428571Y-114433045D02*
X163428571Y-114337807D01*
X163428571Y-114337807D02*
X163380952Y-114242569D01*
X163380952Y-114242569D02*
X163333333Y-114194950D01*
X163333333Y-114194950D02*
X163238095Y-114147331D01*
X163238095Y-114147331D02*
X163000000Y-114147331D01*
X163000000Y-114147331D02*
X162857143Y-114194950D01*
X162000000Y-115099712D02*
X162095238Y-115147331D01*
X162095238Y-115147331D02*
X162285714Y-115147331D01*
X162285714Y-115147331D02*
X162380952Y-115099712D01*
X162380952Y-115099712D02*
X162428571Y-115052092D01*
X162428571Y-115052092D02*
X162476190Y-114956854D01*
X162476190Y-114956854D02*
X162476190Y-114671140D01*
X162476190Y-114671140D02*
X162428571Y-114575902D01*
X162428571Y-114575902D02*
X162380952Y-114528283D01*
X162380952Y-114528283D02*
X162285714Y-114480664D01*
X162285714Y-114480664D02*
X162095238Y-114480664D01*
X162095238Y-114480664D02*
X162000000Y-114528283D01*
X161428571Y-115147331D02*
X161523809Y-115099712D01*
X161523809Y-115099712D02*
X161571428Y-115052092D01*
X161571428Y-115052092D02*
X161619047Y-114956854D01*
X161619047Y-114956854D02*
X161619047Y-114671140D01*
X161619047Y-114671140D02*
X161571428Y-114575902D01*
X161571428Y-114575902D02*
X161523809Y-114528283D01*
X161523809Y-114528283D02*
X161428571Y-114480664D01*
X161428571Y-114480664D02*
X161285714Y-114480664D01*
X161285714Y-114480664D02*
X161190476Y-114528283D01*
X161190476Y-114528283D02*
X161142857Y-114575902D01*
X161142857Y-114575902D02*
X161095238Y-114671140D01*
X161095238Y-114671140D02*
X161095238Y-114956854D01*
X161095238Y-114956854D02*
X161142857Y-115052092D01*
X161142857Y-115052092D02*
X161190476Y-115099712D01*
X161190476Y-115099712D02*
X161285714Y-115147331D01*
X161285714Y-115147331D02*
X161428571Y-115147331D01*
X160238095Y-114480664D02*
X160238095Y-115147331D01*
X160666666Y-114480664D02*
X160666666Y-115004473D01*
X160666666Y-115004473D02*
X160619047Y-115099712D01*
X160619047Y-115099712D02*
X160523809Y-115147331D01*
X160523809Y-115147331D02*
X160380952Y-115147331D01*
X160380952Y-115147331D02*
X160285714Y-115099712D01*
X160285714Y-115099712D02*
X160238095Y-115052092D01*
X159761904Y-115147331D02*
X159761904Y-114480664D01*
X159761904Y-114671140D02*
X159714285Y-114575902D01*
X159714285Y-114575902D02*
X159666666Y-114528283D01*
X159666666Y-114528283D02*
X159571428Y-114480664D01*
X159571428Y-114480664D02*
X159476190Y-114480664D01*
X158761904Y-115099712D02*
X158857142Y-115147331D01*
X158857142Y-115147331D02*
X159047618Y-115147331D01*
X159047618Y-115147331D02*
X159142856Y-115099712D01*
X159142856Y-115099712D02*
X159190475Y-115004473D01*
X159190475Y-115004473D02*
X159190475Y-114623521D01*
X159190475Y-114623521D02*
X159142856Y-114528283D01*
X159142856Y-114528283D02*
X159047618Y-114480664D01*
X159047618Y-114480664D02*
X158857142Y-114480664D01*
X158857142Y-114480664D02*
X158761904Y-114528283D01*
X158761904Y-114528283D02*
X158714285Y-114623521D01*
X158714285Y-114623521D02*
X158714285Y-114718759D01*
X158714285Y-114718759D02*
X159190475Y-114813997D01*
X158285713Y-115147331D02*
X158285713Y-114480664D01*
X158285713Y-114671140D02*
X158238094Y-114575902D01*
X158238094Y-114575902D02*
X158190475Y-114528283D01*
X158190475Y-114528283D02*
X158095237Y-114480664D01*
X158095237Y-114480664D02*
X157999999Y-114480664D01*
X156904760Y-115147331D02*
X156904760Y-114147331D01*
X156904760Y-114147331D02*
X156571427Y-114861616D01*
X156571427Y-114861616D02*
X156238094Y-114147331D01*
X156238094Y-114147331D02*
X156238094Y-115147331D01*
X155761903Y-115147331D02*
X155761903Y-114147331D01*
X155190475Y-115147331D02*
X155619046Y-114575902D01*
X155190475Y-114147331D02*
X155761903Y-114718759D01*
X154238094Y-115147331D02*
X154809522Y-115147331D01*
X154523808Y-115147331D02*
X154523808Y-114147331D01*
X154523808Y-114147331D02*
X154619046Y-114290188D01*
X154619046Y-114290188D02*
X154714284Y-114385426D01*
X154714284Y-114385426D02*
X154809522Y-114433045D01*
X169285714Y-116757275D02*
X169285714Y-115757275D01*
X169285714Y-115757275D02*
X169047619Y-115757275D01*
X169047619Y-115757275D02*
X168904762Y-115804894D01*
X168904762Y-115804894D02*
X168809524Y-115900132D01*
X168809524Y-115900132D02*
X168761905Y-115995370D01*
X168761905Y-115995370D02*
X168714286Y-116185846D01*
X168714286Y-116185846D02*
X168714286Y-116328703D01*
X168714286Y-116328703D02*
X168761905Y-116519179D01*
X168761905Y-116519179D02*
X168809524Y-116614417D01*
X168809524Y-116614417D02*
X168904762Y-116709656D01*
X168904762Y-116709656D02*
X169047619Y-116757275D01*
X169047619Y-116757275D02*
X169285714Y-116757275D01*
X167904762Y-116709656D02*
X168000000Y-116757275D01*
X168000000Y-116757275D02*
X168190476Y-116757275D01*
X168190476Y-116757275D02*
X168285714Y-116709656D01*
X168285714Y-116709656D02*
X168333333Y-116614417D01*
X168333333Y-116614417D02*
X168333333Y-116233465D01*
X168333333Y-116233465D02*
X168285714Y-116138227D01*
X168285714Y-116138227D02*
X168190476Y-116090608D01*
X168190476Y-116090608D02*
X168000000Y-116090608D01*
X168000000Y-116090608D02*
X167904762Y-116138227D01*
X167904762Y-116138227D02*
X167857143Y-116233465D01*
X167857143Y-116233465D02*
X167857143Y-116328703D01*
X167857143Y-116328703D02*
X168333333Y-116423941D01*
X167476190Y-116709656D02*
X167380952Y-116757275D01*
X167380952Y-116757275D02*
X167190476Y-116757275D01*
X167190476Y-116757275D02*
X167095238Y-116709656D01*
X167095238Y-116709656D02*
X167047619Y-116614417D01*
X167047619Y-116614417D02*
X167047619Y-116566798D01*
X167047619Y-116566798D02*
X167095238Y-116471560D01*
X167095238Y-116471560D02*
X167190476Y-116423941D01*
X167190476Y-116423941D02*
X167333333Y-116423941D01*
X167333333Y-116423941D02*
X167428571Y-116376322D01*
X167428571Y-116376322D02*
X167476190Y-116281084D01*
X167476190Y-116281084D02*
X167476190Y-116233465D01*
X167476190Y-116233465D02*
X167428571Y-116138227D01*
X167428571Y-116138227D02*
X167333333Y-116090608D01*
X167333333Y-116090608D02*
X167190476Y-116090608D01*
X167190476Y-116090608D02*
X167095238Y-116138227D01*
X166619047Y-116757275D02*
X166619047Y-116090608D01*
X166619047Y-115757275D02*
X166666666Y-115804894D01*
X166666666Y-115804894D02*
X166619047Y-115852513D01*
X166619047Y-115852513D02*
X166571428Y-115804894D01*
X166571428Y-115804894D02*
X166619047Y-115757275D01*
X166619047Y-115757275D02*
X166619047Y-115852513D01*
X165714286Y-116090608D02*
X165714286Y-116900132D01*
X165714286Y-116900132D02*
X165761905Y-116995370D01*
X165761905Y-116995370D02*
X165809524Y-117042989D01*
X165809524Y-117042989D02*
X165904762Y-117090608D01*
X165904762Y-117090608D02*
X166047619Y-117090608D01*
X166047619Y-117090608D02*
X166142857Y-117042989D01*
X165714286Y-116709656D02*
X165809524Y-116757275D01*
X165809524Y-116757275D02*
X166000000Y-116757275D01*
X166000000Y-116757275D02*
X166095238Y-116709656D01*
X166095238Y-116709656D02*
X166142857Y-116662036D01*
X166142857Y-116662036D02*
X166190476Y-116566798D01*
X166190476Y-116566798D02*
X166190476Y-116281084D01*
X166190476Y-116281084D02*
X166142857Y-116185846D01*
X166142857Y-116185846D02*
X166095238Y-116138227D01*
X166095238Y-116138227D02*
X166000000Y-116090608D01*
X166000000Y-116090608D02*
X165809524Y-116090608D01*
X165809524Y-116090608D02*
X165714286Y-116138227D01*
X165238095Y-116090608D02*
X165238095Y-116757275D01*
X165238095Y-116185846D02*
X165190476Y-116138227D01*
X165190476Y-116138227D02*
X165095238Y-116090608D01*
X165095238Y-116090608D02*
X164952381Y-116090608D01*
X164952381Y-116090608D02*
X164857143Y-116138227D01*
X164857143Y-116138227D02*
X164809524Y-116233465D01*
X164809524Y-116233465D02*
X164809524Y-116757275D01*
X163952381Y-116709656D02*
X164047619Y-116757275D01*
X164047619Y-116757275D02*
X164238095Y-116757275D01*
X164238095Y-116757275D02*
X164333333Y-116709656D01*
X164333333Y-116709656D02*
X164380952Y-116614417D01*
X164380952Y-116614417D02*
X164380952Y-116233465D01*
X164380952Y-116233465D02*
X164333333Y-116138227D01*
X164333333Y-116138227D02*
X164238095Y-116090608D01*
X164238095Y-116090608D02*
X164047619Y-116090608D01*
X164047619Y-116090608D02*
X163952381Y-116138227D01*
X163952381Y-116138227D02*
X163904762Y-116233465D01*
X163904762Y-116233465D02*
X163904762Y-116328703D01*
X163904762Y-116328703D02*
X164380952Y-116423941D01*
X163047619Y-116757275D02*
X163047619Y-115757275D01*
X163047619Y-116709656D02*
X163142857Y-116757275D01*
X163142857Y-116757275D02*
X163333333Y-116757275D01*
X163333333Y-116757275D02*
X163428571Y-116709656D01*
X163428571Y-116709656D02*
X163476190Y-116662036D01*
X163476190Y-116662036D02*
X163523809Y-116566798D01*
X163523809Y-116566798D02*
X163523809Y-116281084D01*
X163523809Y-116281084D02*
X163476190Y-116185846D01*
X163476190Y-116185846D02*
X163428571Y-116138227D01*
X163428571Y-116138227D02*
X163333333Y-116090608D01*
X163333333Y-116090608D02*
X163142857Y-116090608D01*
X163142857Y-116090608D02*
X163047619Y-116138227D01*
X161904761Y-116090608D02*
X161714285Y-116757275D01*
X161714285Y-116757275D02*
X161523809Y-116281084D01*
X161523809Y-116281084D02*
X161333333Y-116757275D01*
X161333333Y-116757275D02*
X161142857Y-116090608D01*
X160761904Y-116757275D02*
X160761904Y-116090608D01*
X160761904Y-115757275D02*
X160809523Y-115804894D01*
X160809523Y-115804894D02*
X160761904Y-115852513D01*
X160761904Y-115852513D02*
X160714285Y-115804894D01*
X160714285Y-115804894D02*
X160761904Y-115757275D01*
X160761904Y-115757275D02*
X160761904Y-115852513D01*
X160428571Y-116090608D02*
X160047619Y-116090608D01*
X160285714Y-115757275D02*
X160285714Y-116614417D01*
X160285714Y-116614417D02*
X160238095Y-116709656D01*
X160238095Y-116709656D02*
X160142857Y-116757275D01*
X160142857Y-116757275D02*
X160047619Y-116757275D01*
X159714285Y-116757275D02*
X159714285Y-115757275D01*
X159285714Y-116757275D02*
X159285714Y-116233465D01*
X159285714Y-116233465D02*
X159333333Y-116138227D01*
X159333333Y-116138227D02*
X159428571Y-116090608D01*
X159428571Y-116090608D02*
X159571428Y-116090608D01*
X159571428Y-116090608D02*
X159666666Y-116138227D01*
X159666666Y-116138227D02*
X159714285Y-116185846D01*
X157904761Y-116757275D02*
X157999999Y-116709656D01*
X157999999Y-116709656D02*
X158047618Y-116614417D01*
X158047618Y-116614417D02*
X158047618Y-115757275D01*
X157380951Y-116757275D02*
X157476189Y-116709656D01*
X157476189Y-116709656D02*
X157523808Y-116662036D01*
X157523808Y-116662036D02*
X157571427Y-116566798D01*
X157571427Y-116566798D02*
X157571427Y-116281084D01*
X157571427Y-116281084D02*
X157523808Y-116185846D01*
X157523808Y-116185846D02*
X157476189Y-116138227D01*
X157476189Y-116138227D02*
X157380951Y-116090608D01*
X157380951Y-116090608D02*
X157238094Y-116090608D01*
X157238094Y-116090608D02*
X157142856Y-116138227D01*
X157142856Y-116138227D02*
X157095237Y-116185846D01*
X157095237Y-116185846D02*
X157047618Y-116281084D01*
X157047618Y-116281084D02*
X157047618Y-116566798D01*
X157047618Y-116566798D02*
X157095237Y-116662036D01*
X157095237Y-116662036D02*
X157142856Y-116709656D01*
X157142856Y-116709656D02*
X157238094Y-116757275D01*
X157238094Y-116757275D02*
X157380951Y-116757275D01*
X156714284Y-116090608D02*
X156476189Y-116757275D01*
X156476189Y-116757275D02*
X156238094Y-116090608D01*
X155476189Y-116709656D02*
X155571427Y-116757275D01*
X155571427Y-116757275D02*
X155761903Y-116757275D01*
X155761903Y-116757275D02*
X155857141Y-116709656D01*
X155857141Y-116709656D02*
X155904760Y-116614417D01*
X155904760Y-116614417D02*
X155904760Y-116233465D01*
X155904760Y-116233465D02*
X155857141Y-116138227D01*
X155857141Y-116138227D02*
X155761903Y-116090608D01*
X155761903Y-116090608D02*
X155571427Y-116090608D01*
X155571427Y-116090608D02*
X155476189Y-116138227D01*
X155476189Y-116138227D02*
X155428570Y-116233465D01*
X155428570Y-116233465D02*
X155428570Y-116328703D01*
X155428570Y-116328703D02*
X155904760Y-116423941D01*
X165761904Y-118367219D02*
X165761904Y-117367219D01*
X165761904Y-117748171D02*
X165666666Y-117700552D01*
X165666666Y-117700552D02*
X165476190Y-117700552D01*
X165476190Y-117700552D02*
X165380952Y-117748171D01*
X165380952Y-117748171D02*
X165333333Y-117795790D01*
X165333333Y-117795790D02*
X165285714Y-117891028D01*
X165285714Y-117891028D02*
X165285714Y-118176742D01*
X165285714Y-118176742D02*
X165333333Y-118271980D01*
X165333333Y-118271980D02*
X165380952Y-118319600D01*
X165380952Y-118319600D02*
X165476190Y-118367219D01*
X165476190Y-118367219D02*
X165666666Y-118367219D01*
X165666666Y-118367219D02*
X165761904Y-118319600D01*
X164952380Y-117700552D02*
X164714285Y-118367219D01*
X164476190Y-117700552D02*
X164714285Y-118367219D01*
X164714285Y-118367219D02*
X164809523Y-118605314D01*
X164809523Y-118605314D02*
X164857142Y-118652933D01*
X164857142Y-118652933D02*
X164952380Y-118700552D01*
X163428570Y-117367219D02*
X162761904Y-117367219D01*
X162761904Y-117367219D02*
X163428570Y-118367219D01*
X163428570Y-118367219D02*
X162761904Y-118367219D01*
X161904761Y-118367219D02*
X162380951Y-118367219D01*
X162380951Y-118367219D02*
X162380951Y-117367219D01*
X161666665Y-117367219D02*
X161047618Y-117367219D01*
X161047618Y-117367219D02*
X161380951Y-117748171D01*
X161380951Y-117748171D02*
X161238094Y-117748171D01*
X161238094Y-117748171D02*
X161142856Y-117795790D01*
X161142856Y-117795790D02*
X161095237Y-117843409D01*
X161095237Y-117843409D02*
X161047618Y-117938647D01*
X161047618Y-117938647D02*
X161047618Y-118176742D01*
X161047618Y-118176742D02*
X161095237Y-118271980D01*
X161095237Y-118271980D02*
X161142856Y-118319600D01*
X161142856Y-118319600D02*
X161238094Y-118367219D01*
X161238094Y-118367219D02*
X161523808Y-118367219D01*
X161523808Y-118367219D02*
X161619046Y-118319600D01*
X161619046Y-118319600D02*
X161666665Y-118271980D01*
X160666665Y-118081504D02*
X160190475Y-118081504D01*
X160761903Y-118367219D02*
X160428570Y-117367219D01*
X160428570Y-117367219D02*
X160095237Y-118367219D01*
X159761903Y-118367219D02*
X159761903Y-117367219D01*
X159761903Y-117367219D02*
X159380951Y-117367219D01*
X159380951Y-117367219D02*
X159285713Y-117414838D01*
X159285713Y-117414838D02*
X159238094Y-117462457D01*
X159238094Y-117462457D02*
X159190475Y-117557695D01*
X159190475Y-117557695D02*
X159190475Y-117700552D01*
X159190475Y-117700552D02*
X159238094Y-117795790D01*
X159238094Y-117795790D02*
X159285713Y-117843409D01*
X159285713Y-117843409D02*
X159380951Y-117891028D01*
X159380951Y-117891028D02*
X159761903Y-117891028D01*
X158428570Y-117843409D02*
X158285713Y-117891028D01*
X158285713Y-117891028D02*
X158238094Y-117938647D01*
X158238094Y-117938647D02*
X158190475Y-118033885D01*
X158190475Y-118033885D02*
X158190475Y-118176742D01*
X158190475Y-118176742D02*
X158238094Y-118271980D01*
X158238094Y-118271980D02*
X158285713Y-118319600D01*
X158285713Y-118319600D02*
X158380951Y-118367219D01*
X158380951Y-118367219D02*
X158761903Y-118367219D01*
X158761903Y-118367219D02*
X158761903Y-117367219D01*
X158761903Y-117367219D02*
X158428570Y-117367219D01*
X158428570Y-117367219D02*
X158333332Y-117414838D01*
X158333332Y-117414838D02*
X158285713Y-117462457D01*
X158285713Y-117462457D02*
X158238094Y-117557695D01*
X158238094Y-117557695D02*
X158238094Y-117652933D01*
X158238094Y-117652933D02*
X158285713Y-117748171D01*
X158285713Y-117748171D02*
X158333332Y-117795790D01*
X158333332Y-117795790D02*
X158428570Y-117843409D01*
X158428570Y-117843409D02*
X158761903Y-117843409D01*
D11*
X108967857Y-98954819D02*
X109301190Y-98478628D01*
X109539285Y-98954819D02*
X109539285Y-97954819D01*
X109539285Y-97954819D02*
X109158333Y-97954819D01*
X109158333Y-97954819D02*
X109063095Y-98002438D01*
X109063095Y-98002438D02*
X109015476Y-98050057D01*
X109015476Y-98050057D02*
X108967857Y-98145295D01*
X108967857Y-98145295D02*
X108967857Y-98288152D01*
X108967857Y-98288152D02*
X109015476Y-98383390D01*
X109015476Y-98383390D02*
X109063095Y-98431009D01*
X109063095Y-98431009D02*
X109158333Y-98478628D01*
X109158333Y-98478628D02*
X109539285Y-98478628D01*
X108110714Y-98288152D02*
X108110714Y-98954819D01*
X108348809Y-97907200D02*
X108586904Y-98621485D01*
X108586904Y-98621485D02*
X107967857Y-98621485D01*
X107634523Y-98050057D02*
X107586904Y-98002438D01*
X107586904Y-98002438D02*
X107491666Y-97954819D01*
X107491666Y-97954819D02*
X107253571Y-97954819D01*
X107253571Y-97954819D02*
X107158333Y-98002438D01*
X107158333Y-98002438D02*
X107110714Y-98050057D01*
X107110714Y-98050057D02*
X107063095Y-98145295D01*
X107063095Y-98145295D02*
X107063095Y-98240533D01*
X107063095Y-98240533D02*
X107110714Y-98383390D01*
X107110714Y-98383390D02*
X107682142Y-98954819D01*
X107682142Y-98954819D02*
X107063095Y-98954819D01*
X164491666Y-90109580D02*
X164539285Y-90157200D01*
X164539285Y-90157200D02*
X164682142Y-90204819D01*
X164682142Y-90204819D02*
X164777380Y-90204819D01*
X164777380Y-90204819D02*
X164920237Y-90157200D01*
X164920237Y-90157200D02*
X165015475Y-90061961D01*
X165015475Y-90061961D02*
X165063094Y-89966723D01*
X165063094Y-89966723D02*
X165110713Y-89776247D01*
X165110713Y-89776247D02*
X165110713Y-89633390D01*
X165110713Y-89633390D02*
X165063094Y-89442914D01*
X165063094Y-89442914D02*
X165015475Y-89347676D01*
X165015475Y-89347676D02*
X164920237Y-89252438D01*
X164920237Y-89252438D02*
X164777380Y-89204819D01*
X164777380Y-89204819D02*
X164682142Y-89204819D01*
X164682142Y-89204819D02*
X164539285Y-89252438D01*
X164539285Y-89252438D02*
X164491666Y-89300057D01*
X164015475Y-90204819D02*
X163824999Y-90204819D01*
X163824999Y-90204819D02*
X163729761Y-90157200D01*
X163729761Y-90157200D02*
X163682142Y-90109580D01*
X163682142Y-90109580D02*
X163586904Y-89966723D01*
X163586904Y-89966723D02*
X163539285Y-89776247D01*
X163539285Y-89776247D02*
X163539285Y-89395295D01*
X163539285Y-89395295D02*
X163586904Y-89300057D01*
X163586904Y-89300057D02*
X163634523Y-89252438D01*
X163634523Y-89252438D02*
X163729761Y-89204819D01*
X163729761Y-89204819D02*
X163920237Y-89204819D01*
X163920237Y-89204819D02*
X164015475Y-89252438D01*
X164015475Y-89252438D02*
X164063094Y-89300057D01*
X164063094Y-89300057D02*
X164110713Y-89395295D01*
X164110713Y-89395295D02*
X164110713Y-89633390D01*
X164110713Y-89633390D02*
X164063094Y-89728628D01*
X164063094Y-89728628D02*
X164015475Y-89776247D01*
X164015475Y-89776247D02*
X163920237Y-89823866D01*
X163920237Y-89823866D02*
X163729761Y-89823866D01*
X163729761Y-89823866D02*
X163634523Y-89776247D01*
X163634523Y-89776247D02*
X163586904Y-89728628D01*
X163586904Y-89728628D02*
X163539285Y-89633390D01*
X114184580Y-100107142D02*
X114232200Y-100059523D01*
X114232200Y-100059523D02*
X114279819Y-99916666D01*
X114279819Y-99916666D02*
X114279819Y-99821428D01*
X114279819Y-99821428D02*
X114232200Y-99678571D01*
X114232200Y-99678571D02*
X114136961Y-99583333D01*
X114136961Y-99583333D02*
X114041723Y-99535714D01*
X114041723Y-99535714D02*
X113851247Y-99488095D01*
X113851247Y-99488095D02*
X113708390Y-99488095D01*
X113708390Y-99488095D02*
X113517914Y-99535714D01*
X113517914Y-99535714D02*
X113422676Y-99583333D01*
X113422676Y-99583333D02*
X113327438Y-99678571D01*
X113327438Y-99678571D02*
X113279819Y-99821428D01*
X113279819Y-99821428D02*
X113279819Y-99916666D01*
X113279819Y-99916666D02*
X113327438Y-100059523D01*
X113327438Y-100059523D02*
X113375057Y-100107142D01*
X113279819Y-100440476D02*
X113279819Y-101059523D01*
X113279819Y-101059523D02*
X113660771Y-100726190D01*
X113660771Y-100726190D02*
X113660771Y-100869047D01*
X113660771Y-100869047D02*
X113708390Y-100964285D01*
X113708390Y-100964285D02*
X113756009Y-101011904D01*
X113756009Y-101011904D02*
X113851247Y-101059523D01*
X113851247Y-101059523D02*
X114089342Y-101059523D01*
X114089342Y-101059523D02*
X114184580Y-101011904D01*
X114184580Y-101011904D02*
X114232200Y-100964285D01*
X114232200Y-100964285D02*
X114279819Y-100869047D01*
X114279819Y-100869047D02*
X114279819Y-100583333D01*
X114279819Y-100583333D02*
X114232200Y-100488095D01*
X114232200Y-100488095D02*
X114184580Y-100440476D01*
X113613152Y-101916666D02*
X114279819Y-101916666D01*
X113232200Y-101678571D02*
X113946485Y-101440476D01*
X113946485Y-101440476D02*
X113946485Y-102059523D01*
X108717857Y-92704819D02*
X109051190Y-92228628D01*
X109289285Y-92704819D02*
X109289285Y-91704819D01*
X109289285Y-91704819D02*
X108908333Y-91704819D01*
X108908333Y-91704819D02*
X108813095Y-91752438D01*
X108813095Y-91752438D02*
X108765476Y-91800057D01*
X108765476Y-91800057D02*
X108717857Y-91895295D01*
X108717857Y-91895295D02*
X108717857Y-92038152D01*
X108717857Y-92038152D02*
X108765476Y-92133390D01*
X108765476Y-92133390D02*
X108813095Y-92181009D01*
X108813095Y-92181009D02*
X108908333Y-92228628D01*
X108908333Y-92228628D02*
X109289285Y-92228628D01*
X107860714Y-92038152D02*
X107860714Y-92704819D01*
X108098809Y-91657200D02*
X108336904Y-92371485D01*
X108336904Y-92371485D02*
X107717857Y-92371485D01*
X106860714Y-91704819D02*
X107336904Y-91704819D01*
X107336904Y-91704819D02*
X107384523Y-92181009D01*
X107384523Y-92181009D02*
X107336904Y-92133390D01*
X107336904Y-92133390D02*
X107241666Y-92085771D01*
X107241666Y-92085771D02*
X107003571Y-92085771D01*
X107003571Y-92085771D02*
X106908333Y-92133390D01*
X106908333Y-92133390D02*
X106860714Y-92181009D01*
X106860714Y-92181009D02*
X106813095Y-92276247D01*
X106813095Y-92276247D02*
X106813095Y-92514342D01*
X106813095Y-92514342D02*
X106860714Y-92609580D01*
X106860714Y-92609580D02*
X106908333Y-92657200D01*
X106908333Y-92657200D02*
X107003571Y-92704819D01*
X107003571Y-92704819D02*
X107241666Y-92704819D01*
X107241666Y-92704819D02*
X107336904Y-92657200D01*
X107336904Y-92657200D02*
X107384523Y-92609580D01*
X127842857Y-96624819D02*
X128176190Y-96148628D01*
X128414285Y-96624819D02*
X128414285Y-95624819D01*
X128414285Y-95624819D02*
X128033333Y-95624819D01*
X128033333Y-95624819D02*
X127938095Y-95672438D01*
X127938095Y-95672438D02*
X127890476Y-95720057D01*
X127890476Y-95720057D02*
X127842857Y-95815295D01*
X127842857Y-95815295D02*
X127842857Y-95958152D01*
X127842857Y-95958152D02*
X127890476Y-96053390D01*
X127890476Y-96053390D02*
X127938095Y-96101009D01*
X127938095Y-96101009D02*
X128033333Y-96148628D01*
X128033333Y-96148628D02*
X128414285Y-96148628D01*
X126985714Y-95958152D02*
X126985714Y-96624819D01*
X127223809Y-95577200D02*
X127461904Y-96291485D01*
X127461904Y-96291485D02*
X126842857Y-96291485D01*
X126033333Y-95958152D02*
X126033333Y-96624819D01*
X126271428Y-95577200D02*
X126509523Y-96291485D01*
X126509523Y-96291485D02*
X125890476Y-96291485D01*
X120866666Y-108254819D02*
X121199999Y-107778628D01*
X121438094Y-108254819D02*
X121438094Y-107254819D01*
X121438094Y-107254819D02*
X121057142Y-107254819D01*
X121057142Y-107254819D02*
X120961904Y-107302438D01*
X120961904Y-107302438D02*
X120914285Y-107350057D01*
X120914285Y-107350057D02*
X120866666Y-107445295D01*
X120866666Y-107445295D02*
X120866666Y-107588152D01*
X120866666Y-107588152D02*
X120914285Y-107683390D01*
X120914285Y-107683390D02*
X120961904Y-107731009D01*
X120961904Y-107731009D02*
X121057142Y-107778628D01*
X121057142Y-107778628D02*
X121438094Y-107778628D01*
X120009523Y-107254819D02*
X120199999Y-107254819D01*
X120199999Y-107254819D02*
X120295237Y-107302438D01*
X120295237Y-107302438D02*
X120342856Y-107350057D01*
X120342856Y-107350057D02*
X120438094Y-107492914D01*
X120438094Y-107492914D02*
X120485713Y-107683390D01*
X120485713Y-107683390D02*
X120485713Y-108064342D01*
X120485713Y-108064342D02*
X120438094Y-108159580D01*
X120438094Y-108159580D02*
X120390475Y-108207200D01*
X120390475Y-108207200D02*
X120295237Y-108254819D01*
X120295237Y-108254819D02*
X120104761Y-108254819D01*
X120104761Y-108254819D02*
X120009523Y-108207200D01*
X120009523Y-108207200D02*
X119961904Y-108159580D01*
X119961904Y-108159580D02*
X119914285Y-108064342D01*
X119914285Y-108064342D02*
X119914285Y-107826247D01*
X119914285Y-107826247D02*
X119961904Y-107731009D01*
X119961904Y-107731009D02*
X120009523Y-107683390D01*
X120009523Y-107683390D02*
X120104761Y-107635771D01*
X120104761Y-107635771D02*
X120295237Y-107635771D01*
X120295237Y-107635771D02*
X120390475Y-107683390D01*
X120390475Y-107683390D02*
X120438094Y-107731009D01*
X120438094Y-107731009D02*
X120485713Y-107826247D01*
X141704819Y-78738095D02*
X142514342Y-78738095D01*
X142514342Y-78738095D02*
X142609580Y-78785714D01*
X142609580Y-78785714D02*
X142657200Y-78833333D01*
X142657200Y-78833333D02*
X142704819Y-78928571D01*
X142704819Y-78928571D02*
X142704819Y-79119047D01*
X142704819Y-79119047D02*
X142657200Y-79214285D01*
X142657200Y-79214285D02*
X142609580Y-79261904D01*
X142609580Y-79261904D02*
X142514342Y-79309523D01*
X142514342Y-79309523D02*
X141704819Y-79309523D01*
X141704819Y-80261904D02*
X141704819Y-79785714D01*
X141704819Y-79785714D02*
X142181009Y-79738095D01*
X142181009Y-79738095D02*
X142133390Y-79785714D01*
X142133390Y-79785714D02*
X142085771Y-79880952D01*
X142085771Y-79880952D02*
X142085771Y-80119047D01*
X142085771Y-80119047D02*
X142133390Y-80214285D01*
X142133390Y-80214285D02*
X142181009Y-80261904D01*
X142181009Y-80261904D02*
X142276247Y-80309523D01*
X142276247Y-80309523D02*
X142514342Y-80309523D01*
X142514342Y-80309523D02*
X142609580Y-80261904D01*
X142609580Y-80261904D02*
X142657200Y-80214285D01*
X142657200Y-80214285D02*
X142704819Y-80119047D01*
X142704819Y-80119047D02*
X142704819Y-79880952D01*
X142704819Y-79880952D02*
X142657200Y-79785714D01*
X142657200Y-79785714D02*
X142609580Y-79738095D01*
X125159580Y-116857142D02*
X125207200Y-116809523D01*
X125207200Y-116809523D02*
X125254819Y-116666666D01*
X125254819Y-116666666D02*
X125254819Y-116571428D01*
X125254819Y-116571428D02*
X125207200Y-116428571D01*
X125207200Y-116428571D02*
X125111961Y-116333333D01*
X125111961Y-116333333D02*
X125016723Y-116285714D01*
X125016723Y-116285714D02*
X124826247Y-116238095D01*
X124826247Y-116238095D02*
X124683390Y-116238095D01*
X124683390Y-116238095D02*
X124492914Y-116285714D01*
X124492914Y-116285714D02*
X124397676Y-116333333D01*
X124397676Y-116333333D02*
X124302438Y-116428571D01*
X124302438Y-116428571D02*
X124254819Y-116571428D01*
X124254819Y-116571428D02*
X124254819Y-116666666D01*
X124254819Y-116666666D02*
X124302438Y-116809523D01*
X124302438Y-116809523D02*
X124350057Y-116857142D01*
X124254819Y-117190476D02*
X124254819Y-117809523D01*
X124254819Y-117809523D02*
X124635771Y-117476190D01*
X124635771Y-117476190D02*
X124635771Y-117619047D01*
X124635771Y-117619047D02*
X124683390Y-117714285D01*
X124683390Y-117714285D02*
X124731009Y-117761904D01*
X124731009Y-117761904D02*
X124826247Y-117809523D01*
X124826247Y-117809523D02*
X125064342Y-117809523D01*
X125064342Y-117809523D02*
X125159580Y-117761904D01*
X125159580Y-117761904D02*
X125207200Y-117714285D01*
X125207200Y-117714285D02*
X125254819Y-117619047D01*
X125254819Y-117619047D02*
X125254819Y-117333333D01*
X125254819Y-117333333D02*
X125207200Y-117238095D01*
X125207200Y-117238095D02*
X125159580Y-117190476D01*
X124254819Y-118142857D02*
X124254819Y-118761904D01*
X124254819Y-118761904D02*
X124635771Y-118428571D01*
X124635771Y-118428571D02*
X124635771Y-118571428D01*
X124635771Y-118571428D02*
X124683390Y-118666666D01*
X124683390Y-118666666D02*
X124731009Y-118714285D01*
X124731009Y-118714285D02*
X124826247Y-118761904D01*
X124826247Y-118761904D02*
X125064342Y-118761904D01*
X125064342Y-118761904D02*
X125159580Y-118714285D01*
X125159580Y-118714285D02*
X125207200Y-118666666D01*
X125207200Y-118666666D02*
X125254819Y-118571428D01*
X125254819Y-118571428D02*
X125254819Y-118285714D01*
X125254819Y-118285714D02*
X125207200Y-118190476D01*
X125207200Y-118190476D02*
X125159580Y-118142857D01*
X154967857Y-82859580D02*
X155015476Y-82907200D01*
X155015476Y-82907200D02*
X155158333Y-82954819D01*
X155158333Y-82954819D02*
X155253571Y-82954819D01*
X155253571Y-82954819D02*
X155396428Y-82907200D01*
X155396428Y-82907200D02*
X155491666Y-82811961D01*
X155491666Y-82811961D02*
X155539285Y-82716723D01*
X155539285Y-82716723D02*
X155586904Y-82526247D01*
X155586904Y-82526247D02*
X155586904Y-82383390D01*
X155586904Y-82383390D02*
X155539285Y-82192914D01*
X155539285Y-82192914D02*
X155491666Y-82097676D01*
X155491666Y-82097676D02*
X155396428Y-82002438D01*
X155396428Y-82002438D02*
X155253571Y-81954819D01*
X155253571Y-81954819D02*
X155158333Y-81954819D01*
X155158333Y-81954819D02*
X155015476Y-82002438D01*
X155015476Y-82002438D02*
X154967857Y-82050057D01*
X154063095Y-81954819D02*
X154539285Y-81954819D01*
X154539285Y-81954819D02*
X154586904Y-82431009D01*
X154586904Y-82431009D02*
X154539285Y-82383390D01*
X154539285Y-82383390D02*
X154444047Y-82335771D01*
X154444047Y-82335771D02*
X154205952Y-82335771D01*
X154205952Y-82335771D02*
X154110714Y-82383390D01*
X154110714Y-82383390D02*
X154063095Y-82431009D01*
X154063095Y-82431009D02*
X154015476Y-82526247D01*
X154015476Y-82526247D02*
X154015476Y-82764342D01*
X154015476Y-82764342D02*
X154063095Y-82859580D01*
X154063095Y-82859580D02*
X154110714Y-82907200D01*
X154110714Y-82907200D02*
X154205952Y-82954819D01*
X154205952Y-82954819D02*
X154444047Y-82954819D01*
X154444047Y-82954819D02*
X154539285Y-82907200D01*
X154539285Y-82907200D02*
X154586904Y-82859580D01*
X153634523Y-82050057D02*
X153586904Y-82002438D01*
X153586904Y-82002438D02*
X153491666Y-81954819D01*
X153491666Y-81954819D02*
X153253571Y-81954819D01*
X153253571Y-81954819D02*
X153158333Y-82002438D01*
X153158333Y-82002438D02*
X153110714Y-82050057D01*
X153110714Y-82050057D02*
X153063095Y-82145295D01*
X153063095Y-82145295D02*
X153063095Y-82240533D01*
X153063095Y-82240533D02*
X153110714Y-82383390D01*
X153110714Y-82383390D02*
X153682142Y-82954819D01*
X153682142Y-82954819D02*
X153063095Y-82954819D01*
X126067857Y-101624819D02*
X126401190Y-101148628D01*
X126639285Y-101624819D02*
X126639285Y-100624819D01*
X126639285Y-100624819D02*
X126258333Y-100624819D01*
X126258333Y-100624819D02*
X126163095Y-100672438D01*
X126163095Y-100672438D02*
X126115476Y-100720057D01*
X126115476Y-100720057D02*
X126067857Y-100815295D01*
X126067857Y-100815295D02*
X126067857Y-100958152D01*
X126067857Y-100958152D02*
X126115476Y-101053390D01*
X126115476Y-101053390D02*
X126163095Y-101101009D01*
X126163095Y-101101009D02*
X126258333Y-101148628D01*
X126258333Y-101148628D02*
X126639285Y-101148628D01*
X125163095Y-100624819D02*
X125639285Y-100624819D01*
X125639285Y-100624819D02*
X125686904Y-101101009D01*
X125686904Y-101101009D02*
X125639285Y-101053390D01*
X125639285Y-101053390D02*
X125544047Y-101005771D01*
X125544047Y-101005771D02*
X125305952Y-101005771D01*
X125305952Y-101005771D02*
X125210714Y-101053390D01*
X125210714Y-101053390D02*
X125163095Y-101101009D01*
X125163095Y-101101009D02*
X125115476Y-101196247D01*
X125115476Y-101196247D02*
X125115476Y-101434342D01*
X125115476Y-101434342D02*
X125163095Y-101529580D01*
X125163095Y-101529580D02*
X125210714Y-101577200D01*
X125210714Y-101577200D02*
X125305952Y-101624819D01*
X125305952Y-101624819D02*
X125544047Y-101624819D01*
X125544047Y-101624819D02*
X125639285Y-101577200D01*
X125639285Y-101577200D02*
X125686904Y-101529580D01*
X124734523Y-100720057D02*
X124686904Y-100672438D01*
X124686904Y-100672438D02*
X124591666Y-100624819D01*
X124591666Y-100624819D02*
X124353571Y-100624819D01*
X124353571Y-100624819D02*
X124258333Y-100672438D01*
X124258333Y-100672438D02*
X124210714Y-100720057D01*
X124210714Y-100720057D02*
X124163095Y-100815295D01*
X124163095Y-100815295D02*
X124163095Y-100910533D01*
X124163095Y-100910533D02*
X124210714Y-101053390D01*
X124210714Y-101053390D02*
X124782142Y-101624819D01*
X124782142Y-101624819D02*
X124163095Y-101624819D01*
D12*
X112501966Y-90049999D02*
X112535300Y-90016666D01*
X112535300Y-90016666D02*
X112568633Y-89916666D01*
X112568633Y-89916666D02*
X112568633Y-89849999D01*
X112568633Y-89849999D02*
X112535300Y-89749999D01*
X112535300Y-89749999D02*
X112468633Y-89683333D01*
X112468633Y-89683333D02*
X112401966Y-89649999D01*
X112401966Y-89649999D02*
X112268633Y-89616666D01*
X112268633Y-89616666D02*
X112168633Y-89616666D01*
X112168633Y-89616666D02*
X112035300Y-89649999D01*
X112035300Y-89649999D02*
X111968633Y-89683333D01*
X111968633Y-89683333D02*
X111901966Y-89749999D01*
X111901966Y-89749999D02*
X111868633Y-89849999D01*
X111868633Y-89849999D02*
X111868633Y-89916666D01*
X111868633Y-89916666D02*
X111901966Y-90016666D01*
X111901966Y-90016666D02*
X111935300Y-90049999D01*
X112101966Y-90649999D02*
X112568633Y-90649999D01*
X111835300Y-90483333D02*
X112335300Y-90316666D01*
X112335300Y-90316666D02*
X112335300Y-90749999D01*
X111935300Y-90983333D02*
X111901966Y-91016666D01*
X111901966Y-91016666D02*
X111868633Y-91083333D01*
X111868633Y-91083333D02*
X111868633Y-91250000D01*
X111868633Y-91250000D02*
X111901966Y-91316666D01*
X111901966Y-91316666D02*
X111935300Y-91350000D01*
X111935300Y-91350000D02*
X112001966Y-91383333D01*
X112001966Y-91383333D02*
X112068633Y-91383333D01*
X112068633Y-91383333D02*
X112168633Y-91350000D01*
X112168633Y-91350000D02*
X112568633Y-90950000D01*
X112568633Y-90950000D02*
X112568633Y-91383333D01*
D11*
X172542857Y-93059580D02*
X172590476Y-93107200D01*
X172590476Y-93107200D02*
X172733333Y-93154819D01*
X172733333Y-93154819D02*
X172828571Y-93154819D01*
X172828571Y-93154819D02*
X172971428Y-93107200D01*
X172971428Y-93107200D02*
X173066666Y-93011961D01*
X173066666Y-93011961D02*
X173114285Y-92916723D01*
X173114285Y-92916723D02*
X173161904Y-92726247D01*
X173161904Y-92726247D02*
X173161904Y-92583390D01*
X173161904Y-92583390D02*
X173114285Y-92392914D01*
X173114285Y-92392914D02*
X173066666Y-92297676D01*
X173066666Y-92297676D02*
X172971428Y-92202438D01*
X172971428Y-92202438D02*
X172828571Y-92154819D01*
X172828571Y-92154819D02*
X172733333Y-92154819D01*
X172733333Y-92154819D02*
X172590476Y-92202438D01*
X172590476Y-92202438D02*
X172542857Y-92250057D01*
X171590476Y-93154819D02*
X172161904Y-93154819D01*
X171876190Y-93154819D02*
X171876190Y-92154819D01*
X171876190Y-92154819D02*
X171971428Y-92297676D01*
X171971428Y-92297676D02*
X172066666Y-92392914D01*
X172066666Y-92392914D02*
X172161904Y-92440533D01*
X170733333Y-92488152D02*
X170733333Y-93154819D01*
X170971428Y-92107200D02*
X171209523Y-92821485D01*
X171209523Y-92821485D02*
X170590476Y-92821485D01*
X166042857Y-78459580D02*
X166090476Y-78507200D01*
X166090476Y-78507200D02*
X166233333Y-78554819D01*
X166233333Y-78554819D02*
X166328571Y-78554819D01*
X166328571Y-78554819D02*
X166471428Y-78507200D01*
X166471428Y-78507200D02*
X166566666Y-78411961D01*
X166566666Y-78411961D02*
X166614285Y-78316723D01*
X166614285Y-78316723D02*
X166661904Y-78126247D01*
X166661904Y-78126247D02*
X166661904Y-77983390D01*
X166661904Y-77983390D02*
X166614285Y-77792914D01*
X166614285Y-77792914D02*
X166566666Y-77697676D01*
X166566666Y-77697676D02*
X166471428Y-77602438D01*
X166471428Y-77602438D02*
X166328571Y-77554819D01*
X166328571Y-77554819D02*
X166233333Y-77554819D01*
X166233333Y-77554819D02*
X166090476Y-77602438D01*
X166090476Y-77602438D02*
X166042857Y-77650057D01*
X165661904Y-77650057D02*
X165614285Y-77602438D01*
X165614285Y-77602438D02*
X165519047Y-77554819D01*
X165519047Y-77554819D02*
X165280952Y-77554819D01*
X165280952Y-77554819D02*
X165185714Y-77602438D01*
X165185714Y-77602438D02*
X165138095Y-77650057D01*
X165138095Y-77650057D02*
X165090476Y-77745295D01*
X165090476Y-77745295D02*
X165090476Y-77840533D01*
X165090476Y-77840533D02*
X165138095Y-77983390D01*
X165138095Y-77983390D02*
X165709523Y-78554819D01*
X165709523Y-78554819D02*
X165090476Y-78554819D01*
X164233333Y-77888152D02*
X164233333Y-78554819D01*
X164471428Y-77507200D02*
X164709523Y-78221485D01*
X164709523Y-78221485D02*
X164090476Y-78221485D01*
X185459580Y-92757142D02*
X185507200Y-92709523D01*
X185507200Y-92709523D02*
X185554819Y-92566666D01*
X185554819Y-92566666D02*
X185554819Y-92471428D01*
X185554819Y-92471428D02*
X185507200Y-92328571D01*
X185507200Y-92328571D02*
X185411961Y-92233333D01*
X185411961Y-92233333D02*
X185316723Y-92185714D01*
X185316723Y-92185714D02*
X185126247Y-92138095D01*
X185126247Y-92138095D02*
X184983390Y-92138095D01*
X184983390Y-92138095D02*
X184792914Y-92185714D01*
X184792914Y-92185714D02*
X184697676Y-92233333D01*
X184697676Y-92233333D02*
X184602438Y-92328571D01*
X184602438Y-92328571D02*
X184554819Y-92471428D01*
X184554819Y-92471428D02*
X184554819Y-92566666D01*
X184554819Y-92566666D02*
X184602438Y-92709523D01*
X184602438Y-92709523D02*
X184650057Y-92757142D01*
X185554819Y-93709523D02*
X185554819Y-93138095D01*
X185554819Y-93423809D02*
X184554819Y-93423809D01*
X184554819Y-93423809D02*
X184697676Y-93328571D01*
X184697676Y-93328571D02*
X184792914Y-93233333D01*
X184792914Y-93233333D02*
X184840533Y-93138095D01*
X185554819Y-94661904D02*
X185554819Y-94090476D01*
X185554819Y-94376190D02*
X184554819Y-94376190D01*
X184554819Y-94376190D02*
X184697676Y-94280952D01*
X184697676Y-94280952D02*
X184792914Y-94185714D01*
X184792914Y-94185714D02*
X184840533Y-94090476D01*
X172542857Y-88654819D02*
X172876190Y-88178628D01*
X173114285Y-88654819D02*
X173114285Y-87654819D01*
X173114285Y-87654819D02*
X172733333Y-87654819D01*
X172733333Y-87654819D02*
X172638095Y-87702438D01*
X172638095Y-87702438D02*
X172590476Y-87750057D01*
X172590476Y-87750057D02*
X172542857Y-87845295D01*
X172542857Y-87845295D02*
X172542857Y-87988152D01*
X172542857Y-87988152D02*
X172590476Y-88083390D01*
X172590476Y-88083390D02*
X172638095Y-88131009D01*
X172638095Y-88131009D02*
X172733333Y-88178628D01*
X172733333Y-88178628D02*
X173114285Y-88178628D01*
X172209523Y-87654819D02*
X171590476Y-87654819D01*
X171590476Y-87654819D02*
X171923809Y-88035771D01*
X171923809Y-88035771D02*
X171780952Y-88035771D01*
X171780952Y-88035771D02*
X171685714Y-88083390D01*
X171685714Y-88083390D02*
X171638095Y-88131009D01*
X171638095Y-88131009D02*
X171590476Y-88226247D01*
X171590476Y-88226247D02*
X171590476Y-88464342D01*
X171590476Y-88464342D02*
X171638095Y-88559580D01*
X171638095Y-88559580D02*
X171685714Y-88607200D01*
X171685714Y-88607200D02*
X171780952Y-88654819D01*
X171780952Y-88654819D02*
X172066666Y-88654819D01*
X172066666Y-88654819D02*
X172161904Y-88607200D01*
X172161904Y-88607200D02*
X172209523Y-88559580D01*
X170733333Y-87988152D02*
X170733333Y-88654819D01*
X170971428Y-87607200D02*
X171209523Y-88321485D01*
X171209523Y-88321485D02*
X170590476Y-88321485D01*
X182959580Y-91057142D02*
X183007200Y-91009523D01*
X183007200Y-91009523D02*
X183054819Y-90866666D01*
X183054819Y-90866666D02*
X183054819Y-90771428D01*
X183054819Y-90771428D02*
X183007200Y-90628571D01*
X183007200Y-90628571D02*
X182911961Y-90533333D01*
X182911961Y-90533333D02*
X182816723Y-90485714D01*
X182816723Y-90485714D02*
X182626247Y-90438095D01*
X182626247Y-90438095D02*
X182483390Y-90438095D01*
X182483390Y-90438095D02*
X182292914Y-90485714D01*
X182292914Y-90485714D02*
X182197676Y-90533333D01*
X182197676Y-90533333D02*
X182102438Y-90628571D01*
X182102438Y-90628571D02*
X182054819Y-90771428D01*
X182054819Y-90771428D02*
X182054819Y-90866666D01*
X182054819Y-90866666D02*
X182102438Y-91009523D01*
X182102438Y-91009523D02*
X182150057Y-91057142D01*
X182054819Y-91961904D02*
X182054819Y-91485714D01*
X182054819Y-91485714D02*
X182531009Y-91438095D01*
X182531009Y-91438095D02*
X182483390Y-91485714D01*
X182483390Y-91485714D02*
X182435771Y-91580952D01*
X182435771Y-91580952D02*
X182435771Y-91819047D01*
X182435771Y-91819047D02*
X182483390Y-91914285D01*
X182483390Y-91914285D02*
X182531009Y-91961904D01*
X182531009Y-91961904D02*
X182626247Y-92009523D01*
X182626247Y-92009523D02*
X182864342Y-92009523D01*
X182864342Y-92009523D02*
X182959580Y-91961904D01*
X182959580Y-91961904D02*
X183007200Y-91914285D01*
X183007200Y-91914285D02*
X183054819Y-91819047D01*
X183054819Y-91819047D02*
X183054819Y-91580952D01*
X183054819Y-91580952D02*
X183007200Y-91485714D01*
X183007200Y-91485714D02*
X182959580Y-91438095D01*
X182054819Y-92342857D02*
X182054819Y-92961904D01*
X182054819Y-92961904D02*
X182435771Y-92628571D01*
X182435771Y-92628571D02*
X182435771Y-92771428D01*
X182435771Y-92771428D02*
X182483390Y-92866666D01*
X182483390Y-92866666D02*
X182531009Y-92914285D01*
X182531009Y-92914285D02*
X182626247Y-92961904D01*
X182626247Y-92961904D02*
X182864342Y-92961904D01*
X182864342Y-92961904D02*
X182959580Y-92914285D01*
X182959580Y-92914285D02*
X183007200Y-92866666D01*
X183007200Y-92866666D02*
X183054819Y-92771428D01*
X183054819Y-92771428D02*
X183054819Y-92485714D01*
X183054819Y-92485714D02*
X183007200Y-92390476D01*
X183007200Y-92390476D02*
X182959580Y-92342857D01*
X170809579Y-102233333D02*
X170857199Y-102185714D01*
X170857199Y-102185714D02*
X170904818Y-102042857D01*
X170904818Y-102042857D02*
X170904818Y-101947619D01*
X170904818Y-101947619D02*
X170857199Y-101804762D01*
X170857199Y-101804762D02*
X170761960Y-101709524D01*
X170761960Y-101709524D02*
X170666722Y-101661905D01*
X170666722Y-101661905D02*
X170476246Y-101614286D01*
X170476246Y-101614286D02*
X170333389Y-101614286D01*
X170333389Y-101614286D02*
X170142913Y-101661905D01*
X170142913Y-101661905D02*
X170047675Y-101709524D01*
X170047675Y-101709524D02*
X169952437Y-101804762D01*
X169952437Y-101804762D02*
X169904818Y-101947619D01*
X169904818Y-101947619D02*
X169904818Y-102042857D01*
X169904818Y-102042857D02*
X169952437Y-102185714D01*
X169952437Y-102185714D02*
X170000056Y-102233333D01*
X169904818Y-103090476D02*
X169904818Y-102900000D01*
X169904818Y-102900000D02*
X169952437Y-102804762D01*
X169952437Y-102804762D02*
X170000056Y-102757143D01*
X170000056Y-102757143D02*
X170142913Y-102661905D01*
X170142913Y-102661905D02*
X170333389Y-102614286D01*
X170333389Y-102614286D02*
X170714341Y-102614286D01*
X170714341Y-102614286D02*
X170809579Y-102661905D01*
X170809579Y-102661905D02*
X170857199Y-102709524D01*
X170857199Y-102709524D02*
X170904818Y-102804762D01*
X170904818Y-102804762D02*
X170904818Y-102995238D01*
X170904818Y-102995238D02*
X170857199Y-103090476D01*
X170857199Y-103090476D02*
X170809579Y-103138095D01*
X170809579Y-103138095D02*
X170714341Y-103185714D01*
X170714341Y-103185714D02*
X170476246Y-103185714D01*
X170476246Y-103185714D02*
X170381008Y-103138095D01*
X170381008Y-103138095D02*
X170333389Y-103090476D01*
X170333389Y-103090476D02*
X170285770Y-102995238D01*
X170285770Y-102995238D02*
X170285770Y-102804762D01*
X170285770Y-102804762D02*
X170333389Y-102709524D01*
X170333389Y-102709524D02*
X170381008Y-102661905D01*
X170381008Y-102661905D02*
X170476246Y-102614286D01*
X166234580Y-83857142D02*
X166282200Y-83809523D01*
X166282200Y-83809523D02*
X166329819Y-83666666D01*
X166329819Y-83666666D02*
X166329819Y-83571428D01*
X166329819Y-83571428D02*
X166282200Y-83428571D01*
X166282200Y-83428571D02*
X166186961Y-83333333D01*
X166186961Y-83333333D02*
X166091723Y-83285714D01*
X166091723Y-83285714D02*
X165901247Y-83238095D01*
X165901247Y-83238095D02*
X165758390Y-83238095D01*
X165758390Y-83238095D02*
X165567914Y-83285714D01*
X165567914Y-83285714D02*
X165472676Y-83333333D01*
X165472676Y-83333333D02*
X165377438Y-83428571D01*
X165377438Y-83428571D02*
X165329819Y-83571428D01*
X165329819Y-83571428D02*
X165329819Y-83666666D01*
X165329819Y-83666666D02*
X165377438Y-83809523D01*
X165377438Y-83809523D02*
X165425057Y-83857142D01*
X165425057Y-84238095D02*
X165377438Y-84285714D01*
X165377438Y-84285714D02*
X165329819Y-84380952D01*
X165329819Y-84380952D02*
X165329819Y-84619047D01*
X165329819Y-84619047D02*
X165377438Y-84714285D01*
X165377438Y-84714285D02*
X165425057Y-84761904D01*
X165425057Y-84761904D02*
X165520295Y-84809523D01*
X165520295Y-84809523D02*
X165615533Y-84809523D01*
X165615533Y-84809523D02*
X165758390Y-84761904D01*
X165758390Y-84761904D02*
X166329819Y-84190476D01*
X166329819Y-84190476D02*
X166329819Y-84809523D01*
X165425057Y-85190476D02*
X165377438Y-85238095D01*
X165377438Y-85238095D02*
X165329819Y-85333333D01*
X165329819Y-85333333D02*
X165329819Y-85571428D01*
X165329819Y-85571428D02*
X165377438Y-85666666D01*
X165377438Y-85666666D02*
X165425057Y-85714285D01*
X165425057Y-85714285D02*
X165520295Y-85761904D01*
X165520295Y-85761904D02*
X165615533Y-85761904D01*
X165615533Y-85761904D02*
X165758390Y-85714285D01*
X165758390Y-85714285D02*
X166329819Y-85142857D01*
X166329819Y-85142857D02*
X166329819Y-85761904D01*
X123154819Y-100257142D02*
X122678628Y-99923809D01*
X123154819Y-99685714D02*
X122154819Y-99685714D01*
X122154819Y-99685714D02*
X122154819Y-100066666D01*
X122154819Y-100066666D02*
X122202438Y-100161904D01*
X122202438Y-100161904D02*
X122250057Y-100209523D01*
X122250057Y-100209523D02*
X122345295Y-100257142D01*
X122345295Y-100257142D02*
X122488152Y-100257142D01*
X122488152Y-100257142D02*
X122583390Y-100209523D01*
X122583390Y-100209523D02*
X122631009Y-100161904D01*
X122631009Y-100161904D02*
X122678628Y-100066666D01*
X122678628Y-100066666D02*
X122678628Y-99685714D01*
X122488152Y-101114285D02*
X123154819Y-101114285D01*
X122107200Y-100876190D02*
X122821485Y-100638095D01*
X122821485Y-100638095D02*
X122821485Y-101257142D01*
X123154819Y-101685714D02*
X123154819Y-101876190D01*
X123154819Y-101876190D02*
X123107200Y-101971428D01*
X123107200Y-101971428D02*
X123059580Y-102019047D01*
X123059580Y-102019047D02*
X122916723Y-102114285D01*
X122916723Y-102114285D02*
X122726247Y-102161904D01*
X122726247Y-102161904D02*
X122345295Y-102161904D01*
X122345295Y-102161904D02*
X122250057Y-102114285D01*
X122250057Y-102114285D02*
X122202438Y-102066666D01*
X122202438Y-102066666D02*
X122154819Y-101971428D01*
X122154819Y-101971428D02*
X122154819Y-101780952D01*
X122154819Y-101780952D02*
X122202438Y-101685714D01*
X122202438Y-101685714D02*
X122250057Y-101638095D01*
X122250057Y-101638095D02*
X122345295Y-101590476D01*
X122345295Y-101590476D02*
X122583390Y-101590476D01*
X122583390Y-101590476D02*
X122678628Y-101638095D01*
X122678628Y-101638095D02*
X122726247Y-101685714D01*
X122726247Y-101685714D02*
X122773866Y-101780952D01*
X122773866Y-101780952D02*
X122773866Y-101971428D01*
X122773866Y-101971428D02*
X122726247Y-102066666D01*
X122726247Y-102066666D02*
X122678628Y-102114285D01*
X122678628Y-102114285D02*
X122583390Y-102161904D01*
X113779819Y-96583333D02*
X113303628Y-96250000D01*
X113779819Y-96011905D02*
X112779819Y-96011905D01*
X112779819Y-96011905D02*
X112779819Y-96392857D01*
X112779819Y-96392857D02*
X112827438Y-96488095D01*
X112827438Y-96488095D02*
X112875057Y-96535714D01*
X112875057Y-96535714D02*
X112970295Y-96583333D01*
X112970295Y-96583333D02*
X113113152Y-96583333D01*
X113113152Y-96583333D02*
X113208390Y-96535714D01*
X113208390Y-96535714D02*
X113256009Y-96488095D01*
X113256009Y-96488095D02*
X113303628Y-96392857D01*
X113303628Y-96392857D02*
X113303628Y-96011905D01*
X113208390Y-97154762D02*
X113160771Y-97059524D01*
X113160771Y-97059524D02*
X113113152Y-97011905D01*
X113113152Y-97011905D02*
X113017914Y-96964286D01*
X113017914Y-96964286D02*
X112970295Y-96964286D01*
X112970295Y-96964286D02*
X112875057Y-97011905D01*
X112875057Y-97011905D02*
X112827438Y-97059524D01*
X112827438Y-97059524D02*
X112779819Y-97154762D01*
X112779819Y-97154762D02*
X112779819Y-97345238D01*
X112779819Y-97345238D02*
X112827438Y-97440476D01*
X112827438Y-97440476D02*
X112875057Y-97488095D01*
X112875057Y-97488095D02*
X112970295Y-97535714D01*
X112970295Y-97535714D02*
X113017914Y-97535714D01*
X113017914Y-97535714D02*
X113113152Y-97488095D01*
X113113152Y-97488095D02*
X113160771Y-97440476D01*
X113160771Y-97440476D02*
X113208390Y-97345238D01*
X113208390Y-97345238D02*
X113208390Y-97154762D01*
X113208390Y-97154762D02*
X113256009Y-97059524D01*
X113256009Y-97059524D02*
X113303628Y-97011905D01*
X113303628Y-97011905D02*
X113398866Y-96964286D01*
X113398866Y-96964286D02*
X113589342Y-96964286D01*
X113589342Y-96964286D02*
X113684580Y-97011905D01*
X113684580Y-97011905D02*
X113732200Y-97059524D01*
X113732200Y-97059524D02*
X113779819Y-97154762D01*
X113779819Y-97154762D02*
X113779819Y-97345238D01*
X113779819Y-97345238D02*
X113732200Y-97440476D01*
X113732200Y-97440476D02*
X113684580Y-97488095D01*
X113684580Y-97488095D02*
X113589342Y-97535714D01*
X113589342Y-97535714D02*
X113398866Y-97535714D01*
X113398866Y-97535714D02*
X113303628Y-97488095D01*
X113303628Y-97488095D02*
X113256009Y-97440476D01*
X113256009Y-97440476D02*
X113208390Y-97345238D01*
X118959580Y-103357142D02*
X119007200Y-103309523D01*
X119007200Y-103309523D02*
X119054819Y-103166666D01*
X119054819Y-103166666D02*
X119054819Y-103071428D01*
X119054819Y-103071428D02*
X119007200Y-102928571D01*
X119007200Y-102928571D02*
X118911961Y-102833333D01*
X118911961Y-102833333D02*
X118816723Y-102785714D01*
X118816723Y-102785714D02*
X118626247Y-102738095D01*
X118626247Y-102738095D02*
X118483390Y-102738095D01*
X118483390Y-102738095D02*
X118292914Y-102785714D01*
X118292914Y-102785714D02*
X118197676Y-102833333D01*
X118197676Y-102833333D02*
X118102438Y-102928571D01*
X118102438Y-102928571D02*
X118054819Y-103071428D01*
X118054819Y-103071428D02*
X118054819Y-103166666D01*
X118054819Y-103166666D02*
X118102438Y-103309523D01*
X118102438Y-103309523D02*
X118150057Y-103357142D01*
X118150057Y-103738095D02*
X118102438Y-103785714D01*
X118102438Y-103785714D02*
X118054819Y-103880952D01*
X118054819Y-103880952D02*
X118054819Y-104119047D01*
X118054819Y-104119047D02*
X118102438Y-104214285D01*
X118102438Y-104214285D02*
X118150057Y-104261904D01*
X118150057Y-104261904D02*
X118245295Y-104309523D01*
X118245295Y-104309523D02*
X118340533Y-104309523D01*
X118340533Y-104309523D02*
X118483390Y-104261904D01*
X118483390Y-104261904D02*
X119054819Y-103690476D01*
X119054819Y-103690476D02*
X119054819Y-104309523D01*
X118054819Y-105214285D02*
X118054819Y-104738095D01*
X118054819Y-104738095D02*
X118531009Y-104690476D01*
X118531009Y-104690476D02*
X118483390Y-104738095D01*
X118483390Y-104738095D02*
X118435771Y-104833333D01*
X118435771Y-104833333D02*
X118435771Y-105071428D01*
X118435771Y-105071428D02*
X118483390Y-105166666D01*
X118483390Y-105166666D02*
X118531009Y-105214285D01*
X118531009Y-105214285D02*
X118626247Y-105261904D01*
X118626247Y-105261904D02*
X118864342Y-105261904D01*
X118864342Y-105261904D02*
X118959580Y-105214285D01*
X118959580Y-105214285D02*
X119007200Y-105166666D01*
X119007200Y-105166666D02*
X119054819Y-105071428D01*
X119054819Y-105071428D02*
X119054819Y-104833333D01*
X119054819Y-104833333D02*
X119007200Y-104738095D01*
X119007200Y-104738095D02*
X118959580Y-104690476D01*
X178342857Y-91159580D02*
X178390476Y-91207200D01*
X178390476Y-91207200D02*
X178533333Y-91254819D01*
X178533333Y-91254819D02*
X178628571Y-91254819D01*
X178628571Y-91254819D02*
X178771428Y-91207200D01*
X178771428Y-91207200D02*
X178866666Y-91111961D01*
X178866666Y-91111961D02*
X178914285Y-91016723D01*
X178914285Y-91016723D02*
X178961904Y-90826247D01*
X178961904Y-90826247D02*
X178961904Y-90683390D01*
X178961904Y-90683390D02*
X178914285Y-90492914D01*
X178914285Y-90492914D02*
X178866666Y-90397676D01*
X178866666Y-90397676D02*
X178771428Y-90302438D01*
X178771428Y-90302438D02*
X178628571Y-90254819D01*
X178628571Y-90254819D02*
X178533333Y-90254819D01*
X178533333Y-90254819D02*
X178390476Y-90302438D01*
X178390476Y-90302438D02*
X178342857Y-90350057D01*
X177485714Y-90588152D02*
X177485714Y-91254819D01*
X177723809Y-90207200D02*
X177961904Y-90921485D01*
X177961904Y-90921485D02*
X177342857Y-90921485D01*
X176914285Y-91254819D02*
X176723809Y-91254819D01*
X176723809Y-91254819D02*
X176628571Y-91207200D01*
X176628571Y-91207200D02*
X176580952Y-91159580D01*
X176580952Y-91159580D02*
X176485714Y-91016723D01*
X176485714Y-91016723D02*
X176438095Y-90826247D01*
X176438095Y-90826247D02*
X176438095Y-90445295D01*
X176438095Y-90445295D02*
X176485714Y-90350057D01*
X176485714Y-90350057D02*
X176533333Y-90302438D01*
X176533333Y-90302438D02*
X176628571Y-90254819D01*
X176628571Y-90254819D02*
X176819047Y-90254819D01*
X176819047Y-90254819D02*
X176914285Y-90302438D01*
X176914285Y-90302438D02*
X176961904Y-90350057D01*
X176961904Y-90350057D02*
X177009523Y-90445295D01*
X177009523Y-90445295D02*
X177009523Y-90683390D01*
X177009523Y-90683390D02*
X176961904Y-90778628D01*
X176961904Y-90778628D02*
X176914285Y-90826247D01*
X176914285Y-90826247D02*
X176819047Y-90873866D01*
X176819047Y-90873866D02*
X176628571Y-90873866D01*
X176628571Y-90873866D02*
X176533333Y-90826247D01*
X176533333Y-90826247D02*
X176485714Y-90778628D01*
X176485714Y-90778628D02*
X176438095Y-90683390D01*
X178730355Y-87922077D02*
X178777974Y-87969697D01*
X178777974Y-87969697D02*
X178920831Y-88017316D01*
X178920831Y-88017316D02*
X179016069Y-88017316D01*
X179016069Y-88017316D02*
X179158926Y-87969697D01*
X179158926Y-87969697D02*
X179254164Y-87874458D01*
X179254164Y-87874458D02*
X179301783Y-87779220D01*
X179301783Y-87779220D02*
X179349402Y-87588744D01*
X179349402Y-87588744D02*
X179349402Y-87445887D01*
X179349402Y-87445887D02*
X179301783Y-87255411D01*
X179301783Y-87255411D02*
X179254164Y-87160173D01*
X179254164Y-87160173D02*
X179158926Y-87064935D01*
X179158926Y-87064935D02*
X179016069Y-87017316D01*
X179016069Y-87017316D02*
X178920831Y-87017316D01*
X178920831Y-87017316D02*
X178777974Y-87064935D01*
X178777974Y-87064935D02*
X178730355Y-87112554D01*
X177873212Y-87350649D02*
X177873212Y-88017316D01*
X178111307Y-86969697D02*
X178349402Y-87683982D01*
X178349402Y-87683982D02*
X177730355Y-87683982D01*
X176920831Y-87017316D02*
X177111307Y-87017316D01*
X177111307Y-87017316D02*
X177206545Y-87064935D01*
X177206545Y-87064935D02*
X177254164Y-87112554D01*
X177254164Y-87112554D02*
X177349402Y-87255411D01*
X177349402Y-87255411D02*
X177397021Y-87445887D01*
X177397021Y-87445887D02*
X177397021Y-87826839D01*
X177397021Y-87826839D02*
X177349402Y-87922077D01*
X177349402Y-87922077D02*
X177301783Y-87969697D01*
X177301783Y-87969697D02*
X177206545Y-88017316D01*
X177206545Y-88017316D02*
X177016069Y-88017316D01*
X177016069Y-88017316D02*
X176920831Y-87969697D01*
X176920831Y-87969697D02*
X176873212Y-87922077D01*
X176873212Y-87922077D02*
X176825593Y-87826839D01*
X176825593Y-87826839D02*
X176825593Y-87588744D01*
X176825593Y-87588744D02*
X176873212Y-87493506D01*
X176873212Y-87493506D02*
X176920831Y-87445887D01*
X176920831Y-87445887D02*
X177016069Y-87398268D01*
X177016069Y-87398268D02*
X177206545Y-87398268D01*
X177206545Y-87398268D02*
X177301783Y-87445887D01*
X177301783Y-87445887D02*
X177349402Y-87493506D01*
X177349402Y-87493506D02*
X177397021Y-87588744D01*
X177654819Y-78257142D02*
X177178628Y-77923809D01*
X177654819Y-77685714D02*
X176654819Y-77685714D01*
X176654819Y-77685714D02*
X176654819Y-78066666D01*
X176654819Y-78066666D02*
X176702438Y-78161904D01*
X176702438Y-78161904D02*
X176750057Y-78209523D01*
X176750057Y-78209523D02*
X176845295Y-78257142D01*
X176845295Y-78257142D02*
X176988152Y-78257142D01*
X176988152Y-78257142D02*
X177083390Y-78209523D01*
X177083390Y-78209523D02*
X177131009Y-78161904D01*
X177131009Y-78161904D02*
X177178628Y-78066666D01*
X177178628Y-78066666D02*
X177178628Y-77685714D01*
X176654819Y-79161904D02*
X176654819Y-78685714D01*
X176654819Y-78685714D02*
X177131009Y-78638095D01*
X177131009Y-78638095D02*
X177083390Y-78685714D01*
X177083390Y-78685714D02*
X177035771Y-78780952D01*
X177035771Y-78780952D02*
X177035771Y-79019047D01*
X177035771Y-79019047D02*
X177083390Y-79114285D01*
X177083390Y-79114285D02*
X177131009Y-79161904D01*
X177131009Y-79161904D02*
X177226247Y-79209523D01*
X177226247Y-79209523D02*
X177464342Y-79209523D01*
X177464342Y-79209523D02*
X177559580Y-79161904D01*
X177559580Y-79161904D02*
X177607200Y-79114285D01*
X177607200Y-79114285D02*
X177654819Y-79019047D01*
X177654819Y-79019047D02*
X177654819Y-78780952D01*
X177654819Y-78780952D02*
X177607200Y-78685714D01*
X177607200Y-78685714D02*
X177559580Y-78638095D01*
X176988152Y-80066666D02*
X177654819Y-80066666D01*
X176607200Y-79828571D02*
X177321485Y-79590476D01*
X177321485Y-79590476D02*
X177321485Y-80209523D01*
X178730355Y-86359580D02*
X178777974Y-86407200D01*
X178777974Y-86407200D02*
X178920831Y-86454819D01*
X178920831Y-86454819D02*
X179016069Y-86454819D01*
X179016069Y-86454819D02*
X179158926Y-86407200D01*
X179158926Y-86407200D02*
X179254164Y-86311961D01*
X179254164Y-86311961D02*
X179301783Y-86216723D01*
X179301783Y-86216723D02*
X179349402Y-86026247D01*
X179349402Y-86026247D02*
X179349402Y-85883390D01*
X179349402Y-85883390D02*
X179301783Y-85692914D01*
X179301783Y-85692914D02*
X179254164Y-85597676D01*
X179254164Y-85597676D02*
X179158926Y-85502438D01*
X179158926Y-85502438D02*
X179016069Y-85454819D01*
X179016069Y-85454819D02*
X178920831Y-85454819D01*
X178920831Y-85454819D02*
X178777974Y-85502438D01*
X178777974Y-85502438D02*
X178730355Y-85550057D01*
X177873212Y-85788152D02*
X177873212Y-86454819D01*
X178111307Y-85407200D02*
X178349402Y-86121485D01*
X178349402Y-86121485D02*
X177730355Y-86121485D01*
X176825593Y-86454819D02*
X177397021Y-86454819D01*
X177111307Y-86454819D02*
X177111307Y-85454819D01*
X177111307Y-85454819D02*
X177206545Y-85597676D01*
X177206545Y-85597676D02*
X177301783Y-85692914D01*
X177301783Y-85692914D02*
X177397021Y-85740533D01*
D12*
X183951966Y-83937498D02*
X183985300Y-83904165D01*
X183985300Y-83904165D02*
X184018633Y-83804165D01*
X184018633Y-83804165D02*
X184018633Y-83737498D01*
X184018633Y-83737498D02*
X183985300Y-83637498D01*
X183985300Y-83637498D02*
X183918633Y-83570832D01*
X183918633Y-83570832D02*
X183851966Y-83537498D01*
X183851966Y-83537498D02*
X183718633Y-83504165D01*
X183718633Y-83504165D02*
X183618633Y-83504165D01*
X183618633Y-83504165D02*
X183485300Y-83537498D01*
X183485300Y-83537498D02*
X183418633Y-83570832D01*
X183418633Y-83570832D02*
X183351966Y-83637498D01*
X183351966Y-83637498D02*
X183318633Y-83737498D01*
X183318633Y-83737498D02*
X183318633Y-83804165D01*
X183318633Y-83804165D02*
X183351966Y-83904165D01*
X183351966Y-83904165D02*
X183385300Y-83937498D01*
X183318633Y-84170832D02*
X183318633Y-84604165D01*
X183318633Y-84604165D02*
X183585300Y-84370832D01*
X183585300Y-84370832D02*
X183585300Y-84470832D01*
X183585300Y-84470832D02*
X183618633Y-84537498D01*
X183618633Y-84537498D02*
X183651966Y-84570832D01*
X183651966Y-84570832D02*
X183718633Y-84604165D01*
X183718633Y-84604165D02*
X183885300Y-84604165D01*
X183885300Y-84604165D02*
X183951966Y-84570832D01*
X183951966Y-84570832D02*
X183985300Y-84537498D01*
X183985300Y-84537498D02*
X184018633Y-84470832D01*
X184018633Y-84470832D02*
X184018633Y-84270832D01*
X184018633Y-84270832D02*
X183985300Y-84204165D01*
X183985300Y-84204165D02*
X183951966Y-84170832D01*
X183318633Y-84837499D02*
X183318633Y-85304165D01*
X183318633Y-85304165D02*
X184018633Y-85004165D01*
D11*
X184259580Y-92757142D02*
X184307200Y-92709523D01*
X184307200Y-92709523D02*
X184354819Y-92566666D01*
X184354819Y-92566666D02*
X184354819Y-92471428D01*
X184354819Y-92471428D02*
X184307200Y-92328571D01*
X184307200Y-92328571D02*
X184211961Y-92233333D01*
X184211961Y-92233333D02*
X184116723Y-92185714D01*
X184116723Y-92185714D02*
X183926247Y-92138095D01*
X183926247Y-92138095D02*
X183783390Y-92138095D01*
X183783390Y-92138095D02*
X183592914Y-92185714D01*
X183592914Y-92185714D02*
X183497676Y-92233333D01*
X183497676Y-92233333D02*
X183402438Y-92328571D01*
X183402438Y-92328571D02*
X183354819Y-92471428D01*
X183354819Y-92471428D02*
X183354819Y-92566666D01*
X183354819Y-92566666D02*
X183402438Y-92709523D01*
X183402438Y-92709523D02*
X183450057Y-92757142D01*
X184354819Y-93709523D02*
X184354819Y-93138095D01*
X184354819Y-93423809D02*
X183354819Y-93423809D01*
X183354819Y-93423809D02*
X183497676Y-93328571D01*
X183497676Y-93328571D02*
X183592914Y-93233333D01*
X183592914Y-93233333D02*
X183640533Y-93138095D01*
X183450057Y-94090476D02*
X183402438Y-94138095D01*
X183402438Y-94138095D02*
X183354819Y-94233333D01*
X183354819Y-94233333D02*
X183354819Y-94471428D01*
X183354819Y-94471428D02*
X183402438Y-94566666D01*
X183402438Y-94566666D02*
X183450057Y-94614285D01*
X183450057Y-94614285D02*
X183545295Y-94661904D01*
X183545295Y-94661904D02*
X183640533Y-94661904D01*
X183640533Y-94661904D02*
X183783390Y-94614285D01*
X183783390Y-94614285D02*
X184354819Y-94042857D01*
X184354819Y-94042857D02*
X184354819Y-94661904D01*
X143938095Y-120495180D02*
X143938095Y-119685657D01*
X143938095Y-119685657D02*
X143985714Y-119590419D01*
X143985714Y-119590419D02*
X144033333Y-119542800D01*
X144033333Y-119542800D02*
X144128571Y-119495180D01*
X144128571Y-119495180D02*
X144319047Y-119495180D01*
X144319047Y-119495180D02*
X144414285Y-119542800D01*
X144414285Y-119542800D02*
X144461904Y-119590419D01*
X144461904Y-119590419D02*
X144509523Y-119685657D01*
X144509523Y-119685657D02*
X144509523Y-120495180D01*
X145414285Y-120161847D02*
X145414285Y-119495180D01*
X145176190Y-120542800D02*
X144938095Y-119828514D01*
X144938095Y-119828514D02*
X145557142Y-119828514D01*
X166754819Y-103933333D02*
X166278628Y-103600000D01*
X166754819Y-103361905D02*
X165754819Y-103361905D01*
X165754819Y-103361905D02*
X165754819Y-103742857D01*
X165754819Y-103742857D02*
X165802438Y-103838095D01*
X165802438Y-103838095D02*
X165850057Y-103885714D01*
X165850057Y-103885714D02*
X165945295Y-103933333D01*
X165945295Y-103933333D02*
X166088152Y-103933333D01*
X166088152Y-103933333D02*
X166183390Y-103885714D01*
X166183390Y-103885714D02*
X166231009Y-103838095D01*
X166231009Y-103838095D02*
X166278628Y-103742857D01*
X166278628Y-103742857D02*
X166278628Y-103361905D01*
X166754819Y-104409524D02*
X166754819Y-104600000D01*
X166754819Y-104600000D02*
X166707200Y-104695238D01*
X166707200Y-104695238D02*
X166659580Y-104742857D01*
X166659580Y-104742857D02*
X166516723Y-104838095D01*
X166516723Y-104838095D02*
X166326247Y-104885714D01*
X166326247Y-104885714D02*
X165945295Y-104885714D01*
X165945295Y-104885714D02*
X165850057Y-104838095D01*
X165850057Y-104838095D02*
X165802438Y-104790476D01*
X165802438Y-104790476D02*
X165754819Y-104695238D01*
X165754819Y-104695238D02*
X165754819Y-104504762D01*
X165754819Y-104504762D02*
X165802438Y-104409524D01*
X165802438Y-104409524D02*
X165850057Y-104361905D01*
X165850057Y-104361905D02*
X165945295Y-104314286D01*
X165945295Y-104314286D02*
X166183390Y-104314286D01*
X166183390Y-104314286D02*
X166278628Y-104361905D01*
X166278628Y-104361905D02*
X166326247Y-104409524D01*
X166326247Y-104409524D02*
X166373866Y-104504762D01*
X166373866Y-104504762D02*
X166373866Y-104695238D01*
X166373866Y-104695238D02*
X166326247Y-104790476D01*
X166326247Y-104790476D02*
X166278628Y-104838095D01*
X166278628Y-104838095D02*
X166183390Y-104885714D01*
X143442857Y-97159580D02*
X143490476Y-97207200D01*
X143490476Y-97207200D02*
X143633333Y-97254819D01*
X143633333Y-97254819D02*
X143728571Y-97254819D01*
X143728571Y-97254819D02*
X143871428Y-97207200D01*
X143871428Y-97207200D02*
X143966666Y-97111961D01*
X143966666Y-97111961D02*
X144014285Y-97016723D01*
X144014285Y-97016723D02*
X144061904Y-96826247D01*
X144061904Y-96826247D02*
X144061904Y-96683390D01*
X144061904Y-96683390D02*
X144014285Y-96492914D01*
X144014285Y-96492914D02*
X143966666Y-96397676D01*
X143966666Y-96397676D02*
X143871428Y-96302438D01*
X143871428Y-96302438D02*
X143728571Y-96254819D01*
X143728571Y-96254819D02*
X143633333Y-96254819D01*
X143633333Y-96254819D02*
X143490476Y-96302438D01*
X143490476Y-96302438D02*
X143442857Y-96350057D01*
X142585714Y-96254819D02*
X142776190Y-96254819D01*
X142776190Y-96254819D02*
X142871428Y-96302438D01*
X142871428Y-96302438D02*
X142919047Y-96350057D01*
X142919047Y-96350057D02*
X143014285Y-96492914D01*
X143014285Y-96492914D02*
X143061904Y-96683390D01*
X143061904Y-96683390D02*
X143061904Y-97064342D01*
X143061904Y-97064342D02*
X143014285Y-97159580D01*
X143014285Y-97159580D02*
X142966666Y-97207200D01*
X142966666Y-97207200D02*
X142871428Y-97254819D01*
X142871428Y-97254819D02*
X142680952Y-97254819D01*
X142680952Y-97254819D02*
X142585714Y-97207200D01*
X142585714Y-97207200D02*
X142538095Y-97159580D01*
X142538095Y-97159580D02*
X142490476Y-97064342D01*
X142490476Y-97064342D02*
X142490476Y-96826247D01*
X142490476Y-96826247D02*
X142538095Y-96731009D01*
X142538095Y-96731009D02*
X142585714Y-96683390D01*
X142585714Y-96683390D02*
X142680952Y-96635771D01*
X142680952Y-96635771D02*
X142871428Y-96635771D01*
X142871428Y-96635771D02*
X142966666Y-96683390D01*
X142966666Y-96683390D02*
X143014285Y-96731009D01*
X143014285Y-96731009D02*
X143061904Y-96826247D01*
X142157142Y-96254819D02*
X141538095Y-96254819D01*
X141538095Y-96254819D02*
X141871428Y-96635771D01*
X141871428Y-96635771D02*
X141728571Y-96635771D01*
X141728571Y-96635771D02*
X141633333Y-96683390D01*
X141633333Y-96683390D02*
X141585714Y-96731009D01*
X141585714Y-96731009D02*
X141538095Y-96826247D01*
X141538095Y-96826247D02*
X141538095Y-97064342D01*
X141538095Y-97064342D02*
X141585714Y-97159580D01*
X141585714Y-97159580D02*
X141633333Y-97207200D01*
X141633333Y-97207200D02*
X141728571Y-97254819D01*
X141728571Y-97254819D02*
X142014285Y-97254819D01*
X142014285Y-97254819D02*
X142109523Y-97207200D01*
X142109523Y-97207200D02*
X142157142Y-97159580D01*
X178659580Y-93957142D02*
X178707200Y-93909523D01*
X178707200Y-93909523D02*
X178754819Y-93766666D01*
X178754819Y-93766666D02*
X178754819Y-93671428D01*
X178754819Y-93671428D02*
X178707200Y-93528571D01*
X178707200Y-93528571D02*
X178611961Y-93433333D01*
X178611961Y-93433333D02*
X178516723Y-93385714D01*
X178516723Y-93385714D02*
X178326247Y-93338095D01*
X178326247Y-93338095D02*
X178183390Y-93338095D01*
X178183390Y-93338095D02*
X177992914Y-93385714D01*
X177992914Y-93385714D02*
X177897676Y-93433333D01*
X177897676Y-93433333D02*
X177802438Y-93528571D01*
X177802438Y-93528571D02*
X177754819Y-93671428D01*
X177754819Y-93671428D02*
X177754819Y-93766666D01*
X177754819Y-93766666D02*
X177802438Y-93909523D01*
X177802438Y-93909523D02*
X177850057Y-93957142D01*
X177754819Y-94861904D02*
X177754819Y-94385714D01*
X177754819Y-94385714D02*
X178231009Y-94338095D01*
X178231009Y-94338095D02*
X178183390Y-94385714D01*
X178183390Y-94385714D02*
X178135771Y-94480952D01*
X178135771Y-94480952D02*
X178135771Y-94719047D01*
X178135771Y-94719047D02*
X178183390Y-94814285D01*
X178183390Y-94814285D02*
X178231009Y-94861904D01*
X178231009Y-94861904D02*
X178326247Y-94909523D01*
X178326247Y-94909523D02*
X178564342Y-94909523D01*
X178564342Y-94909523D02*
X178659580Y-94861904D01*
X178659580Y-94861904D02*
X178707200Y-94814285D01*
X178707200Y-94814285D02*
X178754819Y-94719047D01*
X178754819Y-94719047D02*
X178754819Y-94480952D01*
X178754819Y-94480952D02*
X178707200Y-94385714D01*
X178707200Y-94385714D02*
X178659580Y-94338095D01*
X177754819Y-95814285D02*
X177754819Y-95338095D01*
X177754819Y-95338095D02*
X178231009Y-95290476D01*
X178231009Y-95290476D02*
X178183390Y-95338095D01*
X178183390Y-95338095D02*
X178135771Y-95433333D01*
X178135771Y-95433333D02*
X178135771Y-95671428D01*
X178135771Y-95671428D02*
X178183390Y-95766666D01*
X178183390Y-95766666D02*
X178231009Y-95814285D01*
X178231009Y-95814285D02*
X178326247Y-95861904D01*
X178326247Y-95861904D02*
X178564342Y-95861904D01*
X178564342Y-95861904D02*
X178659580Y-95814285D01*
X178659580Y-95814285D02*
X178707200Y-95766666D01*
X178707200Y-95766666D02*
X178754819Y-95671428D01*
X178754819Y-95671428D02*
X178754819Y-95433333D01*
X178754819Y-95433333D02*
X178707200Y-95338095D01*
X178707200Y-95338095D02*
X178659580Y-95290476D01*
X148659580Y-87419642D02*
X148707200Y-87372023D01*
X148707200Y-87372023D02*
X148754819Y-87229166D01*
X148754819Y-87229166D02*
X148754819Y-87133928D01*
X148754819Y-87133928D02*
X148707200Y-86991071D01*
X148707200Y-86991071D02*
X148611961Y-86895833D01*
X148611961Y-86895833D02*
X148516723Y-86848214D01*
X148516723Y-86848214D02*
X148326247Y-86800595D01*
X148326247Y-86800595D02*
X148183390Y-86800595D01*
X148183390Y-86800595D02*
X147992914Y-86848214D01*
X147992914Y-86848214D02*
X147897676Y-86895833D01*
X147897676Y-86895833D02*
X147802438Y-86991071D01*
X147802438Y-86991071D02*
X147754819Y-87133928D01*
X147754819Y-87133928D02*
X147754819Y-87229166D01*
X147754819Y-87229166D02*
X147802438Y-87372023D01*
X147802438Y-87372023D02*
X147850057Y-87419642D01*
X147754819Y-88324404D02*
X147754819Y-87848214D01*
X147754819Y-87848214D02*
X148231009Y-87800595D01*
X148231009Y-87800595D02*
X148183390Y-87848214D01*
X148183390Y-87848214D02*
X148135771Y-87943452D01*
X148135771Y-87943452D02*
X148135771Y-88181547D01*
X148135771Y-88181547D02*
X148183390Y-88276785D01*
X148183390Y-88276785D02*
X148231009Y-88324404D01*
X148231009Y-88324404D02*
X148326247Y-88372023D01*
X148326247Y-88372023D02*
X148564342Y-88372023D01*
X148564342Y-88372023D02*
X148659580Y-88324404D01*
X148659580Y-88324404D02*
X148707200Y-88276785D01*
X148707200Y-88276785D02*
X148754819Y-88181547D01*
X148754819Y-88181547D02*
X148754819Y-87943452D01*
X148754819Y-87943452D02*
X148707200Y-87848214D01*
X148707200Y-87848214D02*
X148659580Y-87800595D01*
X147754819Y-88705357D02*
X147754819Y-89372023D01*
X147754819Y-89372023D02*
X148754819Y-88943452D01*
D12*
X185451966Y-83924997D02*
X185485300Y-83891664D01*
X185485300Y-83891664D02*
X185518633Y-83791664D01*
X185518633Y-83791664D02*
X185518633Y-83724997D01*
X185518633Y-83724997D02*
X185485300Y-83624997D01*
X185485300Y-83624997D02*
X185418633Y-83558331D01*
X185418633Y-83558331D02*
X185351966Y-83524997D01*
X185351966Y-83524997D02*
X185218633Y-83491664D01*
X185218633Y-83491664D02*
X185118633Y-83491664D01*
X185118633Y-83491664D02*
X184985300Y-83524997D01*
X184985300Y-83524997D02*
X184918633Y-83558331D01*
X184918633Y-83558331D02*
X184851966Y-83624997D01*
X184851966Y-83624997D02*
X184818633Y-83724997D01*
X184818633Y-83724997D02*
X184818633Y-83791664D01*
X184818633Y-83791664D02*
X184851966Y-83891664D01*
X184851966Y-83891664D02*
X184885300Y-83924997D01*
X184818633Y-84158331D02*
X184818633Y-84591664D01*
X184818633Y-84591664D02*
X185085300Y-84358331D01*
X185085300Y-84358331D02*
X185085300Y-84458331D01*
X185085300Y-84458331D02*
X185118633Y-84524997D01*
X185118633Y-84524997D02*
X185151966Y-84558331D01*
X185151966Y-84558331D02*
X185218633Y-84591664D01*
X185218633Y-84591664D02*
X185385300Y-84591664D01*
X185385300Y-84591664D02*
X185451966Y-84558331D01*
X185451966Y-84558331D02*
X185485300Y-84524997D01*
X185485300Y-84524997D02*
X185518633Y-84458331D01*
X185518633Y-84458331D02*
X185518633Y-84258331D01*
X185518633Y-84258331D02*
X185485300Y-84191664D01*
X185485300Y-84191664D02*
X185451966Y-84158331D01*
X185518633Y-84924998D02*
X185518633Y-85058331D01*
X185518633Y-85058331D02*
X185485300Y-85124998D01*
X185485300Y-85124998D02*
X185451966Y-85158331D01*
X185451966Y-85158331D02*
X185351966Y-85224998D01*
X185351966Y-85224998D02*
X185218633Y-85258331D01*
X185218633Y-85258331D02*
X184951966Y-85258331D01*
X184951966Y-85258331D02*
X184885300Y-85224998D01*
X184885300Y-85224998D02*
X184851966Y-85191664D01*
X184851966Y-85191664D02*
X184818633Y-85124998D01*
X184818633Y-85124998D02*
X184818633Y-84991664D01*
X184818633Y-84991664D02*
X184851966Y-84924998D01*
X184851966Y-84924998D02*
X184885300Y-84891664D01*
X184885300Y-84891664D02*
X184951966Y-84858331D01*
X184951966Y-84858331D02*
X185118633Y-84858331D01*
X185118633Y-84858331D02*
X185185300Y-84891664D01*
X185185300Y-84891664D02*
X185218633Y-84924998D01*
X185218633Y-84924998D02*
X185251966Y-84991664D01*
X185251966Y-84991664D02*
X185251966Y-85124998D01*
X185251966Y-85124998D02*
X185218633Y-85191664D01*
X185218633Y-85191664D02*
X185185300Y-85224998D01*
X185185300Y-85224998D02*
X185118633Y-85258331D01*
D11*
X162954819Y-100357142D02*
X162478628Y-100023809D01*
X162954819Y-99785714D02*
X161954819Y-99785714D01*
X161954819Y-99785714D02*
X161954819Y-100166666D01*
X161954819Y-100166666D02*
X162002438Y-100261904D01*
X162002438Y-100261904D02*
X162050057Y-100309523D01*
X162050057Y-100309523D02*
X162145295Y-100357142D01*
X162145295Y-100357142D02*
X162288152Y-100357142D01*
X162288152Y-100357142D02*
X162383390Y-100309523D01*
X162383390Y-100309523D02*
X162431009Y-100261904D01*
X162431009Y-100261904D02*
X162478628Y-100166666D01*
X162478628Y-100166666D02*
X162478628Y-99785714D01*
X162288152Y-101214285D02*
X162954819Y-101214285D01*
X161907200Y-100976190D02*
X162621485Y-100738095D01*
X162621485Y-100738095D02*
X162621485Y-101357142D01*
X161954819Y-101642857D02*
X161954819Y-102309523D01*
X161954819Y-102309523D02*
X162954819Y-101880952D01*
X148842857Y-76909580D02*
X148890476Y-76957200D01*
X148890476Y-76957200D02*
X149033333Y-77004819D01*
X149033333Y-77004819D02*
X149128571Y-77004819D01*
X149128571Y-77004819D02*
X149271428Y-76957200D01*
X149271428Y-76957200D02*
X149366666Y-76861961D01*
X149366666Y-76861961D02*
X149414285Y-76766723D01*
X149414285Y-76766723D02*
X149461904Y-76576247D01*
X149461904Y-76576247D02*
X149461904Y-76433390D01*
X149461904Y-76433390D02*
X149414285Y-76242914D01*
X149414285Y-76242914D02*
X149366666Y-76147676D01*
X149366666Y-76147676D02*
X149271428Y-76052438D01*
X149271428Y-76052438D02*
X149128571Y-76004819D01*
X149128571Y-76004819D02*
X149033333Y-76004819D01*
X149033333Y-76004819D02*
X148890476Y-76052438D01*
X148890476Y-76052438D02*
X148842857Y-76100057D01*
X147938095Y-76004819D02*
X148414285Y-76004819D01*
X148414285Y-76004819D02*
X148461904Y-76481009D01*
X148461904Y-76481009D02*
X148414285Y-76433390D01*
X148414285Y-76433390D02*
X148319047Y-76385771D01*
X148319047Y-76385771D02*
X148080952Y-76385771D01*
X148080952Y-76385771D02*
X147985714Y-76433390D01*
X147985714Y-76433390D02*
X147938095Y-76481009D01*
X147938095Y-76481009D02*
X147890476Y-76576247D01*
X147890476Y-76576247D02*
X147890476Y-76814342D01*
X147890476Y-76814342D02*
X147938095Y-76909580D01*
X147938095Y-76909580D02*
X147985714Y-76957200D01*
X147985714Y-76957200D02*
X148080952Y-77004819D01*
X148080952Y-77004819D02*
X148319047Y-77004819D01*
X148319047Y-77004819D02*
X148414285Y-76957200D01*
X148414285Y-76957200D02*
X148461904Y-76909580D01*
X147033333Y-76004819D02*
X147223809Y-76004819D01*
X147223809Y-76004819D02*
X147319047Y-76052438D01*
X147319047Y-76052438D02*
X147366666Y-76100057D01*
X147366666Y-76100057D02*
X147461904Y-76242914D01*
X147461904Y-76242914D02*
X147509523Y-76433390D01*
X147509523Y-76433390D02*
X147509523Y-76814342D01*
X147509523Y-76814342D02*
X147461904Y-76909580D01*
X147461904Y-76909580D02*
X147414285Y-76957200D01*
X147414285Y-76957200D02*
X147319047Y-77004819D01*
X147319047Y-77004819D02*
X147128571Y-77004819D01*
X147128571Y-77004819D02*
X147033333Y-76957200D01*
X147033333Y-76957200D02*
X146985714Y-76909580D01*
X146985714Y-76909580D02*
X146938095Y-76814342D01*
X146938095Y-76814342D02*
X146938095Y-76576247D01*
X146938095Y-76576247D02*
X146985714Y-76481009D01*
X146985714Y-76481009D02*
X147033333Y-76433390D01*
X147033333Y-76433390D02*
X147128571Y-76385771D01*
X147128571Y-76385771D02*
X147319047Y-76385771D01*
X147319047Y-76385771D02*
X147414285Y-76433390D01*
X147414285Y-76433390D02*
X147461904Y-76481009D01*
X147461904Y-76481009D02*
X147509523Y-76576247D01*
X177492857Y-98814580D02*
X177540476Y-98862200D01*
X177540476Y-98862200D02*
X177683333Y-98909819D01*
X177683333Y-98909819D02*
X177778571Y-98909819D01*
X177778571Y-98909819D02*
X177921428Y-98862200D01*
X177921428Y-98862200D02*
X178016666Y-98766961D01*
X178016666Y-98766961D02*
X178064285Y-98671723D01*
X178064285Y-98671723D02*
X178111904Y-98481247D01*
X178111904Y-98481247D02*
X178111904Y-98338390D01*
X178111904Y-98338390D02*
X178064285Y-98147914D01*
X178064285Y-98147914D02*
X178016666Y-98052676D01*
X178016666Y-98052676D02*
X177921428Y-97957438D01*
X177921428Y-97957438D02*
X177778571Y-97909819D01*
X177778571Y-97909819D02*
X177683333Y-97909819D01*
X177683333Y-97909819D02*
X177540476Y-97957438D01*
X177540476Y-97957438D02*
X177492857Y-98005057D01*
X176635714Y-97909819D02*
X176826190Y-97909819D01*
X176826190Y-97909819D02*
X176921428Y-97957438D01*
X176921428Y-97957438D02*
X176969047Y-98005057D01*
X176969047Y-98005057D02*
X177064285Y-98147914D01*
X177064285Y-98147914D02*
X177111904Y-98338390D01*
X177111904Y-98338390D02*
X177111904Y-98719342D01*
X177111904Y-98719342D02*
X177064285Y-98814580D01*
X177064285Y-98814580D02*
X177016666Y-98862200D01*
X177016666Y-98862200D02*
X176921428Y-98909819D01*
X176921428Y-98909819D02*
X176730952Y-98909819D01*
X176730952Y-98909819D02*
X176635714Y-98862200D01*
X176635714Y-98862200D02*
X176588095Y-98814580D01*
X176588095Y-98814580D02*
X176540476Y-98719342D01*
X176540476Y-98719342D02*
X176540476Y-98481247D01*
X176540476Y-98481247D02*
X176588095Y-98386009D01*
X176588095Y-98386009D02*
X176635714Y-98338390D01*
X176635714Y-98338390D02*
X176730952Y-98290771D01*
X176730952Y-98290771D02*
X176921428Y-98290771D01*
X176921428Y-98290771D02*
X177016666Y-98338390D01*
X177016666Y-98338390D02*
X177064285Y-98386009D01*
X177064285Y-98386009D02*
X177111904Y-98481247D01*
X175588095Y-98909819D02*
X176159523Y-98909819D01*
X175873809Y-98909819D02*
X175873809Y-97909819D01*
X175873809Y-97909819D02*
X175969047Y-98052676D01*
X175969047Y-98052676D02*
X176064285Y-98147914D01*
X176064285Y-98147914D02*
X176159523Y-98195533D01*
X135254819Y-93307142D02*
X134778628Y-92973809D01*
X135254819Y-92735714D02*
X134254819Y-92735714D01*
X134254819Y-92735714D02*
X134254819Y-93116666D01*
X134254819Y-93116666D02*
X134302438Y-93211904D01*
X134302438Y-93211904D02*
X134350057Y-93259523D01*
X134350057Y-93259523D02*
X134445295Y-93307142D01*
X134445295Y-93307142D02*
X134588152Y-93307142D01*
X134588152Y-93307142D02*
X134683390Y-93259523D01*
X134683390Y-93259523D02*
X134731009Y-93211904D01*
X134731009Y-93211904D02*
X134778628Y-93116666D01*
X134778628Y-93116666D02*
X134778628Y-92735714D01*
X134254819Y-94211904D02*
X134254819Y-93735714D01*
X134254819Y-93735714D02*
X134731009Y-93688095D01*
X134731009Y-93688095D02*
X134683390Y-93735714D01*
X134683390Y-93735714D02*
X134635771Y-93830952D01*
X134635771Y-93830952D02*
X134635771Y-94069047D01*
X134635771Y-94069047D02*
X134683390Y-94164285D01*
X134683390Y-94164285D02*
X134731009Y-94211904D01*
X134731009Y-94211904D02*
X134826247Y-94259523D01*
X134826247Y-94259523D02*
X135064342Y-94259523D01*
X135064342Y-94259523D02*
X135159580Y-94211904D01*
X135159580Y-94211904D02*
X135207200Y-94164285D01*
X135207200Y-94164285D02*
X135254819Y-94069047D01*
X135254819Y-94069047D02*
X135254819Y-93830952D01*
X135254819Y-93830952D02*
X135207200Y-93735714D01*
X135207200Y-93735714D02*
X135159580Y-93688095D01*
X135254819Y-95211904D02*
X135254819Y-94640476D01*
X135254819Y-94926190D02*
X134254819Y-94926190D01*
X134254819Y-94926190D02*
X134397676Y-94830952D01*
X134397676Y-94830952D02*
X134492914Y-94735714D01*
X134492914Y-94735714D02*
X134540533Y-94640476D01*
X141829819Y-86715595D02*
X142639342Y-86715595D01*
X142639342Y-86715595D02*
X142734580Y-86763214D01*
X142734580Y-86763214D02*
X142782200Y-86810833D01*
X142782200Y-86810833D02*
X142829819Y-86906071D01*
X142829819Y-86906071D02*
X142829819Y-87096547D01*
X142829819Y-87096547D02*
X142782200Y-87191785D01*
X142782200Y-87191785D02*
X142734580Y-87239404D01*
X142734580Y-87239404D02*
X142639342Y-87287023D01*
X142639342Y-87287023D02*
X141829819Y-87287023D01*
X141829819Y-87667976D02*
X141829819Y-88334642D01*
X141829819Y-88334642D02*
X142829819Y-87906071D01*
X162954819Y-105157142D02*
X162478628Y-104823809D01*
X162954819Y-104585714D02*
X161954819Y-104585714D01*
X161954819Y-104585714D02*
X161954819Y-104966666D01*
X161954819Y-104966666D02*
X162002438Y-105061904D01*
X162002438Y-105061904D02*
X162050057Y-105109523D01*
X162050057Y-105109523D02*
X162145295Y-105157142D01*
X162145295Y-105157142D02*
X162288152Y-105157142D01*
X162288152Y-105157142D02*
X162383390Y-105109523D01*
X162383390Y-105109523D02*
X162431009Y-105061904D01*
X162431009Y-105061904D02*
X162478628Y-104966666D01*
X162478628Y-104966666D02*
X162478628Y-104585714D01*
X162288152Y-106014285D02*
X162954819Y-106014285D01*
X161907200Y-105776190D02*
X162621485Y-105538095D01*
X162621485Y-105538095D02*
X162621485Y-106157142D01*
X161954819Y-106966666D02*
X161954819Y-106776190D01*
X161954819Y-106776190D02*
X162002438Y-106680952D01*
X162002438Y-106680952D02*
X162050057Y-106633333D01*
X162050057Y-106633333D02*
X162192914Y-106538095D01*
X162192914Y-106538095D02*
X162383390Y-106490476D01*
X162383390Y-106490476D02*
X162764342Y-106490476D01*
X162764342Y-106490476D02*
X162859580Y-106538095D01*
X162859580Y-106538095D02*
X162907200Y-106585714D01*
X162907200Y-106585714D02*
X162954819Y-106680952D01*
X162954819Y-106680952D02*
X162954819Y-106871428D01*
X162954819Y-106871428D02*
X162907200Y-106966666D01*
X162907200Y-106966666D02*
X162859580Y-107014285D01*
X162859580Y-107014285D02*
X162764342Y-107061904D01*
X162764342Y-107061904D02*
X162526247Y-107061904D01*
X162526247Y-107061904D02*
X162431009Y-107014285D01*
X162431009Y-107014285D02*
X162383390Y-106966666D01*
X162383390Y-106966666D02*
X162335771Y-106871428D01*
X162335771Y-106871428D02*
X162335771Y-106680952D01*
X162335771Y-106680952D02*
X162383390Y-106585714D01*
X162383390Y-106585714D02*
X162431009Y-106538095D01*
X162431009Y-106538095D02*
X162526247Y-106490476D01*
X164717857Y-91704819D02*
X165051190Y-91228628D01*
X165289285Y-91704819D02*
X165289285Y-90704819D01*
X165289285Y-90704819D02*
X164908333Y-90704819D01*
X164908333Y-90704819D02*
X164813095Y-90752438D01*
X164813095Y-90752438D02*
X164765476Y-90800057D01*
X164765476Y-90800057D02*
X164717857Y-90895295D01*
X164717857Y-90895295D02*
X164717857Y-91038152D01*
X164717857Y-91038152D02*
X164765476Y-91133390D01*
X164765476Y-91133390D02*
X164813095Y-91181009D01*
X164813095Y-91181009D02*
X164908333Y-91228628D01*
X164908333Y-91228628D02*
X165289285Y-91228628D01*
X164384523Y-90704819D02*
X163765476Y-90704819D01*
X163765476Y-90704819D02*
X164098809Y-91085771D01*
X164098809Y-91085771D02*
X163955952Y-91085771D01*
X163955952Y-91085771D02*
X163860714Y-91133390D01*
X163860714Y-91133390D02*
X163813095Y-91181009D01*
X163813095Y-91181009D02*
X163765476Y-91276247D01*
X163765476Y-91276247D02*
X163765476Y-91514342D01*
X163765476Y-91514342D02*
X163813095Y-91609580D01*
X163813095Y-91609580D02*
X163860714Y-91657200D01*
X163860714Y-91657200D02*
X163955952Y-91704819D01*
X163955952Y-91704819D02*
X164241666Y-91704819D01*
X164241666Y-91704819D02*
X164336904Y-91657200D01*
X164336904Y-91657200D02*
X164384523Y-91609580D01*
X163432142Y-90704819D02*
X162813095Y-90704819D01*
X162813095Y-90704819D02*
X163146428Y-91085771D01*
X163146428Y-91085771D02*
X163003571Y-91085771D01*
X163003571Y-91085771D02*
X162908333Y-91133390D01*
X162908333Y-91133390D02*
X162860714Y-91181009D01*
X162860714Y-91181009D02*
X162813095Y-91276247D01*
X162813095Y-91276247D02*
X162813095Y-91514342D01*
X162813095Y-91514342D02*
X162860714Y-91609580D01*
X162860714Y-91609580D02*
X162908333Y-91657200D01*
X162908333Y-91657200D02*
X163003571Y-91704819D01*
X163003571Y-91704819D02*
X163289285Y-91704819D01*
X163289285Y-91704819D02*
X163384523Y-91657200D01*
X163384523Y-91657200D02*
X163432142Y-91609580D01*
X113129819Y-84357142D02*
X112653628Y-84023809D01*
X113129819Y-83785714D02*
X112129819Y-83785714D01*
X112129819Y-83785714D02*
X112129819Y-84166666D01*
X112129819Y-84166666D02*
X112177438Y-84261904D01*
X112177438Y-84261904D02*
X112225057Y-84309523D01*
X112225057Y-84309523D02*
X112320295Y-84357142D01*
X112320295Y-84357142D02*
X112463152Y-84357142D01*
X112463152Y-84357142D02*
X112558390Y-84309523D01*
X112558390Y-84309523D02*
X112606009Y-84261904D01*
X112606009Y-84261904D02*
X112653628Y-84166666D01*
X112653628Y-84166666D02*
X112653628Y-83785714D01*
X112463152Y-85214285D02*
X113129819Y-85214285D01*
X112082200Y-84976190D02*
X112796485Y-84738095D01*
X112796485Y-84738095D02*
X112796485Y-85357142D01*
X113129819Y-86261904D02*
X113129819Y-85690476D01*
X113129819Y-85976190D02*
X112129819Y-85976190D01*
X112129819Y-85976190D02*
X112272676Y-85880952D01*
X112272676Y-85880952D02*
X112367914Y-85785714D01*
X112367914Y-85785714D02*
X112415533Y-85690476D01*
X131024819Y-82769642D02*
X130548628Y-82436309D01*
X131024819Y-82198214D02*
X130024819Y-82198214D01*
X130024819Y-82198214D02*
X130024819Y-82579166D01*
X130024819Y-82579166D02*
X130072438Y-82674404D01*
X130072438Y-82674404D02*
X130120057Y-82722023D01*
X130120057Y-82722023D02*
X130215295Y-82769642D01*
X130215295Y-82769642D02*
X130358152Y-82769642D01*
X130358152Y-82769642D02*
X130453390Y-82722023D01*
X130453390Y-82722023D02*
X130501009Y-82674404D01*
X130501009Y-82674404D02*
X130548628Y-82579166D01*
X130548628Y-82579166D02*
X130548628Y-82198214D01*
X130024819Y-83674404D02*
X130024819Y-83198214D01*
X130024819Y-83198214D02*
X130501009Y-83150595D01*
X130501009Y-83150595D02*
X130453390Y-83198214D01*
X130453390Y-83198214D02*
X130405771Y-83293452D01*
X130405771Y-83293452D02*
X130405771Y-83531547D01*
X130405771Y-83531547D02*
X130453390Y-83626785D01*
X130453390Y-83626785D02*
X130501009Y-83674404D01*
X130501009Y-83674404D02*
X130596247Y-83722023D01*
X130596247Y-83722023D02*
X130834342Y-83722023D01*
X130834342Y-83722023D02*
X130929580Y-83674404D01*
X130929580Y-83674404D02*
X130977200Y-83626785D01*
X130977200Y-83626785D02*
X131024819Y-83531547D01*
X131024819Y-83531547D02*
X131024819Y-83293452D01*
X131024819Y-83293452D02*
X130977200Y-83198214D01*
X130977200Y-83198214D02*
X130929580Y-83150595D01*
X130024819Y-84341071D02*
X130024819Y-84436309D01*
X130024819Y-84436309D02*
X130072438Y-84531547D01*
X130072438Y-84531547D02*
X130120057Y-84579166D01*
X130120057Y-84579166D02*
X130215295Y-84626785D01*
X130215295Y-84626785D02*
X130405771Y-84674404D01*
X130405771Y-84674404D02*
X130643866Y-84674404D01*
X130643866Y-84674404D02*
X130834342Y-84626785D01*
X130834342Y-84626785D02*
X130929580Y-84579166D01*
X130929580Y-84579166D02*
X130977200Y-84531547D01*
X130977200Y-84531547D02*
X131024819Y-84436309D01*
X131024819Y-84436309D02*
X131024819Y-84341071D01*
X131024819Y-84341071D02*
X130977200Y-84245833D01*
X130977200Y-84245833D02*
X130929580Y-84198214D01*
X130929580Y-84198214D02*
X130834342Y-84150595D01*
X130834342Y-84150595D02*
X130643866Y-84102976D01*
X130643866Y-84102976D02*
X130405771Y-84102976D01*
X130405771Y-84102976D02*
X130215295Y-84150595D01*
X130215295Y-84150595D02*
X130120057Y-84198214D01*
X130120057Y-84198214D02*
X130072438Y-84245833D01*
X130072438Y-84245833D02*
X130024819Y-84341071D01*
X125717857Y-110529580D02*
X125765476Y-110577200D01*
X125765476Y-110577200D02*
X125908333Y-110624819D01*
X125908333Y-110624819D02*
X126003571Y-110624819D01*
X126003571Y-110624819D02*
X126146428Y-110577200D01*
X126146428Y-110577200D02*
X126241666Y-110481961D01*
X126241666Y-110481961D02*
X126289285Y-110386723D01*
X126289285Y-110386723D02*
X126336904Y-110196247D01*
X126336904Y-110196247D02*
X126336904Y-110053390D01*
X126336904Y-110053390D02*
X126289285Y-109862914D01*
X126289285Y-109862914D02*
X126241666Y-109767676D01*
X126241666Y-109767676D02*
X126146428Y-109672438D01*
X126146428Y-109672438D02*
X126003571Y-109624819D01*
X126003571Y-109624819D02*
X125908333Y-109624819D01*
X125908333Y-109624819D02*
X125765476Y-109672438D01*
X125765476Y-109672438D02*
X125717857Y-109720057D01*
X125384523Y-109624819D02*
X124765476Y-109624819D01*
X124765476Y-109624819D02*
X125098809Y-110005771D01*
X125098809Y-110005771D02*
X124955952Y-110005771D01*
X124955952Y-110005771D02*
X124860714Y-110053390D01*
X124860714Y-110053390D02*
X124813095Y-110101009D01*
X124813095Y-110101009D02*
X124765476Y-110196247D01*
X124765476Y-110196247D02*
X124765476Y-110434342D01*
X124765476Y-110434342D02*
X124813095Y-110529580D01*
X124813095Y-110529580D02*
X124860714Y-110577200D01*
X124860714Y-110577200D02*
X124955952Y-110624819D01*
X124955952Y-110624819D02*
X125241666Y-110624819D01*
X125241666Y-110624819D02*
X125336904Y-110577200D01*
X125336904Y-110577200D02*
X125384523Y-110529580D01*
X123908333Y-109624819D02*
X124098809Y-109624819D01*
X124098809Y-109624819D02*
X124194047Y-109672438D01*
X124194047Y-109672438D02*
X124241666Y-109720057D01*
X124241666Y-109720057D02*
X124336904Y-109862914D01*
X124336904Y-109862914D02*
X124384523Y-110053390D01*
X124384523Y-110053390D02*
X124384523Y-110434342D01*
X124384523Y-110434342D02*
X124336904Y-110529580D01*
X124336904Y-110529580D02*
X124289285Y-110577200D01*
X124289285Y-110577200D02*
X124194047Y-110624819D01*
X124194047Y-110624819D02*
X124003571Y-110624819D01*
X124003571Y-110624819D02*
X123908333Y-110577200D01*
X123908333Y-110577200D02*
X123860714Y-110529580D01*
X123860714Y-110529580D02*
X123813095Y-110434342D01*
X123813095Y-110434342D02*
X123813095Y-110196247D01*
X123813095Y-110196247D02*
X123860714Y-110101009D01*
X123860714Y-110101009D02*
X123908333Y-110053390D01*
X123908333Y-110053390D02*
X124003571Y-110005771D01*
X124003571Y-110005771D02*
X124194047Y-110005771D01*
X124194047Y-110005771D02*
X124289285Y-110053390D01*
X124289285Y-110053390D02*
X124336904Y-110101009D01*
X124336904Y-110101009D02*
X124384523Y-110196247D01*
D13*
%TO.C,R42*%
X111487258Y-97477500D02*
X111012742Y-97477500D01*
X111487258Y-98522500D02*
X111012742Y-98522500D01*
%TO.C,C9*%
X166678733Y-89240000D02*
X166971267Y-89240000D01*
X166678733Y-90260000D02*
X166971267Y-90260000D01*
%TO.C,C34*%
X112065000Y-100896267D02*
X112065000Y-100603733D01*
X113085000Y-100896267D02*
X113085000Y-100603733D01*
%TO.C,R45*%
X110837742Y-91727500D02*
X111312258Y-91727500D01*
X110837742Y-92772500D02*
X111312258Y-92772500D01*
%TO.C,R44*%
X126962742Y-97077500D02*
X127437258Y-97077500D01*
X126962742Y-98122500D02*
X127437258Y-98122500D01*
%TO.C,R6*%
X120462742Y-105977500D02*
X120937258Y-105977500D01*
X120462742Y-107022500D02*
X120937258Y-107022500D01*
%TO.C,U5*%
X140845000Y-76025000D02*
X134425000Y-76025001D01*
X140845000Y-76295000D02*
X140845000Y-76025000D01*
X140845000Y-82655000D02*
X140845000Y-82925000D01*
X140845000Y-82925000D02*
X134425000Y-82924999D01*
X142265000Y-76335000D02*
X142025000Y-76005000D01*
X142505000Y-76005000D01*
X142265000Y-76335000D01*
G36*
X142265000Y-76335000D02*
G01*
X142025000Y-76005000D01*
X142505000Y-76005000D01*
X142265000Y-76335000D01*
G37*
%TO.C,C33*%
X125565000Y-117546267D02*
X125565000Y-117253733D01*
X126585000Y-117546267D02*
X126585000Y-117253733D01*
%TO.C,C52*%
X154178733Y-80490000D02*
X154471267Y-80490000D01*
X154178733Y-81510000D02*
X154471267Y-81510000D01*
%TO.C,R52*%
X125187742Y-102077500D02*
X125662258Y-102077500D01*
X125187742Y-103122500D02*
X125662258Y-103122500D01*
%TO.C,C42*%
X112815000Y-91103733D02*
X112815000Y-91396267D01*
X113835000Y-91103733D02*
X113835000Y-91396267D01*
%TO.C,C14*%
X171738733Y-90740000D02*
X172031267Y-90740000D01*
X171738733Y-91760000D02*
X172031267Y-91760000D01*
%TO.C,C24*%
X165496267Y-78990000D02*
X165203733Y-78990000D01*
X165496267Y-80010000D02*
X165203733Y-80010000D01*
%TO.C,C11*%
X184365000Y-96546267D02*
X184365000Y-96253733D01*
X185385000Y-96546267D02*
X185385000Y-96253733D01*
%TO.C,R34*%
X172139724Y-88977500D02*
X171630276Y-88977500D01*
X172139724Y-90022500D02*
X171630276Y-90022500D01*
%TO.C,C53*%
X181090000Y-94751267D02*
X181090000Y-94458733D01*
X182110000Y-94751267D02*
X182110000Y-94458733D01*
%TO.C,C6*%
X168690000Y-102253733D02*
X168690000Y-102546267D01*
X169710000Y-102253733D02*
X169710000Y-102546267D01*
%TO.C,C22*%
X166790000Y-84353733D02*
X166790000Y-84646267D01*
X167810000Y-84353733D02*
X167810000Y-84646267D01*
%TO.C,R49*%
X122277500Y-103562742D02*
X122277500Y-104037258D01*
X123322500Y-103562742D02*
X123322500Y-104037258D01*
%TO.C,R8*%
X112802500Y-94737258D02*
X112802500Y-94262742D01*
X113847500Y-94737258D02*
X113847500Y-94262742D01*
%TO.C,C25*%
X119440000Y-103853733D02*
X119440000Y-104146267D01*
X120460000Y-103853733D02*
X120460000Y-104146267D01*
%TO.C,C49*%
X177846267Y-88990000D02*
X177553733Y-88990000D01*
X177846267Y-90010000D02*
X177553733Y-90010000D01*
%TO.C,C46*%
X181053733Y-87052497D02*
X181346267Y-87052497D01*
X181053733Y-88072497D02*
X181346267Y-88072497D01*
%TO.C,R54*%
X175302501Y-78687742D02*
X175302501Y-79162258D01*
X176347501Y-78687742D02*
X176347501Y-79162258D01*
%TO.C,C41*%
X181053733Y-85490000D02*
X181346267Y-85490000D01*
X181053733Y-86510000D02*
X181346267Y-86510000D01*
%TO.C,C37*%
X183190000Y-87146267D02*
X183190000Y-86853733D01*
X184210000Y-87146267D02*
X184210000Y-86853733D01*
%TO.C,C12*%
X182790000Y-96546267D02*
X182790000Y-96253733D01*
X183810000Y-96546267D02*
X183810000Y-96253733D01*
%TO.C,U4*%
X127560000Y-99690000D02*
X127560000Y-100590000D01*
X130245000Y-99690000D02*
X127560000Y-99690000D01*
X145780000Y-99690000D02*
X143095000Y-99690000D01*
X145780000Y-99690000D02*
X145780000Y-100590000D01*
X145780000Y-118520000D02*
X145780000Y-119110000D01*
X145780000Y-119110000D02*
X127870000Y-119110000D01*
X127560000Y-119050000D02*
X127060000Y-118550000D01*
X127560000Y-118550000D01*
X127560000Y-119050000D01*
G36*
X127560000Y-119050000D02*
G01*
X127060000Y-118550000D01*
X127560000Y-118550000D01*
X127560000Y-119050000D01*
G37*
%TO.C,R9*%
X167177500Y-104404724D02*
X167177500Y-103895276D01*
X168222500Y-104404724D02*
X168222500Y-103895276D01*
%TO.C,C63*%
X139653733Y-96290000D02*
X139946267Y-96290000D01*
X139653733Y-97310000D02*
X139946267Y-97310000D01*
%TO.C,C55*%
X179090000Y-94751267D02*
X179090000Y-94458733D01*
X180110000Y-94751267D02*
X180110000Y-94458733D01*
%TO.C,C57*%
X144440000Y-87288748D02*
X144440000Y-88711252D01*
X147160000Y-87288748D02*
X147160000Y-88711252D01*
%TO.C,C39*%
X184690000Y-87146267D02*
X184690000Y-86853733D01*
X185710000Y-87146267D02*
X185710000Y-86853733D01*
%TO.C,R47*%
X163277500Y-101312258D02*
X163277500Y-100837742D01*
X164322500Y-101312258D02*
X164322500Y-100837742D01*
%TO.C,C56*%
X146840000Y-79088748D02*
X146840000Y-80511252D01*
X149560000Y-79088748D02*
X149560000Y-80511252D01*
%TO.C,C61*%
X177603733Y-96645000D02*
X177896267Y-96645000D01*
X177603733Y-97665000D02*
X177896267Y-97665000D01*
%TO.C,R51*%
X134277500Y-96937258D02*
X134277500Y-96462742D01*
X135322500Y-96937258D02*
X135322500Y-96462742D01*
%TO.C,U7*%
X140845000Y-83830000D02*
X134425000Y-83830001D01*
X140845000Y-84100000D02*
X140845000Y-83830000D01*
X140845000Y-90460000D02*
X140845000Y-90730000D01*
X140845000Y-90730000D02*
X134425000Y-90729999D01*
X142265000Y-84140000D02*
X142025000Y-83810000D01*
X142505000Y-83810000D01*
X142265000Y-84140000D01*
G36*
X142265000Y-84140000D02*
G01*
X142025000Y-83810000D01*
X142505000Y-83810000D01*
X142265000Y-84140000D01*
G37*
%TO.C,R46*%
X163277500Y-105562742D02*
X163277500Y-106037258D01*
X164322500Y-105562742D02*
X164322500Y-106037258D01*
%TO.C,R33*%
X166662742Y-90727500D02*
X167137258Y-90727500D01*
X166662742Y-91772500D02*
X167137258Y-91772500D01*
%TO.C,R41*%
X112152500Y-87987258D02*
X112152500Y-87512742D01*
X113197500Y-87987258D02*
X113197500Y-87512742D01*
%TO.C,R50*%
X131477500Y-83667224D02*
X131477500Y-83157776D01*
X132522500Y-83667224D02*
X132522500Y-83157776D01*
%TO.C,C36*%
X124928733Y-111090000D02*
X125221267Y-111090000D01*
X124928733Y-112110000D02*
X125221267Y-112110000D01*
%TD*%
M02*
