M48
; DRILL file {KiCad 8.0.2} date 2025-04-20T12:58:58+1200
; FORMAT={-:-/ absolute / inch / decimal}
; #@! TF.CreationDate,2025-04-20T12:58:58+12:00
; #@! TF.GenerationSoftware,Kicad,Pcbnew,8.0.2
; #@! TF.FileFunction,Plated,1,4,PTH
FMAT,2
INCH
; #@! TA.AperFunction,Plated,PTH,ViaDrill
T1C0.0118
; #@! TA.AperFunction,Plated,PTH,ComponentDrill
T2C0.0157
; #@! TA.AperFunction,Plated,PTH,ViaDrill
T3C0.0197
; #@! TA.AperFunction,Plated,PTH,ComponentDrill
T4C0.0295
; #@! TA.AperFunction,Plated,PTH,ComponentDrill
T5C0.0315
; #@! TA.AperFunction,Plated,PTH,ComponentDrill
T6C0.0354
; #@! TA.AperFunction,Plated,PTH,ComponentDrill
T7C0.0394
; #@! TA.AperFunction,Plated,PTH,ComponentDrill
T8C0.0591
; #@! TA.AperFunction,Plated,PTH,ComponentDrill
T9C0.0669
%
G90
G05
T1
X4.2323Y-4.0354
X4.3071Y-3.6319
X4.311Y-3.8583
X4.311Y-4.2126
X4.311Y-4.3898
X4.3307Y-3.1299
X4.3307Y-3.3268
X4.3406Y-3.6673
X4.3465Y-3.8976
X4.3898Y-4.0039
X4.3898Y-4.5276
X4.4252Y-3.689
X4.4331Y-4.0433
X4.436Y-3.3898
X4.4606Y-3.7913
X4.4685Y-3.1299
X4.4685Y-3.3268
X4.4724Y-4.0039
X4.4754Y-3.4252
X4.4961Y-4.0354
X4.5039Y-3.7559
X4.5079Y-4.311
X4.5276Y-4.4291
X4.5866Y-4.5276
X4.7008Y-4.0157
X4.7648Y-4.0591
X4.8189Y-4.1929
X4.8228Y-2.9921
X4.8228Y-3.7598
X4.872Y-4.0394
X4.8858Y-4.3563
X4.8976Y-4.252
X4.9055Y-4.0
X4.9409Y-3.8425
X4.9449Y-3.937
X4.9606Y-3.189
X4.9646Y-4.7165
X4.9724Y-3.6929
X4.9764Y-3.7992
X4.9764Y-3.8858
X5.0118Y-3.4724
X5.0118Y-3.7323
X5.0118Y-4.7087
X5.0197Y-3.3465
X5.0472Y-4.7205
X5.0945Y-3.7205
X5.0945Y-4.0394
X5.0945Y-4.3543
X5.1063Y-3.9567
X5.1142Y-4.7205
X5.1181Y-3.3465
X5.126Y-4.2047
X5.1575Y-3.9016
X5.1575Y-4.0945
X5.1575Y-4.311
X5.1575Y-4.6693
X5.1614Y-3.6772
X5.1772Y-2.9921
X5.1909Y-3.4646
X5.2028Y-4.5768
X5.2441Y-3.626
X5.2441Y-3.6772
X5.2665Y-4.3118
X5.2665Y-4.3669
X5.2677Y-3.8386
X5.2992Y-3.189
X5.3027Y-3.5
X5.3031Y-3.7205
X5.3091Y-4.6142
X5.3217Y-4.3118
X5.3217Y-4.3669
X5.3425Y-4.5768
X5.3652Y-3.4362
X5.3661Y-3.626
X5.3661Y-3.6772
X5.3661Y-4.5079
X5.3701Y-4.1575
X5.3701Y-4.248
X5.374Y-4.6457
X5.374Y-4.7047
X5.3844Y-3.0512
X5.3898Y-3.8543
X5.4055Y-3.8189
X5.4094Y-3.5945
X5.4134Y-4.2047
X5.4311Y-3.0689
X5.4311Y-3.189
X5.4311Y-3.4963
X5.4528Y-3.7756
X5.4646Y-3.2835
X5.4724Y-4.0945
X5.5039Y-3.2835
X5.5079Y-2.9764
X5.5394Y-3.3819
X5.5512Y-3.0394
X5.5531Y-4.4449
X5.5551Y-3.3465
X5.5827Y-3.4291
X5.5906Y-4.5472
X5.6102Y-4.3307
X5.6142Y-2.9961
X5.6142Y-3.0827
X5.6142Y-3.1732
X5.6142Y-3.3071
X5.6142Y-3.3898
X5.6654Y-4.5472
X5.6693Y-3.2187
X5.6772Y-4.2913
X5.6772Y-4.6575
X5.7126Y-3.3346
X5.7244Y-4.6929
X5.7382Y-3.4744
X5.7638Y-3.3346
X5.7677Y-3.2032
X5.7756Y-4.6535
X5.7776Y-4.4429
X5.7795Y-4.5906
X5.7992Y-3.0315
X5.8031Y-4.0335
X5.8071Y-4.7047
X5.8346Y-3.2559
X5.8413Y-4.2717
X5.8504Y-3.0315
X5.876Y-3.3465
X5.9134Y-3.878
X5.9232Y-4.0335
X5.9252Y-3.2776
X5.9252Y-3.4154
X5.9449Y-3.8898
X5.9488Y-4.1142
X5.9547Y-4.376
X5.9646Y-3.6024
X6.0Y-3.189
X6.0Y-4.4193
X6.0039Y-3.248
X6.0039Y-3.3465
X6.0256Y-3.7953
X6.0433Y-3.2283
X6.0433Y-4.7047
X6.0571Y-4.4193
X6.063Y-3.8327
X6.0945Y-4.3583
X6.0984Y-4.1063
X6.1024Y-3.248
X6.1024Y-3.4449
X6.1299Y-4.6181
X6.1693Y-4.5748
X6.2047Y-4.1063
X6.2047Y-4.3071
X6.2047Y-4.3583
X6.2756Y-3.0906
X6.2795Y-4.7047
X6.3031Y-4.1063
X6.3228Y-3.0394
X6.3228Y-3.1417
X6.3287Y-4.5748
X6.3484Y-3.6969
X6.3661Y-4.6181
X6.378Y-3.6024
X6.3819Y-3.0394
X6.3819Y-3.1417
X6.3937Y-3.7598
X6.3937Y-3.8583
X6.4094Y-4.1063
X6.4252Y-3.0906
X6.437Y-4.4134
X6.4488Y-3.9094
X6.4685Y-3.6693
X6.4724Y-3.4764
X6.4882Y-4.0118
X6.4882Y-4.1969
X6.4882Y-4.6181
X6.4902Y-4.1319
X6.4921Y-3.5354
X6.4961Y-3.0512
X6.4961Y-3.9173
X6.4961Y-4.5079
X6.4961Y-4.7047
X6.5Y-3.5945
X6.5079Y-3.4173
X6.5079Y-4.4094
X6.5443Y-3.0846
X6.5443Y-3.1752
X6.5866Y-3.4134
X6.5915Y-3.1319
X6.5945Y-3.0512
X6.6024Y-4.062
X6.6102Y-3.8504
X6.6142Y-3.7677
X6.6379Y-3.5922
X6.6457Y-3.5276
X6.6496Y-4.1339
X6.6614Y-3.5591
X6.6614Y-4.0709
X6.6614Y-4.3976
X6.6772Y-3.7677
X6.6811Y-3.8504
X6.6819Y-3.5236
X6.685Y-3.6181
X6.6929Y-3.0512
X6.6929Y-3.3465
X6.6929Y-4.5079
X6.6929Y-4.7047
X6.7087Y-3.7283
X6.7165Y-4.0118
X6.7205Y-4.2087
X6.7402Y-3.7677
X6.7402Y-4.3976
X6.7598Y-3.4134
X6.7913Y-3.0512
X6.7913Y-3.248
X6.7913Y-3.3465
X6.8071Y-3.4134
X6.8386Y-3.6299
X6.874Y-3.5512
X6.8898Y-3.248
X6.8898Y-3.3465
X6.8898Y-3.4449
X6.9173Y-3.5236
X6.9213Y-3.5945
X6.9252Y-3.0354
X6.9429Y-3.6951
X6.9469Y-3.6586
X6.9488Y-3.9134
X6.9488Y-4.4291
X6.9488Y-4.6654
X6.9606Y-3.4803
X6.9606Y-3.5669
X6.9665Y-3.7778
X6.9665Y-3.8722
X6.9685Y-3.0748
X6.9882Y-3.0512
X6.9882Y-3.248
X6.9882Y-3.3465
X6.9882Y-3.4449
X7.0276Y-4.7441
X7.0866Y-3.0512
X7.0866Y-3.248
X7.1654Y-3.2913
X7.185Y-3.0512
X7.185Y-3.248
X7.2165Y-3.5
X7.2717Y-3.5
X7.2835Y-3.0512
X7.2835Y-3.248
X7.2835Y-4.7441
X7.2972Y-3.6951
X7.3031Y-3.5236
T3
X4.748Y-4.5118
X4.7598Y-4.2559
X4.9016Y-4.5118
X4.9646Y-4.5433
X5.0906Y-4.5906
T4
X6.8435Y-3.0898
X6.8435Y-3.1398
X6.8435Y-3.1898
X7.0447Y-3.0898
X7.0447Y-3.1398
X7.0447Y-3.1898
X7.2431Y-3.0898
X7.2431Y-3.1398
X7.2431Y-3.1898
T5
X5.7165Y-3.0611
X5.7165Y-3.2107
T6
X6.261Y-3.3169
X6.361Y-3.3169
T7
X4.2638Y-4.6457
X4.3638Y-4.6457
X4.4291Y-4.2116
X4.4291Y-4.3116
X4.4291Y-4.4116
X4.4638Y-4.6457
X4.5638Y-4.6457
X4.6024Y-4.2116
X4.6024Y-4.4124
X4.6638Y-4.6457
X4.7638Y-4.6457
X4.7677Y-3.1378
X4.7677Y-3.2378
X4.7677Y-3.5423
X4.7677Y-3.6423
X4.7677Y-3.8583
X4.7677Y-3.9583
X5.0669Y-3.0886
X5.0669Y-3.1886
X5.0669Y-3.2886
X5.1506Y-3.8386
X5.4409Y-3.7106
X5.5409Y-3.7106
X5.6409Y-3.7106
X5.7409Y-3.7106
X5.9488Y-3.7835
X6.4762Y-3.2087
X6.6762Y-3.2087
X7.1132Y-3.623
X7.1132Y-3.823
X7.1142Y-3.3213
X7.1142Y-3.5213
T8
X5.9774Y-3.0866
X6.1742Y-3.0866
X7.1575Y-4.0846
X7.1575Y-4.3917
X7.1575Y-4.5886
T9
X7.0575Y-3.9846
X7.0575Y-4.1846
X7.2575Y-3.9846
X7.2575Y-4.1846
T2
G00X4.3622Y-3.2185
M15
G01X4.3622Y-3.2579
M16
G05
G00X4.3622Y-3.7303
M15
G01X4.3622Y-3.7697
M16
G05
G00X4.5787Y-3.0413
M15
G01X4.5394Y-3.0413
M16
G05
G00X4.5394Y-3.435
M15
G01X4.5787Y-3.435
M16
G05
G00X4.5787Y-3.5531
M15
G01X4.5394Y-3.5531
M16
G05
G00X4.5394Y-3.9469
M15
G01X4.5787Y-3.9469
M16
G05
T5
G00X4.5728Y-3.1398
M15
G01X4.5453Y-3.1398
M16
G05
G00X4.5453Y-3.3366
M15
G01X4.5728Y-3.3366
M16
G05
G00X4.5728Y-3.6516
M15
G01X4.5453Y-3.6516
M16
G05
G00X4.5453Y-3.8484
M15
G01X4.5728Y-3.8484
M16
G05
M30
