%TF.GenerationSoftware,KiCad,Pcbnew,7.0.7*%
%TF.CreationDate,2024-03-07T15:54:46+13:00*%
%TF.ProjectId,high_v_converter,68696768-5f76-45f6-936f-6e7665727465,rev?*%
%TF.SameCoordinates,Original*%
%TF.FileFunction,Paste,Top*%
%TF.FilePolarity,Positive*%
%FSLAX46Y46*%
G04 Gerber Fmt 4.6, Leading zero omitted, Abs format (unit mm)*
G04 Created by KiCad (PCBNEW 7.0.7) date 2024-03-07 15:54:46*
%MOMM*%
%LPD*%
G01*
G04 APERTURE LIST*
G04 Aperture macros list*
%AMRoundRect*
0 Rectangle with rounded corners*
0 $1 Rounding radius*
0 $2 $3 $4 $5 $6 $7 $8 $9 X,Y pos of 4 corners*
0 Add a 4 corners polygon primitive as box body*
4,1,4,$2,$3,$4,$5,$6,$7,$8,$9,$2,$3,0*
0 Add four circle primitives for the rounded corners*
1,1,$1+$1,$2,$3*
1,1,$1+$1,$4,$5*
1,1,$1+$1,$6,$7*
1,1,$1+$1,$8,$9*
0 Add four rect primitives between the rounded corners*
20,1,$1+$1,$2,$3,$4,$5,0*
20,1,$1+$1,$4,$5,$6,$7,0*
20,1,$1+$1,$6,$7,$8,$9,0*
20,1,$1+$1,$8,$9,$2,$3,0*%
G04 Aperture macros list end*
%ADD10R,2.000000X1.500000*%
%ADD11R,4.000000X1.500000*%
%ADD12R,1.500000X2.000000*%
%ADD13R,1.500000X4.000000*%
%ADD14RoundRect,0.237500X-0.300000X-0.237500X0.300000X-0.237500X0.300000X0.237500X-0.300000X0.237500X0*%
%ADD15RoundRect,0.237500X0.250000X0.237500X-0.250000X0.237500X-0.250000X-0.237500X0.250000X-0.237500X0*%
%ADD16RoundRect,0.250000X0.950000X0.500000X-0.950000X0.500000X-0.950000X-0.500000X0.950000X-0.500000X0*%
%ADD17RoundRect,0.250000X0.275000X0.500000X-0.275000X0.500000X-0.275000X-0.500000X0.275000X-0.500000X0*%
%ADD18RoundRect,0.237500X0.237500X-0.300000X0.237500X0.300000X-0.237500X0.300000X-0.237500X-0.300000X0*%
%ADD19RoundRect,0.237500X0.300000X0.237500X-0.300000X0.237500X-0.300000X-0.237500X0.300000X-0.237500X0*%
%ADD20R,2.900000X5.400000*%
%ADD21R,0.279400X1.527899*%
%ADD22RoundRect,0.237500X0.237500X-0.250000X0.237500X0.250000X-0.237500X0.250000X-0.237500X-0.250000X0*%
%ADD23RoundRect,0.150000X0.150000X-0.512500X0.150000X0.512500X-0.150000X0.512500X-0.150000X-0.512500X0*%
%ADD24R,3.300000X1.200000*%
G04 APERTURE END LIST*
%TO.C,U1*%
G36*
X145200002Y-108362949D02*
G01*
X143926802Y-108362949D01*
X143926802Y-106810349D01*
X145200002Y-106810349D01*
X145200002Y-108362949D01*
G37*
G36*
X146673202Y-108362949D02*
G01*
X145400002Y-108362949D01*
X145400002Y-106810349D01*
X146673202Y-106810349D01*
X146673202Y-108362949D01*
G37*
%TD*%
D10*
%TO.C,J3*%
X138100000Y-120900000D03*
D11*
X143750000Y-120900000D03*
D10*
X149400000Y-120900000D03*
D12*
X132000000Y-116200000D03*
X132000000Y-110550000D03*
X155500000Y-110350000D03*
D13*
X132000000Y-104900000D03*
X155500000Y-104700000D03*
D12*
X132000000Y-99250000D03*
X155500000Y-99050000D03*
X155500000Y-93400000D03*
D10*
X138100000Y-88900000D03*
D11*
X143750000Y-88900000D03*
D10*
X149400000Y-88900000D03*
%TD*%
D14*
%TO.C,C3*%
X148037500Y-101100000D03*
X149762500Y-101100000D03*
%TD*%
D15*
%TO.C,R11*%
X112550000Y-102125000D03*
X110725000Y-102125000D03*
%TD*%
D16*
%TO.C,D1*%
X138000000Y-105100000D03*
D17*
X140375000Y-105100000D03*
%TD*%
D18*
%TO.C,C10*%
X108800000Y-96662500D03*
X108800000Y-94937500D03*
%TD*%
D19*
%TO.C,C2*%
X145150000Y-113100000D03*
X143425000Y-113100000D03*
%TD*%
D20*
%TO.C,L2*%
X150950000Y-129700000D03*
X160850000Y-129700000D03*
%TD*%
D14*
%TO.C,C12*%
X138000000Y-109400000D03*
X139725000Y-109400000D03*
%TD*%
D15*
%TO.C,R10*%
X112725000Y-92625000D03*
X110900000Y-92625000D03*
%TD*%
D21*
%TO.C,U1*%
X143550000Y-109900000D03*
X144550001Y-109900000D03*
X145550002Y-109900000D03*
X146050000Y-109900000D03*
X146550002Y-109900000D03*
X147050001Y-109900000D03*
X147050004Y-105273298D03*
X146550002Y-105273298D03*
X146050003Y-105273298D03*
X145550002Y-105273298D03*
X144550004Y-105273298D03*
X143550003Y-105273298D03*
%TD*%
D14*
%TO.C,C4*%
X138000000Y-107300000D03*
X139725000Y-107300000D03*
%TD*%
D22*
%TO.C,R8*%
X114100000Y-111112500D03*
X114100000Y-109287500D03*
%TD*%
D23*
%TO.C,U2*%
X110637500Y-98062500D03*
X111587500Y-98062500D03*
X112537500Y-98062500D03*
X112537500Y-95787500D03*
X110637500Y-95787500D03*
%TD*%
D19*
%TO.C,C1*%
X149212500Y-117600000D03*
X147487500Y-117600000D03*
%TD*%
%TO.C,C11*%
X112675000Y-89125000D03*
X110950000Y-89125000D03*
%TD*%
D24*
%TO.C,L1*%
X142450000Y-99350000D03*
X142450000Y-102450000D03*
%TD*%
D15*
%TO.C,R9*%
X118112500Y-89700000D03*
X116287500Y-89700000D03*
%TD*%
D18*
%TO.C,C8*%
X107000000Y-96662500D03*
X107000000Y-94937500D03*
%TD*%
M02*
