%TF.GenerationSoftware,KiCad,Pcbnew,7.0.7*%
%TF.CreationDate,2024-03-07T15:54:46+13:00*%
%TF.ProjectId,high_v_converter,68696768-5f76-45f6-936f-6e7665727465,rev?*%
%TF.SameCoordinates,Original*%
%TF.FileFunction,Soldermask,Bot*%
%TF.FilePolarity,Negative*%
%FSLAX46Y46*%
G04 Gerber Fmt 4.6, Leading zero omitted, Abs format (unit mm)*
G04 Created by KiCad (PCBNEW 7.0.7) date 2024-03-07 15:54:46*
%MOMM*%
%LPD*%
G01*
G04 APERTURE LIST*
%ADD10R,2.200000X2.200000*%
%ADD11O,2.200000X2.200000*%
%ADD12C,1.600000*%
%ADD13O,1.600000X1.600000*%
%ADD14R,1.700000X1.700000*%
%ADD15O,1.700000X1.700000*%
%ADD16R,2.500000X2.500000*%
%ADD17C,2.010000*%
%ADD18R,4.000000X4.000000*%
%ADD19C,4.000000*%
%ADD20C,2.400000*%
%ADD21O,2.400000X2.400000*%
%ADD22R,1.600000X1.600000*%
%ADD23C,4.700000*%
%ADD24C,1.440000*%
G04 APERTURE END LIST*
D10*
%TO.C,D2*%
X110200000Y-118260000D03*
D11*
X110200000Y-108100000D03*
%TD*%
D12*
%TO.C,R12*%
X123500000Y-98920000D03*
D13*
X123500000Y-109080000D03*
%TD*%
D14*
%TO.C,J1*%
X108850000Y-126000000D03*
D15*
X108850000Y-128540000D03*
%TD*%
D12*
%TO.C,C9*%
X179440000Y-97360000D03*
X171940000Y-97360000D03*
%TD*%
%TO.C,C6*%
X140700000Y-86000000D03*
X145700000Y-86000000D03*
%TD*%
%TO.C,R15*%
X145110000Y-117100000D03*
D13*
X134950000Y-117100000D03*
%TD*%
D12*
%TO.C,R13*%
X127950000Y-99040000D03*
D13*
X127950000Y-109200000D03*
%TD*%
D16*
%TO.C,TP4*%
X147650000Y-97300000D03*
%TD*%
D17*
%TO.C,F1*%
X116350000Y-122700000D03*
X111250000Y-121500000D03*
%TD*%
D12*
%TO.C,R5*%
X163900000Y-94180000D03*
D13*
X163900000Y-84020000D03*
%TD*%
D12*
%TO.C,R14*%
X127950000Y-111640000D03*
D13*
X127950000Y-121800000D03*
%TD*%
D14*
%TO.C,J2*%
X182800000Y-95800000D03*
D15*
X182800000Y-93260000D03*
%TD*%
D12*
%TO.C,R1*%
X151850000Y-107400000D03*
D13*
X151850000Y-117560000D03*
%TD*%
D16*
%TO.C,TP10*%
X175700000Y-89800000D03*
%TD*%
D18*
%TO.C,C5*%
X175600000Y-125300000D03*
D19*
X175600000Y-115300000D03*
%TD*%
D16*
%TO.C,TP1*%
X145050000Y-124600000D03*
%TD*%
D20*
%TO.C,R7*%
X118100000Y-111720000D03*
D21*
X118100000Y-96480000D03*
%TD*%
D22*
%TO.C,C7*%
X126800000Y-89402651D03*
D12*
X126800000Y-85602651D03*
%TD*%
%TO.C,R4*%
X160900000Y-109080000D03*
D13*
X160900000Y-98920000D03*
%TD*%
D16*
%TO.C,TP2*%
X140350000Y-124600000D03*
%TD*%
D23*
%TO.C,H4*%
X108200000Y-135100000D03*
%TD*%
D24*
%TO.C,RV1*%
X166400000Y-101320000D03*
X166400000Y-103860000D03*
X166400000Y-106400000D03*
%TD*%
D16*
%TO.C,TP8*%
X116250000Y-126900000D03*
%TD*%
%TO.C,TP5*%
X160050000Y-94720000D03*
%TD*%
%TO.C,TP6*%
X122800000Y-114000000D03*
%TD*%
D12*
%TO.C,R3*%
X152150000Y-93200000D03*
D13*
X152150000Y-103360000D03*
%TD*%
D16*
%TO.C,TP7*%
X123450000Y-127100000D03*
%TD*%
D23*
%TO.C,H1*%
X185700000Y-84600000D03*
%TD*%
%TO.C,H2*%
X185700000Y-135000000D03*
%TD*%
D16*
%TO.C,TP3*%
X159050000Y-87800000D03*
%TD*%
%TO.C,TP9*%
X180290000Y-101260000D03*
%TD*%
D12*
%TO.C,R6*%
X136300000Y-130100000D03*
D13*
X146460000Y-130100000D03*
%TD*%
D23*
%TO.C,H3*%
X108200000Y-84600000D03*
%TD*%
D12*
%TO.C,R2*%
X137250000Y-92100000D03*
D13*
X147410000Y-92100000D03*
%TD*%
M02*
