M48
; DRILL file {KiCad 7.0.7} date Thu Mar  7 15:54:52 2024
; FORMAT={-:-/ absolute / inch / decimal}
; #@! TF.CreationDate,2024-03-07T15:54:52+13:00
; #@! TF.GenerationSoftware,Kicad,Pcbnew,7.0.7
; #@! TF.FileFunction,Plated,1,2,PTH
FMAT,2
INCH
; #@! TA.AperFunction,Plated,PTH,ViaDrill
T1C0.0118
; #@! TA.AperFunction,Plated,PTH,ViaDrill
T2C0.0197
; #@! TA.AperFunction,Plated,PTH,ComponentDrill
T3C0.0315
; #@! TA.AperFunction,Plated,PTH,ComponentDrill
T4C0.0394
; #@! TA.AperFunction,Plated,PTH,ComponentDrill
T5C0.0398
; #@! TA.AperFunction,Plated,PTH,ComponentDrill
T6C0.0433
; #@! TA.AperFunction,Plated,PTH,ComponentDrill
T7C0.0472
; #@! TA.AperFunction,Plated,PTH,ComponentDrill
T8C0.0787
; #@! TA.AperFunction,Plated,PTH,ComponentDrill
T9C0.1063
%
G90
G05
T1
X4.3937Y-3.9173
X5.3898Y-4.374
X5.437Y-4.7598
X5.6063Y-3.9528
X5.6299Y-4.3976
X5.6614Y-4.7598
X5.6811Y-4.2126
X5.6811Y-4.2598
X5.685Y-4.3976
X5.7205Y-4.2362
X5.7559Y-4.2126
X5.7559Y-4.2598
X6.122Y-3.6772
X6.122Y-3.9016
X6.122Y-4.122
X6.122Y-4.3425
T2
X4.3071Y-3.6654
X4.3661Y-3.5787
X4.435Y-5.0945
X4.4409Y-3.3701
X4.7106Y-5.0945
X4.9449Y-4.8858
X5.1969Y-3.7953
X5.1969Y-3.9961
X5.1969Y-4.2638
X5.2008Y-4.5748
X5.248Y-3.5551
X5.5Y-4.2677
X5.5787Y-4.2362
X5.5866Y-4.4449
X5.6575Y-3.5
X5.811Y-4.0827
X5.8268Y-4.7047
X5.9055Y-3.8543
X5.9921Y-3.3071
X6.0748Y-4.7047
X6.4331Y-4.0906
X6.6299Y-4.0906
X6.9252Y-3.6772
T3
X4.8622Y-3.8945
X4.8622Y-4.2945
X4.9921Y-3.3702
X4.9921Y-3.5198
X5.0374Y-3.8992
X5.0374Y-4.2992
X5.0374Y-4.3953
X5.0374Y-4.7953
X5.313Y-4.6102
X5.3661Y-5.122
X5.4035Y-3.626
X5.5394Y-3.3858
X5.713Y-4.6102
X5.7362Y-3.3858
X5.7661Y-5.122
X5.8035Y-3.626
X5.9783Y-4.2283
X5.9783Y-4.6283
X5.9902Y-3.6693
X5.9902Y-4.0693
X6.3346Y-3.8945
X6.3346Y-4.2945
X6.4528Y-3.3079
X6.4528Y-3.7079
X6.5512Y-3.989
X6.5512Y-4.089
X6.5512Y-4.189
X6.7693Y-3.8331
X7.0646Y-3.8331
T4
X4.2854Y-4.9606
X4.2854Y-5.0606
X7.1969Y-3.6717
X7.1969Y-3.7717
T5
X4.3799Y-4.7835
X4.5807Y-4.8307
T6
X4.3386Y-4.2559
X4.3386Y-4.6559
T7
X4.5768Y-4.9961
X4.6496Y-3.7984
X4.6496Y-4.3984
X4.8346Y-4.4882
X4.8602Y-5.0039
X5.5256Y-4.9055
X5.7106Y-4.9055
X5.813Y-3.8307
X6.2618Y-3.4567
X6.3012Y-3.7291
X6.9173Y-3.5354
X7.098Y-3.9866
T8
X6.9134Y-4.5394
X6.9134Y-4.9331
T9
X4.2598Y-3.3307
X4.2598Y-5.3189
X7.311Y-3.3307
X7.311Y-5.315
T3
G00X5.1969Y-3.6969
M15
G01X5.1969Y-3.6732
M16
G05
G00X6.122Y-4.5787
M15
G01X6.122Y-4.5551
M16
G05
T0
M30
