%TF.GenerationSoftware,KiCad,Pcbnew,7.0.7*%
%TF.CreationDate,2024-03-07T15:54:46+13:00*%
%TF.ProjectId,high_v_converter,68696768-5f76-45f6-936f-6e7665727465,rev?*%
%TF.SameCoordinates,Original*%
%TF.FileFunction,Legend,Top*%
%TF.FilePolarity,Positive*%
%FSLAX46Y46*%
G04 Gerber Fmt 4.6, Leading zero omitted, Abs format (unit mm)*
G04 Created by KiCad (PCBNEW 7.0.7) date 2024-03-07 15:54:46*
%MOMM*%
%LPD*%
G01*
G04 APERTURE LIST*
%ADD10C,0.200000*%
%ADD11C,0.150000*%
%ADD12C,0.120000*%
%ADD13C,0.152400*%
G04 APERTURE END LIST*
D10*
X117769673Y-131837219D02*
X117769673Y-130837219D01*
X117769673Y-131313409D02*
X118341101Y-131313409D01*
X118341101Y-131837219D02*
X118341101Y-130837219D01*
X118674435Y-130837219D02*
X119245863Y-130837219D01*
X118960149Y-131837219D02*
X118960149Y-130837219D01*
X120341102Y-131837219D02*
X120341102Y-130837219D01*
X120341102Y-131218171D02*
X120436340Y-131170552D01*
X120436340Y-131170552D02*
X120626816Y-131170552D01*
X120626816Y-131170552D02*
X120722054Y-131218171D01*
X120722054Y-131218171D02*
X120769673Y-131265790D01*
X120769673Y-131265790D02*
X120817292Y-131361028D01*
X120817292Y-131361028D02*
X120817292Y-131646742D01*
X120817292Y-131646742D02*
X120769673Y-131741980D01*
X120769673Y-131741980D02*
X120722054Y-131789600D01*
X120722054Y-131789600D02*
X120626816Y-131837219D01*
X120626816Y-131837219D02*
X120436340Y-131837219D01*
X120436340Y-131837219D02*
X120341102Y-131789600D01*
X121674435Y-131837219D02*
X121674435Y-131313409D01*
X121674435Y-131313409D02*
X121626816Y-131218171D01*
X121626816Y-131218171D02*
X121531578Y-131170552D01*
X121531578Y-131170552D02*
X121341102Y-131170552D01*
X121341102Y-131170552D02*
X121245864Y-131218171D01*
X121674435Y-131789600D02*
X121579197Y-131837219D01*
X121579197Y-131837219D02*
X121341102Y-131837219D01*
X121341102Y-131837219D02*
X121245864Y-131789600D01*
X121245864Y-131789600D02*
X121198245Y-131694361D01*
X121198245Y-131694361D02*
X121198245Y-131599123D01*
X121198245Y-131599123D02*
X121245864Y-131503885D01*
X121245864Y-131503885D02*
X121341102Y-131456266D01*
X121341102Y-131456266D02*
X121579197Y-131456266D01*
X121579197Y-131456266D02*
X121674435Y-131408647D01*
X122007769Y-131170552D02*
X122388721Y-131170552D01*
X122150626Y-130837219D02*
X122150626Y-131694361D01*
X122150626Y-131694361D02*
X122198245Y-131789600D01*
X122198245Y-131789600D02*
X122293483Y-131837219D01*
X122293483Y-131837219D02*
X122388721Y-131837219D01*
X122579198Y-131170552D02*
X122960150Y-131170552D01*
X122722055Y-130837219D02*
X122722055Y-131694361D01*
X122722055Y-131694361D02*
X122769674Y-131789600D01*
X122769674Y-131789600D02*
X122864912Y-131837219D01*
X122864912Y-131837219D02*
X122960150Y-131837219D01*
X123674436Y-131789600D02*
X123579198Y-131837219D01*
X123579198Y-131837219D02*
X123388722Y-131837219D01*
X123388722Y-131837219D02*
X123293484Y-131789600D01*
X123293484Y-131789600D02*
X123245865Y-131694361D01*
X123245865Y-131694361D02*
X123245865Y-131313409D01*
X123245865Y-131313409D02*
X123293484Y-131218171D01*
X123293484Y-131218171D02*
X123388722Y-131170552D01*
X123388722Y-131170552D02*
X123579198Y-131170552D01*
X123579198Y-131170552D02*
X123674436Y-131218171D01*
X123674436Y-131218171D02*
X123722055Y-131313409D01*
X123722055Y-131313409D02*
X123722055Y-131408647D01*
X123722055Y-131408647D02*
X123245865Y-131503885D01*
X124150627Y-131837219D02*
X124150627Y-131170552D01*
X124150627Y-131361028D02*
X124198246Y-131265790D01*
X124198246Y-131265790D02*
X124245865Y-131218171D01*
X124245865Y-131218171D02*
X124341103Y-131170552D01*
X124341103Y-131170552D02*
X124436341Y-131170552D01*
X124674437Y-131170552D02*
X124912532Y-131837219D01*
X125150627Y-131170552D02*
X124912532Y-131837219D01*
X124912532Y-131837219D02*
X124817294Y-132075314D01*
X124817294Y-132075314D02*
X124769675Y-132122933D01*
X124769675Y-132122933D02*
X124674437Y-132170552D01*
X126245866Y-131789600D02*
X126388723Y-131837219D01*
X126388723Y-131837219D02*
X126626818Y-131837219D01*
X126626818Y-131837219D02*
X126722056Y-131789600D01*
X126722056Y-131789600D02*
X126769675Y-131741980D01*
X126769675Y-131741980D02*
X126817294Y-131646742D01*
X126817294Y-131646742D02*
X126817294Y-131551504D01*
X126817294Y-131551504D02*
X126769675Y-131456266D01*
X126769675Y-131456266D02*
X126722056Y-131408647D01*
X126722056Y-131408647D02*
X126626818Y-131361028D01*
X126626818Y-131361028D02*
X126436342Y-131313409D01*
X126436342Y-131313409D02*
X126341104Y-131265790D01*
X126341104Y-131265790D02*
X126293485Y-131218171D01*
X126293485Y-131218171D02*
X126245866Y-131122933D01*
X126245866Y-131122933D02*
X126245866Y-131027695D01*
X126245866Y-131027695D02*
X126293485Y-130932457D01*
X126293485Y-130932457D02*
X126341104Y-130884838D01*
X126341104Y-130884838D02*
X126436342Y-130837219D01*
X126436342Y-130837219D02*
X126674437Y-130837219D01*
X126674437Y-130837219D02*
X126817294Y-130884838D01*
X127245866Y-131837219D02*
X127245866Y-130837219D01*
X127245866Y-130837219D02*
X127579199Y-131551504D01*
X127579199Y-131551504D02*
X127912532Y-130837219D01*
X127912532Y-130837219D02*
X127912532Y-131837219D01*
X128388723Y-131837219D02*
X128388723Y-130837219D01*
X128388723Y-130837219D02*
X128769675Y-130837219D01*
X128769675Y-130837219D02*
X128864913Y-130884838D01*
X128864913Y-130884838D02*
X128912532Y-130932457D01*
X128912532Y-130932457D02*
X128960151Y-131027695D01*
X128960151Y-131027695D02*
X128960151Y-131170552D01*
X128960151Y-131170552D02*
X128912532Y-131265790D01*
X128912532Y-131265790D02*
X128864913Y-131313409D01*
X128864913Y-131313409D02*
X128769675Y-131361028D01*
X128769675Y-131361028D02*
X128388723Y-131361028D01*
X129341104Y-131789600D02*
X129483961Y-131837219D01*
X129483961Y-131837219D02*
X129722056Y-131837219D01*
X129722056Y-131837219D02*
X129817294Y-131789600D01*
X129817294Y-131789600D02*
X129864913Y-131741980D01*
X129864913Y-131741980D02*
X129912532Y-131646742D01*
X129912532Y-131646742D02*
X129912532Y-131551504D01*
X129912532Y-131551504D02*
X129864913Y-131456266D01*
X129864913Y-131456266D02*
X129817294Y-131408647D01*
X129817294Y-131408647D02*
X129722056Y-131361028D01*
X129722056Y-131361028D02*
X129531580Y-131313409D01*
X129531580Y-131313409D02*
X129436342Y-131265790D01*
X129436342Y-131265790D02*
X129388723Y-131218171D01*
X129388723Y-131218171D02*
X129341104Y-131122933D01*
X129341104Y-131122933D02*
X129341104Y-131027695D01*
X129341104Y-131027695D02*
X129388723Y-130932457D01*
X129388723Y-130932457D02*
X129436342Y-130884838D01*
X129436342Y-130884838D02*
X129531580Y-130837219D01*
X129531580Y-130837219D02*
X129769675Y-130837219D01*
X129769675Y-130837219D02*
X129912532Y-130884838D01*
X117674435Y-132780552D02*
X117912530Y-133447219D01*
X117912530Y-133447219D02*
X118150625Y-132780552D01*
X119055387Y-133447219D02*
X118483959Y-133447219D01*
X118769673Y-133447219D02*
X118769673Y-132447219D01*
X118769673Y-132447219D02*
X118674435Y-132590076D01*
X118674435Y-132590076D02*
X118579197Y-132685314D01*
X118579197Y-132685314D02*
X118483959Y-132732933D01*
X119483959Y-133351980D02*
X119531578Y-133399600D01*
X119531578Y-133399600D02*
X119483959Y-133447219D01*
X119483959Y-133447219D02*
X119436340Y-133399600D01*
X119436340Y-133399600D02*
X119483959Y-133351980D01*
X119483959Y-133351980D02*
X119483959Y-133447219D01*
X120150625Y-132447219D02*
X120245863Y-132447219D01*
X120245863Y-132447219D02*
X120341101Y-132494838D01*
X120341101Y-132494838D02*
X120388720Y-132542457D01*
X120388720Y-132542457D02*
X120436339Y-132637695D01*
X120436339Y-132637695D02*
X120483958Y-132828171D01*
X120483958Y-132828171D02*
X120483958Y-133066266D01*
X120483958Y-133066266D02*
X120436339Y-133256742D01*
X120436339Y-133256742D02*
X120388720Y-133351980D01*
X120388720Y-133351980D02*
X120341101Y-133399600D01*
X120341101Y-133399600D02*
X120245863Y-133447219D01*
X120245863Y-133447219D02*
X120150625Y-133447219D01*
X120150625Y-133447219D02*
X120055387Y-133399600D01*
X120055387Y-133399600D02*
X120007768Y-133351980D01*
X120007768Y-133351980D02*
X119960149Y-133256742D01*
X119960149Y-133256742D02*
X119912530Y-133066266D01*
X119912530Y-133066266D02*
X119912530Y-132828171D01*
X119912530Y-132828171D02*
X119960149Y-132637695D01*
X119960149Y-132637695D02*
X120007768Y-132542457D01*
X120007768Y-132542457D02*
X120055387Y-132494838D01*
X120055387Y-132494838D02*
X120150625Y-132447219D01*
X117674435Y-134057219D02*
X118341101Y-134057219D01*
X118341101Y-134057219D02*
X117674435Y-135057219D01*
X117674435Y-135057219D02*
X118341101Y-135057219D01*
X119198244Y-135057219D02*
X118722054Y-135057219D01*
X118722054Y-135057219D02*
X118722054Y-134057219D01*
X119436340Y-134057219D02*
X120055387Y-134057219D01*
X120055387Y-134057219D02*
X119722054Y-134438171D01*
X119722054Y-134438171D02*
X119864911Y-134438171D01*
X119864911Y-134438171D02*
X119960149Y-134485790D01*
X119960149Y-134485790D02*
X120007768Y-134533409D01*
X120007768Y-134533409D02*
X120055387Y-134628647D01*
X120055387Y-134628647D02*
X120055387Y-134866742D01*
X120055387Y-134866742D02*
X120007768Y-134961980D01*
X120007768Y-134961980D02*
X119960149Y-135009600D01*
X119960149Y-135009600D02*
X119864911Y-135057219D01*
X119864911Y-135057219D02*
X119579197Y-135057219D01*
X119579197Y-135057219D02*
X119483959Y-135009600D01*
X119483959Y-135009600D02*
X119436340Y-134961980D01*
X120436340Y-134771504D02*
X120912530Y-134771504D01*
X120341102Y-135057219D02*
X120674435Y-134057219D01*
X120674435Y-134057219D02*
X121007768Y-135057219D01*
X121341102Y-135057219D02*
X121341102Y-134057219D01*
X121341102Y-134057219D02*
X121722054Y-134057219D01*
X121722054Y-134057219D02*
X121817292Y-134104838D01*
X121817292Y-134104838D02*
X121864911Y-134152457D01*
X121864911Y-134152457D02*
X121912530Y-134247695D01*
X121912530Y-134247695D02*
X121912530Y-134390552D01*
X121912530Y-134390552D02*
X121864911Y-134485790D01*
X121864911Y-134485790D02*
X121817292Y-134533409D01*
X121817292Y-134533409D02*
X121722054Y-134581028D01*
X121722054Y-134581028D02*
X121341102Y-134581028D01*
X122674435Y-134533409D02*
X122817292Y-134581028D01*
X122817292Y-134581028D02*
X122864911Y-134628647D01*
X122864911Y-134628647D02*
X122912530Y-134723885D01*
X122912530Y-134723885D02*
X122912530Y-134866742D01*
X122912530Y-134866742D02*
X122864911Y-134961980D01*
X122864911Y-134961980D02*
X122817292Y-135009600D01*
X122817292Y-135009600D02*
X122722054Y-135057219D01*
X122722054Y-135057219D02*
X122341102Y-135057219D01*
X122341102Y-135057219D02*
X122341102Y-134057219D01*
X122341102Y-134057219D02*
X122674435Y-134057219D01*
X122674435Y-134057219D02*
X122769673Y-134104838D01*
X122769673Y-134104838D02*
X122817292Y-134152457D01*
X122817292Y-134152457D02*
X122864911Y-134247695D01*
X122864911Y-134247695D02*
X122864911Y-134342933D01*
X122864911Y-134342933D02*
X122817292Y-134438171D01*
X122817292Y-134438171D02*
X122769673Y-134485790D01*
X122769673Y-134485790D02*
X122674435Y-134533409D01*
X122674435Y-134533409D02*
X122341102Y-134533409D01*
X117722054Y-135762457D02*
X117769673Y-135714838D01*
X117769673Y-135714838D02*
X117864911Y-135667219D01*
X117864911Y-135667219D02*
X118103006Y-135667219D01*
X118103006Y-135667219D02*
X118198244Y-135714838D01*
X118198244Y-135714838D02*
X118245863Y-135762457D01*
X118245863Y-135762457D02*
X118293482Y-135857695D01*
X118293482Y-135857695D02*
X118293482Y-135952933D01*
X118293482Y-135952933D02*
X118245863Y-136095790D01*
X118245863Y-136095790D02*
X117674435Y-136667219D01*
X117674435Y-136667219D02*
X118293482Y-136667219D01*
X118912530Y-135667219D02*
X119007768Y-135667219D01*
X119007768Y-135667219D02*
X119103006Y-135714838D01*
X119103006Y-135714838D02*
X119150625Y-135762457D01*
X119150625Y-135762457D02*
X119198244Y-135857695D01*
X119198244Y-135857695D02*
X119245863Y-136048171D01*
X119245863Y-136048171D02*
X119245863Y-136286266D01*
X119245863Y-136286266D02*
X119198244Y-136476742D01*
X119198244Y-136476742D02*
X119150625Y-136571980D01*
X119150625Y-136571980D02*
X119103006Y-136619600D01*
X119103006Y-136619600D02*
X119007768Y-136667219D01*
X119007768Y-136667219D02*
X118912530Y-136667219D01*
X118912530Y-136667219D02*
X118817292Y-136619600D01*
X118817292Y-136619600D02*
X118769673Y-136571980D01*
X118769673Y-136571980D02*
X118722054Y-136476742D01*
X118722054Y-136476742D02*
X118674435Y-136286266D01*
X118674435Y-136286266D02*
X118674435Y-136048171D01*
X118674435Y-136048171D02*
X118722054Y-135857695D01*
X118722054Y-135857695D02*
X118769673Y-135762457D01*
X118769673Y-135762457D02*
X118817292Y-135714838D01*
X118817292Y-135714838D02*
X118912530Y-135667219D01*
X119626816Y-135762457D02*
X119674435Y-135714838D01*
X119674435Y-135714838D02*
X119769673Y-135667219D01*
X119769673Y-135667219D02*
X120007768Y-135667219D01*
X120007768Y-135667219D02*
X120103006Y-135714838D01*
X120103006Y-135714838D02*
X120150625Y-135762457D01*
X120150625Y-135762457D02*
X120198244Y-135857695D01*
X120198244Y-135857695D02*
X120198244Y-135952933D01*
X120198244Y-135952933D02*
X120150625Y-136095790D01*
X120150625Y-136095790D02*
X119579197Y-136667219D01*
X119579197Y-136667219D02*
X120198244Y-136667219D01*
X121055387Y-136000552D02*
X121055387Y-136667219D01*
X120817292Y-135619600D02*
X120579197Y-136333885D01*
X120579197Y-136333885D02*
X121198244Y-136333885D01*
D11*
X177054509Y-85571428D02*
X177054509Y-85904761D01*
X177578319Y-85904761D02*
X176578319Y-85904761D01*
X176578319Y-85904761D02*
X176578319Y-85428571D01*
X177578319Y-85047618D02*
X176578319Y-85047618D01*
X177578319Y-84571428D02*
X176578319Y-84571428D01*
X176578319Y-84571428D02*
X176578319Y-84333333D01*
X176578319Y-84333333D02*
X176625938Y-84190476D01*
X176625938Y-84190476D02*
X176721176Y-84095238D01*
X176721176Y-84095238D02*
X176816414Y-84047619D01*
X176816414Y-84047619D02*
X177006890Y-84000000D01*
X177006890Y-84000000D02*
X177149747Y-84000000D01*
X177149747Y-84000000D02*
X177340223Y-84047619D01*
X177340223Y-84047619D02*
X177435461Y-84095238D01*
X177435461Y-84095238D02*
X177530700Y-84190476D01*
X177530700Y-84190476D02*
X177578319Y-84333333D01*
X177578319Y-84333333D02*
X177578319Y-84571428D01*
X176673557Y-83619047D02*
X176625938Y-83571428D01*
X176625938Y-83571428D02*
X176578319Y-83476190D01*
X176578319Y-83476190D02*
X176578319Y-83238095D01*
X176578319Y-83238095D02*
X176625938Y-83142857D01*
X176625938Y-83142857D02*
X176673557Y-83095238D01*
X176673557Y-83095238D02*
X176768795Y-83047619D01*
X176768795Y-83047619D02*
X176864033Y-83047619D01*
X176864033Y-83047619D02*
X177006890Y-83095238D01*
X177006890Y-83095238D02*
X177578319Y-83666666D01*
X177578319Y-83666666D02*
X177578319Y-83047619D01*
X130454509Y-136371428D02*
X130454509Y-136704761D01*
X130978319Y-136704761D02*
X129978319Y-136704761D01*
X129978319Y-136704761D02*
X129978319Y-136228571D01*
X130978319Y-135847618D02*
X129978319Y-135847618D01*
X130978319Y-135371428D02*
X129978319Y-135371428D01*
X129978319Y-135371428D02*
X129978319Y-135133333D01*
X129978319Y-135133333D02*
X130025938Y-134990476D01*
X130025938Y-134990476D02*
X130121176Y-134895238D01*
X130121176Y-134895238D02*
X130216414Y-134847619D01*
X130216414Y-134847619D02*
X130406890Y-134800000D01*
X130406890Y-134800000D02*
X130549747Y-134800000D01*
X130549747Y-134800000D02*
X130740223Y-134847619D01*
X130740223Y-134847619D02*
X130835461Y-134895238D01*
X130835461Y-134895238D02*
X130930700Y-134990476D01*
X130930700Y-134990476D02*
X130978319Y-135133333D01*
X130978319Y-135133333D02*
X130978319Y-135371428D01*
X130978319Y-133847619D02*
X130978319Y-134419047D01*
X130978319Y-134133333D02*
X129978319Y-134133333D01*
X129978319Y-134133333D02*
X130121176Y-134228571D01*
X130121176Y-134228571D02*
X130216414Y-134323809D01*
X130216414Y-134323809D02*
X130264033Y-134419047D01*
X108184819Y-113918094D02*
X107184819Y-113918094D01*
X107184819Y-113918094D02*
X107184819Y-113679999D01*
X107184819Y-113679999D02*
X107232438Y-113537142D01*
X107232438Y-113537142D02*
X107327676Y-113441904D01*
X107327676Y-113441904D02*
X107422914Y-113394285D01*
X107422914Y-113394285D02*
X107613390Y-113346666D01*
X107613390Y-113346666D02*
X107756247Y-113346666D01*
X107756247Y-113346666D02*
X107946723Y-113394285D01*
X107946723Y-113394285D02*
X108041961Y-113441904D01*
X108041961Y-113441904D02*
X108137200Y-113537142D01*
X108137200Y-113537142D02*
X108184819Y-113679999D01*
X108184819Y-113679999D02*
X108184819Y-113918094D01*
X107280057Y-112965713D02*
X107232438Y-112918094D01*
X107232438Y-112918094D02*
X107184819Y-112822856D01*
X107184819Y-112822856D02*
X107184819Y-112584761D01*
X107184819Y-112584761D02*
X107232438Y-112489523D01*
X107232438Y-112489523D02*
X107280057Y-112441904D01*
X107280057Y-112441904D02*
X107375295Y-112394285D01*
X107375295Y-112394285D02*
X107470533Y-112394285D01*
X107470533Y-112394285D02*
X107613390Y-112441904D01*
X107613390Y-112441904D02*
X108184819Y-113013332D01*
X108184819Y-113013332D02*
X108184819Y-112394285D01*
X108554819Y-118521904D02*
X107554819Y-118521904D01*
X108554819Y-117950476D02*
X107983390Y-118379047D01*
X107554819Y-117950476D02*
X108126247Y-118521904D01*
X126154819Y-104542857D02*
X125678628Y-104876190D01*
X126154819Y-105114285D02*
X125154819Y-105114285D01*
X125154819Y-105114285D02*
X125154819Y-104733333D01*
X125154819Y-104733333D02*
X125202438Y-104638095D01*
X125202438Y-104638095D02*
X125250057Y-104590476D01*
X125250057Y-104590476D02*
X125345295Y-104542857D01*
X125345295Y-104542857D02*
X125488152Y-104542857D01*
X125488152Y-104542857D02*
X125583390Y-104590476D01*
X125583390Y-104590476D02*
X125631009Y-104638095D01*
X125631009Y-104638095D02*
X125678628Y-104733333D01*
X125678628Y-104733333D02*
X125678628Y-105114285D01*
X126154819Y-103590476D02*
X126154819Y-104161904D01*
X126154819Y-103876190D02*
X125154819Y-103876190D01*
X125154819Y-103876190D02*
X125297676Y-103971428D01*
X125297676Y-103971428D02*
X125392914Y-104066666D01*
X125392914Y-104066666D02*
X125440533Y-104161904D01*
X125250057Y-103209523D02*
X125202438Y-103161904D01*
X125202438Y-103161904D02*
X125154819Y-103066666D01*
X125154819Y-103066666D02*
X125154819Y-102828571D01*
X125154819Y-102828571D02*
X125202438Y-102733333D01*
X125202438Y-102733333D02*
X125250057Y-102685714D01*
X125250057Y-102685714D02*
X125345295Y-102638095D01*
X125345295Y-102638095D02*
X125440533Y-102638095D01*
X125440533Y-102638095D02*
X125583390Y-102685714D01*
X125583390Y-102685714D02*
X126154819Y-103257142D01*
X126154819Y-103257142D02*
X126154819Y-102638095D01*
X155854819Y-120833333D02*
X156569104Y-120833333D01*
X156569104Y-120833333D02*
X156711961Y-120880952D01*
X156711961Y-120880952D02*
X156807200Y-120976190D01*
X156807200Y-120976190D02*
X156854819Y-121119047D01*
X156854819Y-121119047D02*
X156854819Y-121214285D01*
X155854819Y-120452380D02*
X155854819Y-119833333D01*
X155854819Y-119833333D02*
X156235771Y-120166666D01*
X156235771Y-120166666D02*
X156235771Y-120023809D01*
X156235771Y-120023809D02*
X156283390Y-119928571D01*
X156283390Y-119928571D02*
X156331009Y-119880952D01*
X156331009Y-119880952D02*
X156426247Y-119833333D01*
X156426247Y-119833333D02*
X156664342Y-119833333D01*
X156664342Y-119833333D02*
X156759580Y-119880952D01*
X156759580Y-119880952D02*
X156807200Y-119928571D01*
X156807200Y-119928571D02*
X156854819Y-120023809D01*
X156854819Y-120023809D02*
X156854819Y-120309523D01*
X156854819Y-120309523D02*
X156807200Y-120404761D01*
X156807200Y-120404761D02*
X156759580Y-120452380D01*
X149433333Y-99959580D02*
X149385714Y-100007200D01*
X149385714Y-100007200D02*
X149242857Y-100054819D01*
X149242857Y-100054819D02*
X149147619Y-100054819D01*
X149147619Y-100054819D02*
X149004762Y-100007200D01*
X149004762Y-100007200D02*
X148909524Y-99911961D01*
X148909524Y-99911961D02*
X148861905Y-99816723D01*
X148861905Y-99816723D02*
X148814286Y-99626247D01*
X148814286Y-99626247D02*
X148814286Y-99483390D01*
X148814286Y-99483390D02*
X148861905Y-99292914D01*
X148861905Y-99292914D02*
X148909524Y-99197676D01*
X148909524Y-99197676D02*
X149004762Y-99102438D01*
X149004762Y-99102438D02*
X149147619Y-99054819D01*
X149147619Y-99054819D02*
X149242857Y-99054819D01*
X149242857Y-99054819D02*
X149385714Y-99102438D01*
X149385714Y-99102438D02*
X149433333Y-99150057D01*
X149766667Y-99054819D02*
X150385714Y-99054819D01*
X150385714Y-99054819D02*
X150052381Y-99435771D01*
X150052381Y-99435771D02*
X150195238Y-99435771D01*
X150195238Y-99435771D02*
X150290476Y-99483390D01*
X150290476Y-99483390D02*
X150338095Y-99531009D01*
X150338095Y-99531009D02*
X150385714Y-99626247D01*
X150385714Y-99626247D02*
X150385714Y-99864342D01*
X150385714Y-99864342D02*
X150338095Y-99959580D01*
X150338095Y-99959580D02*
X150290476Y-100007200D01*
X150290476Y-100007200D02*
X150195238Y-100054819D01*
X150195238Y-100054819D02*
X149909524Y-100054819D01*
X149909524Y-100054819D02*
X149814286Y-100007200D01*
X149814286Y-100007200D02*
X149766667Y-99959580D01*
X108516666Y-122684819D02*
X108516666Y-123399104D01*
X108516666Y-123399104D02*
X108469047Y-123541961D01*
X108469047Y-123541961D02*
X108373809Y-123637200D01*
X108373809Y-123637200D02*
X108230952Y-123684819D01*
X108230952Y-123684819D02*
X108135714Y-123684819D01*
X109516666Y-123684819D02*
X108945238Y-123684819D01*
X109230952Y-123684819D02*
X109230952Y-122684819D01*
X109230952Y-122684819D02*
X109135714Y-122827676D01*
X109135714Y-122827676D02*
X109040476Y-122922914D01*
X109040476Y-122922914D02*
X108945238Y-122970533D01*
X107826191Y-130764819D02*
X108159524Y-131764819D01*
X108159524Y-131764819D02*
X108492857Y-130764819D01*
X108826191Y-131764819D02*
X108826191Y-131098152D01*
X108826191Y-130764819D02*
X108778572Y-130812438D01*
X108778572Y-130812438D02*
X108826191Y-130860057D01*
X108826191Y-130860057D02*
X108873810Y-130812438D01*
X108873810Y-130812438D02*
X108826191Y-130764819D01*
X108826191Y-130764819D02*
X108826191Y-130860057D01*
X109302381Y-131098152D02*
X109302381Y-131764819D01*
X109302381Y-131193390D02*
X109350000Y-131145771D01*
X109350000Y-131145771D02*
X109445238Y-131098152D01*
X109445238Y-131098152D02*
X109588095Y-131098152D01*
X109588095Y-131098152D02*
X109683333Y-131145771D01*
X109683333Y-131145771D02*
X109730952Y-131241009D01*
X109730952Y-131241009D02*
X109730952Y-131764819D01*
X175523333Y-100219580D02*
X175475714Y-100267200D01*
X175475714Y-100267200D02*
X175332857Y-100314819D01*
X175332857Y-100314819D02*
X175237619Y-100314819D01*
X175237619Y-100314819D02*
X175094762Y-100267200D01*
X175094762Y-100267200D02*
X174999524Y-100171961D01*
X174999524Y-100171961D02*
X174951905Y-100076723D01*
X174951905Y-100076723D02*
X174904286Y-99886247D01*
X174904286Y-99886247D02*
X174904286Y-99743390D01*
X174904286Y-99743390D02*
X174951905Y-99552914D01*
X174951905Y-99552914D02*
X174999524Y-99457676D01*
X174999524Y-99457676D02*
X175094762Y-99362438D01*
X175094762Y-99362438D02*
X175237619Y-99314819D01*
X175237619Y-99314819D02*
X175332857Y-99314819D01*
X175332857Y-99314819D02*
X175475714Y-99362438D01*
X175475714Y-99362438D02*
X175523333Y-99410057D01*
X175999524Y-100314819D02*
X176190000Y-100314819D01*
X176190000Y-100314819D02*
X176285238Y-100267200D01*
X176285238Y-100267200D02*
X176332857Y-100219580D01*
X176332857Y-100219580D02*
X176428095Y-100076723D01*
X176428095Y-100076723D02*
X176475714Y-99886247D01*
X176475714Y-99886247D02*
X176475714Y-99505295D01*
X176475714Y-99505295D02*
X176428095Y-99410057D01*
X176428095Y-99410057D02*
X176380476Y-99362438D01*
X176380476Y-99362438D02*
X176285238Y-99314819D01*
X176285238Y-99314819D02*
X176094762Y-99314819D01*
X176094762Y-99314819D02*
X175999524Y-99362438D01*
X175999524Y-99362438D02*
X175951905Y-99410057D01*
X175951905Y-99410057D02*
X175904286Y-99505295D01*
X175904286Y-99505295D02*
X175904286Y-99743390D01*
X175904286Y-99743390D02*
X175951905Y-99838628D01*
X175951905Y-99838628D02*
X175999524Y-99886247D01*
X175999524Y-99886247D02*
X176094762Y-99933866D01*
X176094762Y-99933866D02*
X176285238Y-99933866D01*
X176285238Y-99933866D02*
X176380476Y-99886247D01*
X176380476Y-99886247D02*
X176428095Y-99838628D01*
X176428095Y-99838628D02*
X176475714Y-99743390D01*
X142633333Y-84059580D02*
X142585714Y-84107200D01*
X142585714Y-84107200D02*
X142442857Y-84154819D01*
X142442857Y-84154819D02*
X142347619Y-84154819D01*
X142347619Y-84154819D02*
X142204762Y-84107200D01*
X142204762Y-84107200D02*
X142109524Y-84011961D01*
X142109524Y-84011961D02*
X142061905Y-83916723D01*
X142061905Y-83916723D02*
X142014286Y-83726247D01*
X142014286Y-83726247D02*
X142014286Y-83583390D01*
X142014286Y-83583390D02*
X142061905Y-83392914D01*
X142061905Y-83392914D02*
X142109524Y-83297676D01*
X142109524Y-83297676D02*
X142204762Y-83202438D01*
X142204762Y-83202438D02*
X142347619Y-83154819D01*
X142347619Y-83154819D02*
X142442857Y-83154819D01*
X142442857Y-83154819D02*
X142585714Y-83202438D01*
X142585714Y-83202438D02*
X142633333Y-83250057D01*
X143490476Y-83154819D02*
X143300000Y-83154819D01*
X143300000Y-83154819D02*
X143204762Y-83202438D01*
X143204762Y-83202438D02*
X143157143Y-83250057D01*
X143157143Y-83250057D02*
X143061905Y-83392914D01*
X143061905Y-83392914D02*
X143014286Y-83583390D01*
X143014286Y-83583390D02*
X143014286Y-83964342D01*
X143014286Y-83964342D02*
X143061905Y-84059580D01*
X143061905Y-84059580D02*
X143109524Y-84107200D01*
X143109524Y-84107200D02*
X143204762Y-84154819D01*
X143204762Y-84154819D02*
X143395238Y-84154819D01*
X143395238Y-84154819D02*
X143490476Y-84107200D01*
X143490476Y-84107200D02*
X143538095Y-84059580D01*
X143538095Y-84059580D02*
X143585714Y-83964342D01*
X143585714Y-83964342D02*
X143585714Y-83726247D01*
X143585714Y-83726247D02*
X143538095Y-83631009D01*
X143538095Y-83631009D02*
X143490476Y-83583390D01*
X143490476Y-83583390D02*
X143395238Y-83535771D01*
X143395238Y-83535771D02*
X143204762Y-83535771D01*
X143204762Y-83535771D02*
X143109524Y-83583390D01*
X143109524Y-83583390D02*
X143061905Y-83631009D01*
X143061905Y-83631009D02*
X143014286Y-83726247D01*
X110994642Y-101079819D02*
X110661309Y-100603628D01*
X110423214Y-101079819D02*
X110423214Y-100079819D01*
X110423214Y-100079819D02*
X110804166Y-100079819D01*
X110804166Y-100079819D02*
X110899404Y-100127438D01*
X110899404Y-100127438D02*
X110947023Y-100175057D01*
X110947023Y-100175057D02*
X110994642Y-100270295D01*
X110994642Y-100270295D02*
X110994642Y-100413152D01*
X110994642Y-100413152D02*
X110947023Y-100508390D01*
X110947023Y-100508390D02*
X110899404Y-100556009D01*
X110899404Y-100556009D02*
X110804166Y-100603628D01*
X110804166Y-100603628D02*
X110423214Y-100603628D01*
X111947023Y-101079819D02*
X111375595Y-101079819D01*
X111661309Y-101079819D02*
X111661309Y-100079819D01*
X111661309Y-100079819D02*
X111566071Y-100222676D01*
X111566071Y-100222676D02*
X111470833Y-100317914D01*
X111470833Y-100317914D02*
X111375595Y-100365533D01*
X112899404Y-101079819D02*
X112327976Y-101079819D01*
X112613690Y-101079819D02*
X112613690Y-100079819D01*
X112613690Y-100079819D02*
X112518452Y-100222676D01*
X112518452Y-100222676D02*
X112423214Y-100317914D01*
X112423214Y-100317914D02*
X112327976Y-100365533D01*
X138111905Y-103554819D02*
X138111905Y-102554819D01*
X138111905Y-102554819D02*
X138350000Y-102554819D01*
X138350000Y-102554819D02*
X138492857Y-102602438D01*
X138492857Y-102602438D02*
X138588095Y-102697676D01*
X138588095Y-102697676D02*
X138635714Y-102792914D01*
X138635714Y-102792914D02*
X138683333Y-102983390D01*
X138683333Y-102983390D02*
X138683333Y-103126247D01*
X138683333Y-103126247D02*
X138635714Y-103316723D01*
X138635714Y-103316723D02*
X138588095Y-103411961D01*
X138588095Y-103411961D02*
X138492857Y-103507200D01*
X138492857Y-103507200D02*
X138350000Y-103554819D01*
X138350000Y-103554819D02*
X138111905Y-103554819D01*
X139635714Y-103554819D02*
X139064286Y-103554819D01*
X139350000Y-103554819D02*
X139350000Y-102554819D01*
X139350000Y-102554819D02*
X139254762Y-102697676D01*
X139254762Y-102697676D02*
X139159524Y-102792914D01*
X139159524Y-102792914D02*
X139064286Y-102840533D01*
X139387142Y-119924819D02*
X139053809Y-119448628D01*
X138815714Y-119924819D02*
X138815714Y-118924819D01*
X138815714Y-118924819D02*
X139196666Y-118924819D01*
X139196666Y-118924819D02*
X139291904Y-118972438D01*
X139291904Y-118972438D02*
X139339523Y-119020057D01*
X139339523Y-119020057D02*
X139387142Y-119115295D01*
X139387142Y-119115295D02*
X139387142Y-119258152D01*
X139387142Y-119258152D02*
X139339523Y-119353390D01*
X139339523Y-119353390D02*
X139291904Y-119401009D01*
X139291904Y-119401009D02*
X139196666Y-119448628D01*
X139196666Y-119448628D02*
X138815714Y-119448628D01*
X140339523Y-119924819D02*
X139768095Y-119924819D01*
X140053809Y-119924819D02*
X140053809Y-118924819D01*
X140053809Y-118924819D02*
X139958571Y-119067676D01*
X139958571Y-119067676D02*
X139863333Y-119162914D01*
X139863333Y-119162914D02*
X139768095Y-119210533D01*
X141244285Y-118924819D02*
X140768095Y-118924819D01*
X140768095Y-118924819D02*
X140720476Y-119401009D01*
X140720476Y-119401009D02*
X140768095Y-119353390D01*
X140768095Y-119353390D02*
X140863333Y-119305771D01*
X140863333Y-119305771D02*
X141101428Y-119305771D01*
X141101428Y-119305771D02*
X141196666Y-119353390D01*
X141196666Y-119353390D02*
X141244285Y-119401009D01*
X141244285Y-119401009D02*
X141291904Y-119496247D01*
X141291904Y-119496247D02*
X141291904Y-119734342D01*
X141291904Y-119734342D02*
X141244285Y-119829580D01*
X141244285Y-119829580D02*
X141196666Y-119877200D01*
X141196666Y-119877200D02*
X141101428Y-119924819D01*
X141101428Y-119924819D02*
X140863333Y-119924819D01*
X140863333Y-119924819D02*
X140768095Y-119877200D01*
X140768095Y-119877200D02*
X140720476Y-119829580D01*
X130774819Y-104762857D02*
X130298628Y-105096190D01*
X130774819Y-105334285D02*
X129774819Y-105334285D01*
X129774819Y-105334285D02*
X129774819Y-104953333D01*
X129774819Y-104953333D02*
X129822438Y-104858095D01*
X129822438Y-104858095D02*
X129870057Y-104810476D01*
X129870057Y-104810476D02*
X129965295Y-104762857D01*
X129965295Y-104762857D02*
X130108152Y-104762857D01*
X130108152Y-104762857D02*
X130203390Y-104810476D01*
X130203390Y-104810476D02*
X130251009Y-104858095D01*
X130251009Y-104858095D02*
X130298628Y-104953333D01*
X130298628Y-104953333D02*
X130298628Y-105334285D01*
X130774819Y-103810476D02*
X130774819Y-104381904D01*
X130774819Y-104096190D02*
X129774819Y-104096190D01*
X129774819Y-104096190D02*
X129917676Y-104191428D01*
X129917676Y-104191428D02*
X130012914Y-104286666D01*
X130012914Y-104286666D02*
X130060533Y-104381904D01*
X129774819Y-103477142D02*
X129774819Y-102858095D01*
X129774819Y-102858095D02*
X130155771Y-103191428D01*
X130155771Y-103191428D02*
X130155771Y-103048571D01*
X130155771Y-103048571D02*
X130203390Y-102953333D01*
X130203390Y-102953333D02*
X130251009Y-102905714D01*
X130251009Y-102905714D02*
X130346247Y-102858095D01*
X130346247Y-102858095D02*
X130584342Y-102858095D01*
X130584342Y-102858095D02*
X130679580Y-102905714D01*
X130679580Y-102905714D02*
X130727200Y-102953333D01*
X130727200Y-102953333D02*
X130774819Y-103048571D01*
X130774819Y-103048571D02*
X130774819Y-103334285D01*
X130774819Y-103334285D02*
X130727200Y-103429523D01*
X130727200Y-103429523D02*
X130679580Y-103477142D01*
X109259580Y-99542857D02*
X109307200Y-99590476D01*
X109307200Y-99590476D02*
X109354819Y-99733333D01*
X109354819Y-99733333D02*
X109354819Y-99828571D01*
X109354819Y-99828571D02*
X109307200Y-99971428D01*
X109307200Y-99971428D02*
X109211961Y-100066666D01*
X109211961Y-100066666D02*
X109116723Y-100114285D01*
X109116723Y-100114285D02*
X108926247Y-100161904D01*
X108926247Y-100161904D02*
X108783390Y-100161904D01*
X108783390Y-100161904D02*
X108592914Y-100114285D01*
X108592914Y-100114285D02*
X108497676Y-100066666D01*
X108497676Y-100066666D02*
X108402438Y-99971428D01*
X108402438Y-99971428D02*
X108354819Y-99828571D01*
X108354819Y-99828571D02*
X108354819Y-99733333D01*
X108354819Y-99733333D02*
X108402438Y-99590476D01*
X108402438Y-99590476D02*
X108450057Y-99542857D01*
X109354819Y-98590476D02*
X109354819Y-99161904D01*
X109354819Y-98876190D02*
X108354819Y-98876190D01*
X108354819Y-98876190D02*
X108497676Y-98971428D01*
X108497676Y-98971428D02*
X108592914Y-99066666D01*
X108592914Y-99066666D02*
X108640533Y-99161904D01*
X108354819Y-97971428D02*
X108354819Y-97876190D01*
X108354819Y-97876190D02*
X108402438Y-97780952D01*
X108402438Y-97780952D02*
X108450057Y-97733333D01*
X108450057Y-97733333D02*
X108545295Y-97685714D01*
X108545295Y-97685714D02*
X108735771Y-97638095D01*
X108735771Y-97638095D02*
X108973866Y-97638095D01*
X108973866Y-97638095D02*
X109164342Y-97685714D01*
X109164342Y-97685714D02*
X109259580Y-97733333D01*
X109259580Y-97733333D02*
X109307200Y-97780952D01*
X109307200Y-97780952D02*
X109354819Y-97876190D01*
X109354819Y-97876190D02*
X109354819Y-97971428D01*
X109354819Y-97971428D02*
X109307200Y-98066666D01*
X109307200Y-98066666D02*
X109259580Y-98114285D01*
X109259580Y-98114285D02*
X109164342Y-98161904D01*
X109164342Y-98161904D02*
X108973866Y-98209523D01*
X108973866Y-98209523D02*
X108735771Y-98209523D01*
X108735771Y-98209523D02*
X108545295Y-98161904D01*
X108545295Y-98161904D02*
X108450057Y-98114285D01*
X108450057Y-98114285D02*
X108402438Y-98066666D01*
X108402438Y-98066666D02*
X108354819Y-97971428D01*
X146388095Y-94606819D02*
X146959523Y-94606819D01*
X146673809Y-95606819D02*
X146673809Y-94606819D01*
X147292857Y-95606819D02*
X147292857Y-94606819D01*
X147292857Y-94606819D02*
X147673809Y-94606819D01*
X147673809Y-94606819D02*
X147769047Y-94654438D01*
X147769047Y-94654438D02*
X147816666Y-94702057D01*
X147816666Y-94702057D02*
X147864285Y-94797295D01*
X147864285Y-94797295D02*
X147864285Y-94940152D01*
X147864285Y-94940152D02*
X147816666Y-95035390D01*
X147816666Y-95035390D02*
X147769047Y-95083009D01*
X147769047Y-95083009D02*
X147673809Y-95130628D01*
X147673809Y-95130628D02*
X147292857Y-95130628D01*
X148721428Y-94940152D02*
X148721428Y-95606819D01*
X148483333Y-94559200D02*
X148245238Y-95273485D01*
X148245238Y-95273485D02*
X148864285Y-95273485D01*
X146792857Y-99957200D02*
X146935714Y-100004819D01*
X146935714Y-100004819D02*
X147173809Y-100004819D01*
X147173809Y-100004819D02*
X147269047Y-99957200D01*
X147269047Y-99957200D02*
X147316666Y-99909580D01*
X147316666Y-99909580D02*
X147364285Y-99814342D01*
X147364285Y-99814342D02*
X147364285Y-99719104D01*
X147364285Y-99719104D02*
X147316666Y-99623866D01*
X147316666Y-99623866D02*
X147269047Y-99576247D01*
X147269047Y-99576247D02*
X147173809Y-99528628D01*
X147173809Y-99528628D02*
X146983333Y-99481009D01*
X146983333Y-99481009D02*
X146888095Y-99433390D01*
X146888095Y-99433390D02*
X146840476Y-99385771D01*
X146840476Y-99385771D02*
X146792857Y-99290533D01*
X146792857Y-99290533D02*
X146792857Y-99195295D01*
X146792857Y-99195295D02*
X146840476Y-99100057D01*
X146840476Y-99100057D02*
X146888095Y-99052438D01*
X146888095Y-99052438D02*
X146983333Y-99004819D01*
X146983333Y-99004819D02*
X147221428Y-99004819D01*
X147221428Y-99004819D02*
X147364285Y-99052438D01*
X147697619Y-99004819D02*
X147935714Y-100004819D01*
X147935714Y-100004819D02*
X148126190Y-99290533D01*
X148126190Y-99290533D02*
X148316666Y-100004819D01*
X148316666Y-100004819D02*
X148554762Y-99004819D01*
X113466666Y-124531009D02*
X113133333Y-124531009D01*
X113133333Y-125054819D02*
X113133333Y-124054819D01*
X113133333Y-124054819D02*
X113609523Y-124054819D01*
X114514285Y-125054819D02*
X113942857Y-125054819D01*
X114228571Y-125054819D02*
X114228571Y-124054819D01*
X114228571Y-124054819D02*
X114133333Y-124197676D01*
X114133333Y-124197676D02*
X114038095Y-124292914D01*
X114038095Y-124292914D02*
X113942857Y-124340533D01*
X166504819Y-89086666D02*
X166028628Y-89419999D01*
X166504819Y-89658094D02*
X165504819Y-89658094D01*
X165504819Y-89658094D02*
X165504819Y-89277142D01*
X165504819Y-89277142D02*
X165552438Y-89181904D01*
X165552438Y-89181904D02*
X165600057Y-89134285D01*
X165600057Y-89134285D02*
X165695295Y-89086666D01*
X165695295Y-89086666D02*
X165838152Y-89086666D01*
X165838152Y-89086666D02*
X165933390Y-89134285D01*
X165933390Y-89134285D02*
X165981009Y-89181904D01*
X165981009Y-89181904D02*
X166028628Y-89277142D01*
X166028628Y-89277142D02*
X166028628Y-89658094D01*
X165504819Y-88181904D02*
X165504819Y-88658094D01*
X165504819Y-88658094D02*
X165981009Y-88705713D01*
X165981009Y-88705713D02*
X165933390Y-88658094D01*
X165933390Y-88658094D02*
X165885771Y-88562856D01*
X165885771Y-88562856D02*
X165885771Y-88324761D01*
X165885771Y-88324761D02*
X165933390Y-88229523D01*
X165933390Y-88229523D02*
X165981009Y-88181904D01*
X165981009Y-88181904D02*
X166076247Y-88134285D01*
X166076247Y-88134285D02*
X166314342Y-88134285D01*
X166314342Y-88134285D02*
X166409580Y-88181904D01*
X166409580Y-88181904D02*
X166457200Y-88229523D01*
X166457200Y-88229523D02*
X166504819Y-88324761D01*
X166504819Y-88324761D02*
X166504819Y-88562856D01*
X166504819Y-88562856D02*
X166457200Y-88658094D01*
X166457200Y-88658094D02*
X166409580Y-88705713D01*
X130774819Y-117362857D02*
X130298628Y-117696190D01*
X130774819Y-117934285D02*
X129774819Y-117934285D01*
X129774819Y-117934285D02*
X129774819Y-117553333D01*
X129774819Y-117553333D02*
X129822438Y-117458095D01*
X129822438Y-117458095D02*
X129870057Y-117410476D01*
X129870057Y-117410476D02*
X129965295Y-117362857D01*
X129965295Y-117362857D02*
X130108152Y-117362857D01*
X130108152Y-117362857D02*
X130203390Y-117410476D01*
X130203390Y-117410476D02*
X130251009Y-117458095D01*
X130251009Y-117458095D02*
X130298628Y-117553333D01*
X130298628Y-117553333D02*
X130298628Y-117934285D01*
X130774819Y-116410476D02*
X130774819Y-116981904D01*
X130774819Y-116696190D02*
X129774819Y-116696190D01*
X129774819Y-116696190D02*
X129917676Y-116791428D01*
X129917676Y-116791428D02*
X130012914Y-116886666D01*
X130012914Y-116886666D02*
X130060533Y-116981904D01*
X130108152Y-115553333D02*
X130774819Y-115553333D01*
X129727200Y-115791428D02*
X130441485Y-116029523D01*
X130441485Y-116029523D02*
X130441485Y-115410476D01*
X182466666Y-98024819D02*
X182466666Y-98739104D01*
X182466666Y-98739104D02*
X182419047Y-98881961D01*
X182419047Y-98881961D02*
X182323809Y-98977200D01*
X182323809Y-98977200D02*
X182180952Y-99024819D01*
X182180952Y-99024819D02*
X182085714Y-99024819D01*
X182895238Y-98120057D02*
X182942857Y-98072438D01*
X182942857Y-98072438D02*
X183038095Y-98024819D01*
X183038095Y-98024819D02*
X183276190Y-98024819D01*
X183276190Y-98024819D02*
X183371428Y-98072438D01*
X183371428Y-98072438D02*
X183419047Y-98120057D01*
X183419047Y-98120057D02*
X183466666Y-98215295D01*
X183466666Y-98215295D02*
X183466666Y-98310533D01*
X183466666Y-98310533D02*
X183419047Y-98453390D01*
X183419047Y-98453390D02*
X182847619Y-99024819D01*
X182847619Y-99024819D02*
X183466666Y-99024819D01*
X181276190Y-89944819D02*
X181609523Y-90944819D01*
X181609523Y-90944819D02*
X181942856Y-89944819D01*
X182419047Y-90944819D02*
X182323809Y-90897200D01*
X182323809Y-90897200D02*
X182276190Y-90849580D01*
X182276190Y-90849580D02*
X182228571Y-90754342D01*
X182228571Y-90754342D02*
X182228571Y-90468628D01*
X182228571Y-90468628D02*
X182276190Y-90373390D01*
X182276190Y-90373390D02*
X182323809Y-90325771D01*
X182323809Y-90325771D02*
X182419047Y-90278152D01*
X182419047Y-90278152D02*
X182561904Y-90278152D01*
X182561904Y-90278152D02*
X182657142Y-90325771D01*
X182657142Y-90325771D02*
X182704761Y-90373390D01*
X182704761Y-90373390D02*
X182752380Y-90468628D01*
X182752380Y-90468628D02*
X182752380Y-90754342D01*
X182752380Y-90754342D02*
X182704761Y-90849580D01*
X182704761Y-90849580D02*
X182657142Y-90897200D01*
X182657142Y-90897200D02*
X182561904Y-90944819D01*
X182561904Y-90944819D02*
X182419047Y-90944819D01*
X183609523Y-90278152D02*
X183609523Y-90944819D01*
X183180952Y-90278152D02*
X183180952Y-90801961D01*
X183180952Y-90801961D02*
X183228571Y-90897200D01*
X183228571Y-90897200D02*
X183323809Y-90944819D01*
X183323809Y-90944819D02*
X183466666Y-90944819D01*
X183466666Y-90944819D02*
X183561904Y-90897200D01*
X183561904Y-90897200D02*
X183609523Y-90849580D01*
X183942857Y-90278152D02*
X184323809Y-90278152D01*
X184085714Y-89944819D02*
X184085714Y-90801961D01*
X184085714Y-90801961D02*
X184133333Y-90897200D01*
X184133333Y-90897200D02*
X184228571Y-90944819D01*
X184228571Y-90944819D02*
X184323809Y-90944819D01*
X144133333Y-114859580D02*
X144085714Y-114907200D01*
X144085714Y-114907200D02*
X143942857Y-114954819D01*
X143942857Y-114954819D02*
X143847619Y-114954819D01*
X143847619Y-114954819D02*
X143704762Y-114907200D01*
X143704762Y-114907200D02*
X143609524Y-114811961D01*
X143609524Y-114811961D02*
X143561905Y-114716723D01*
X143561905Y-114716723D02*
X143514286Y-114526247D01*
X143514286Y-114526247D02*
X143514286Y-114383390D01*
X143514286Y-114383390D02*
X143561905Y-114192914D01*
X143561905Y-114192914D02*
X143609524Y-114097676D01*
X143609524Y-114097676D02*
X143704762Y-114002438D01*
X143704762Y-114002438D02*
X143847619Y-113954819D01*
X143847619Y-113954819D02*
X143942857Y-113954819D01*
X143942857Y-113954819D02*
X144085714Y-114002438D01*
X144085714Y-114002438D02*
X144133333Y-114050057D01*
X144514286Y-114050057D02*
X144561905Y-114002438D01*
X144561905Y-114002438D02*
X144657143Y-113954819D01*
X144657143Y-113954819D02*
X144895238Y-113954819D01*
X144895238Y-113954819D02*
X144990476Y-114002438D01*
X144990476Y-114002438D02*
X145038095Y-114050057D01*
X145038095Y-114050057D02*
X145085714Y-114145295D01*
X145085714Y-114145295D02*
X145085714Y-114240533D01*
X145085714Y-114240533D02*
X145038095Y-114383390D01*
X145038095Y-114383390D02*
X144466667Y-114954819D01*
X144466667Y-114954819D02*
X145085714Y-114954819D01*
X150154819Y-112666666D02*
X149678628Y-112999999D01*
X150154819Y-113238094D02*
X149154819Y-113238094D01*
X149154819Y-113238094D02*
X149154819Y-112857142D01*
X149154819Y-112857142D02*
X149202438Y-112761904D01*
X149202438Y-112761904D02*
X149250057Y-112714285D01*
X149250057Y-112714285D02*
X149345295Y-112666666D01*
X149345295Y-112666666D02*
X149488152Y-112666666D01*
X149488152Y-112666666D02*
X149583390Y-112714285D01*
X149583390Y-112714285D02*
X149631009Y-112761904D01*
X149631009Y-112761904D02*
X149678628Y-112857142D01*
X149678628Y-112857142D02*
X149678628Y-113238094D01*
X150154819Y-111714285D02*
X150154819Y-112285713D01*
X150154819Y-111999999D02*
X149154819Y-111999999D01*
X149154819Y-111999999D02*
X149297676Y-112095237D01*
X149297676Y-112095237D02*
X149392914Y-112190475D01*
X149392914Y-112190475D02*
X149440533Y-112285713D01*
X173006819Y-91538094D02*
X173006819Y-90966666D01*
X174006819Y-91252380D02*
X173006819Y-91252380D01*
X174006819Y-90633332D02*
X173006819Y-90633332D01*
X173006819Y-90633332D02*
X173006819Y-90252380D01*
X173006819Y-90252380D02*
X173054438Y-90157142D01*
X173054438Y-90157142D02*
X173102057Y-90109523D01*
X173102057Y-90109523D02*
X173197295Y-90061904D01*
X173197295Y-90061904D02*
X173340152Y-90061904D01*
X173340152Y-90061904D02*
X173435390Y-90109523D01*
X173435390Y-90109523D02*
X173483009Y-90157142D01*
X173483009Y-90157142D02*
X173530628Y-90252380D01*
X173530628Y-90252380D02*
X173530628Y-90633332D01*
X174006819Y-89109523D02*
X174006819Y-89680951D01*
X174006819Y-89395237D02*
X173006819Y-89395237D01*
X173006819Y-89395237D02*
X173149676Y-89490475D01*
X173149676Y-89490475D02*
X173244914Y-89585713D01*
X173244914Y-89585713D02*
X173292533Y-89680951D01*
X173006819Y-88490475D02*
X173006819Y-88395237D01*
X173006819Y-88395237D02*
X173054438Y-88299999D01*
X173054438Y-88299999D02*
X173102057Y-88252380D01*
X173102057Y-88252380D02*
X173197295Y-88204761D01*
X173197295Y-88204761D02*
X173387771Y-88157142D01*
X173387771Y-88157142D02*
X173625866Y-88157142D01*
X173625866Y-88157142D02*
X173816342Y-88204761D01*
X173816342Y-88204761D02*
X173911580Y-88252380D01*
X173911580Y-88252380D02*
X173959200Y-88299999D01*
X173959200Y-88299999D02*
X174006819Y-88395237D01*
X174006819Y-88395237D02*
X174006819Y-88490475D01*
X174006819Y-88490475D02*
X173959200Y-88585713D01*
X173959200Y-88585713D02*
X173911580Y-88633332D01*
X173911580Y-88633332D02*
X173816342Y-88680951D01*
X173816342Y-88680951D02*
X173625866Y-88728570D01*
X173625866Y-88728570D02*
X173387771Y-88728570D01*
X173387771Y-88728570D02*
X173197295Y-88680951D01*
X173197295Y-88680951D02*
X173102057Y-88633332D01*
X173102057Y-88633332D02*
X173054438Y-88585713D01*
X173054438Y-88585713D02*
X173006819Y-88490475D01*
X177452438Y-90561904D02*
X177404819Y-90657142D01*
X177404819Y-90657142D02*
X177404819Y-90799999D01*
X177404819Y-90799999D02*
X177452438Y-90942856D01*
X177452438Y-90942856D02*
X177547676Y-91038094D01*
X177547676Y-91038094D02*
X177642914Y-91085713D01*
X177642914Y-91085713D02*
X177833390Y-91133332D01*
X177833390Y-91133332D02*
X177976247Y-91133332D01*
X177976247Y-91133332D02*
X178166723Y-91085713D01*
X178166723Y-91085713D02*
X178261961Y-91038094D01*
X178261961Y-91038094D02*
X178357200Y-90942856D01*
X178357200Y-90942856D02*
X178404819Y-90799999D01*
X178404819Y-90799999D02*
X178404819Y-90704761D01*
X178404819Y-90704761D02*
X178357200Y-90561904D01*
X178357200Y-90561904D02*
X178309580Y-90514285D01*
X178309580Y-90514285D02*
X177976247Y-90514285D01*
X177976247Y-90514285D02*
X177976247Y-90704761D01*
X178404819Y-90085713D02*
X177404819Y-90085713D01*
X177404819Y-90085713D02*
X178404819Y-89514285D01*
X178404819Y-89514285D02*
X177404819Y-89514285D01*
X178404819Y-89038094D02*
X177404819Y-89038094D01*
X177404819Y-89038094D02*
X177404819Y-88799999D01*
X177404819Y-88799999D02*
X177452438Y-88657142D01*
X177452438Y-88657142D02*
X177547676Y-88561904D01*
X177547676Y-88561904D02*
X177642914Y-88514285D01*
X177642914Y-88514285D02*
X177833390Y-88466666D01*
X177833390Y-88466666D02*
X177976247Y-88466666D01*
X177976247Y-88466666D02*
X178166723Y-88514285D01*
X178166723Y-88514285D02*
X178261961Y-88561904D01*
X178261961Y-88561904D02*
X178357200Y-88657142D01*
X178357200Y-88657142D02*
X178404819Y-88799999D01*
X178404819Y-88799999D02*
X178404819Y-89038094D01*
X184659580Y-110366666D02*
X184707200Y-110414285D01*
X184707200Y-110414285D02*
X184754819Y-110557142D01*
X184754819Y-110557142D02*
X184754819Y-110652380D01*
X184754819Y-110652380D02*
X184707200Y-110795237D01*
X184707200Y-110795237D02*
X184611961Y-110890475D01*
X184611961Y-110890475D02*
X184516723Y-110938094D01*
X184516723Y-110938094D02*
X184326247Y-110985713D01*
X184326247Y-110985713D02*
X184183390Y-110985713D01*
X184183390Y-110985713D02*
X183992914Y-110938094D01*
X183992914Y-110938094D02*
X183897676Y-110890475D01*
X183897676Y-110890475D02*
X183802438Y-110795237D01*
X183802438Y-110795237D02*
X183754819Y-110652380D01*
X183754819Y-110652380D02*
X183754819Y-110557142D01*
X183754819Y-110557142D02*
X183802438Y-110414285D01*
X183802438Y-110414285D02*
X183850057Y-110366666D01*
X183754819Y-109461904D02*
X183754819Y-109938094D01*
X183754819Y-109938094D02*
X184231009Y-109985713D01*
X184231009Y-109985713D02*
X184183390Y-109938094D01*
X184183390Y-109938094D02*
X184135771Y-109842856D01*
X184135771Y-109842856D02*
X184135771Y-109604761D01*
X184135771Y-109604761D02*
X184183390Y-109509523D01*
X184183390Y-109509523D02*
X184231009Y-109461904D01*
X184231009Y-109461904D02*
X184326247Y-109414285D01*
X184326247Y-109414285D02*
X184564342Y-109414285D01*
X184564342Y-109414285D02*
X184659580Y-109461904D01*
X184659580Y-109461904D02*
X184707200Y-109509523D01*
X184707200Y-109509523D02*
X184754819Y-109604761D01*
X184754819Y-109604761D02*
X184754819Y-109842856D01*
X184754819Y-109842856D02*
X184707200Y-109938094D01*
X184707200Y-109938094D02*
X184659580Y-109985713D01*
X143788095Y-121906819D02*
X144359523Y-121906819D01*
X144073809Y-122906819D02*
X144073809Y-121906819D01*
X144692857Y-122906819D02*
X144692857Y-121906819D01*
X144692857Y-121906819D02*
X145073809Y-121906819D01*
X145073809Y-121906819D02*
X145169047Y-121954438D01*
X145169047Y-121954438D02*
X145216666Y-122002057D01*
X145216666Y-122002057D02*
X145264285Y-122097295D01*
X145264285Y-122097295D02*
X145264285Y-122240152D01*
X145264285Y-122240152D02*
X145216666Y-122335390D01*
X145216666Y-122335390D02*
X145169047Y-122383009D01*
X145169047Y-122383009D02*
X145073809Y-122430628D01*
X145073809Y-122430628D02*
X144692857Y-122430628D01*
X146216666Y-122906819D02*
X145645238Y-122906819D01*
X145930952Y-122906819D02*
X145930952Y-121906819D01*
X145930952Y-121906819D02*
X145835714Y-122049676D01*
X145835714Y-122049676D02*
X145740476Y-122144914D01*
X145740476Y-122144914D02*
X145645238Y-122192533D01*
X143978571Y-126781009D02*
X144121428Y-126828628D01*
X144121428Y-126828628D02*
X144169047Y-126876247D01*
X144169047Y-126876247D02*
X144216666Y-126971485D01*
X144216666Y-126971485D02*
X144216666Y-127114342D01*
X144216666Y-127114342D02*
X144169047Y-127209580D01*
X144169047Y-127209580D02*
X144121428Y-127257200D01*
X144121428Y-127257200D02*
X144026190Y-127304819D01*
X144026190Y-127304819D02*
X143645238Y-127304819D01*
X143645238Y-127304819D02*
X143645238Y-126304819D01*
X143645238Y-126304819D02*
X143978571Y-126304819D01*
X143978571Y-126304819D02*
X144073809Y-126352438D01*
X144073809Y-126352438D02*
X144121428Y-126400057D01*
X144121428Y-126400057D02*
X144169047Y-126495295D01*
X144169047Y-126495295D02*
X144169047Y-126590533D01*
X144169047Y-126590533D02*
X144121428Y-126685771D01*
X144121428Y-126685771D02*
X144073809Y-126733390D01*
X144073809Y-126733390D02*
X143978571Y-126781009D01*
X143978571Y-126781009D02*
X143645238Y-126781009D01*
X144645238Y-127304819D02*
X144645238Y-126304819D01*
X145073809Y-127019104D02*
X145549999Y-127019104D01*
X144978571Y-127304819D02*
X145311904Y-126304819D01*
X145311904Y-126304819D02*
X145645237Y-127304819D01*
X145930952Y-127257200D02*
X146073809Y-127304819D01*
X146073809Y-127304819D02*
X146311904Y-127304819D01*
X146311904Y-127304819D02*
X146407142Y-127257200D01*
X146407142Y-127257200D02*
X146454761Y-127209580D01*
X146454761Y-127209580D02*
X146502380Y-127114342D01*
X146502380Y-127114342D02*
X146502380Y-127019104D01*
X146502380Y-127019104D02*
X146454761Y-126923866D01*
X146454761Y-126923866D02*
X146407142Y-126876247D01*
X146407142Y-126876247D02*
X146311904Y-126828628D01*
X146311904Y-126828628D02*
X146121428Y-126781009D01*
X146121428Y-126781009D02*
X146026190Y-126733390D01*
X146026190Y-126733390D02*
X145978571Y-126685771D01*
X145978571Y-126685771D02*
X145930952Y-126590533D01*
X145930952Y-126590533D02*
X145930952Y-126495295D01*
X145930952Y-126495295D02*
X145978571Y-126400057D01*
X145978571Y-126400057D02*
X146026190Y-126352438D01*
X146026190Y-126352438D02*
X146121428Y-126304819D01*
X146121428Y-126304819D02*
X146359523Y-126304819D01*
X146359523Y-126304819D02*
X146502380Y-126352438D01*
X115184819Y-104266666D02*
X114708628Y-104599999D01*
X115184819Y-104838094D02*
X114184819Y-104838094D01*
X114184819Y-104838094D02*
X114184819Y-104457142D01*
X114184819Y-104457142D02*
X114232438Y-104361904D01*
X114232438Y-104361904D02*
X114280057Y-104314285D01*
X114280057Y-104314285D02*
X114375295Y-104266666D01*
X114375295Y-104266666D02*
X114518152Y-104266666D01*
X114518152Y-104266666D02*
X114613390Y-104314285D01*
X114613390Y-104314285D02*
X114661009Y-104361904D01*
X114661009Y-104361904D02*
X114708628Y-104457142D01*
X114708628Y-104457142D02*
X114708628Y-104838094D01*
X114184819Y-103933332D02*
X114184819Y-103266666D01*
X114184819Y-103266666D02*
X115184819Y-103695237D01*
X131759580Y-85466666D02*
X131807200Y-85514285D01*
X131807200Y-85514285D02*
X131854819Y-85657142D01*
X131854819Y-85657142D02*
X131854819Y-85752380D01*
X131854819Y-85752380D02*
X131807200Y-85895237D01*
X131807200Y-85895237D02*
X131711961Y-85990475D01*
X131711961Y-85990475D02*
X131616723Y-86038094D01*
X131616723Y-86038094D02*
X131426247Y-86085713D01*
X131426247Y-86085713D02*
X131283390Y-86085713D01*
X131283390Y-86085713D02*
X131092914Y-86038094D01*
X131092914Y-86038094D02*
X130997676Y-85990475D01*
X130997676Y-85990475D02*
X130902438Y-85895237D01*
X130902438Y-85895237D02*
X130854819Y-85752380D01*
X130854819Y-85752380D02*
X130854819Y-85657142D01*
X130854819Y-85657142D02*
X130902438Y-85514285D01*
X130902438Y-85514285D02*
X130950057Y-85466666D01*
X130854819Y-85133332D02*
X130854819Y-84466666D01*
X130854819Y-84466666D02*
X131854819Y-84895237D01*
X159304819Y-102366666D02*
X158828628Y-102699999D01*
X159304819Y-102938094D02*
X158304819Y-102938094D01*
X158304819Y-102938094D02*
X158304819Y-102557142D01*
X158304819Y-102557142D02*
X158352438Y-102461904D01*
X158352438Y-102461904D02*
X158400057Y-102414285D01*
X158400057Y-102414285D02*
X158495295Y-102366666D01*
X158495295Y-102366666D02*
X158638152Y-102366666D01*
X158638152Y-102366666D02*
X158733390Y-102414285D01*
X158733390Y-102414285D02*
X158781009Y-102461904D01*
X158781009Y-102461904D02*
X158828628Y-102557142D01*
X158828628Y-102557142D02*
X158828628Y-102938094D01*
X158638152Y-101509523D02*
X159304819Y-101509523D01*
X158257200Y-101747618D02*
X158971485Y-101985713D01*
X158971485Y-101985713D02*
X158971485Y-101366666D01*
X155733333Y-122754819D02*
X155257143Y-122754819D01*
X155257143Y-122754819D02*
X155257143Y-121754819D01*
X156019048Y-121850057D02*
X156066667Y-121802438D01*
X156066667Y-121802438D02*
X156161905Y-121754819D01*
X156161905Y-121754819D02*
X156400000Y-121754819D01*
X156400000Y-121754819D02*
X156495238Y-121802438D01*
X156495238Y-121802438D02*
X156542857Y-121850057D01*
X156542857Y-121850057D02*
X156590476Y-121945295D01*
X156590476Y-121945295D02*
X156590476Y-122040533D01*
X156590476Y-122040533D02*
X156542857Y-122183390D01*
X156542857Y-122183390D02*
X155971429Y-122754819D01*
X155971429Y-122754819D02*
X156590476Y-122754819D01*
X139088095Y-121906819D02*
X139659523Y-121906819D01*
X139373809Y-122906819D02*
X139373809Y-121906819D01*
X139992857Y-122906819D02*
X139992857Y-121906819D01*
X139992857Y-121906819D02*
X140373809Y-121906819D01*
X140373809Y-121906819D02*
X140469047Y-121954438D01*
X140469047Y-121954438D02*
X140516666Y-122002057D01*
X140516666Y-122002057D02*
X140564285Y-122097295D01*
X140564285Y-122097295D02*
X140564285Y-122240152D01*
X140564285Y-122240152D02*
X140516666Y-122335390D01*
X140516666Y-122335390D02*
X140469047Y-122383009D01*
X140469047Y-122383009D02*
X140373809Y-122430628D01*
X140373809Y-122430628D02*
X139992857Y-122430628D01*
X140945238Y-122002057D02*
X140992857Y-121954438D01*
X140992857Y-121954438D02*
X141088095Y-121906819D01*
X141088095Y-121906819D02*
X141326190Y-121906819D01*
X141326190Y-121906819D02*
X141421428Y-121954438D01*
X141421428Y-121954438D02*
X141469047Y-122002057D01*
X141469047Y-122002057D02*
X141516666Y-122097295D01*
X141516666Y-122097295D02*
X141516666Y-122192533D01*
X141516666Y-122192533D02*
X141469047Y-122335390D01*
X141469047Y-122335390D02*
X140897619Y-122906819D01*
X140897619Y-122906819D02*
X141516666Y-122906819D01*
X138159524Y-127304819D02*
X138159524Y-126304819D01*
X138635714Y-127304819D02*
X138635714Y-126304819D01*
X138635714Y-126304819D02*
X139207142Y-127304819D01*
X139207142Y-127304819D02*
X139207142Y-126304819D01*
X139540476Y-126304819D02*
X140111904Y-126304819D01*
X139826190Y-127304819D02*
X139826190Y-126304819D01*
X140302381Y-126304819D02*
X140635714Y-127304819D01*
X140635714Y-127304819D02*
X140969047Y-126304819D01*
X141730952Y-127257200D02*
X141635714Y-127304819D01*
X141635714Y-127304819D02*
X141445238Y-127304819D01*
X141445238Y-127304819D02*
X141350000Y-127257200D01*
X141350000Y-127257200D02*
X141302381Y-127209580D01*
X141302381Y-127209580D02*
X141254762Y-127114342D01*
X141254762Y-127114342D02*
X141254762Y-126828628D01*
X141254762Y-126828628D02*
X141302381Y-126733390D01*
X141302381Y-126733390D02*
X141350000Y-126685771D01*
X141350000Y-126685771D02*
X141445238Y-126638152D01*
X141445238Y-126638152D02*
X141635714Y-126638152D01*
X141635714Y-126638152D02*
X141730952Y-126685771D01*
X142588095Y-127257200D02*
X142492857Y-127304819D01*
X142492857Y-127304819D02*
X142302381Y-127304819D01*
X142302381Y-127304819D02*
X142207143Y-127257200D01*
X142207143Y-127257200D02*
X142159524Y-127209580D01*
X142159524Y-127209580D02*
X142111905Y-127114342D01*
X142111905Y-127114342D02*
X142111905Y-126828628D01*
X142111905Y-126828628D02*
X142159524Y-126733390D01*
X142159524Y-126733390D02*
X142207143Y-126685771D01*
X142207143Y-126685771D02*
X142302381Y-126638152D01*
X142302381Y-126638152D02*
X142492857Y-126638152D01*
X142492857Y-126638152D02*
X142588095Y-126685771D01*
X135169642Y-109759580D02*
X135122023Y-109807200D01*
X135122023Y-109807200D02*
X134979166Y-109854819D01*
X134979166Y-109854819D02*
X134883928Y-109854819D01*
X134883928Y-109854819D02*
X134741071Y-109807200D01*
X134741071Y-109807200D02*
X134645833Y-109711961D01*
X134645833Y-109711961D02*
X134598214Y-109616723D01*
X134598214Y-109616723D02*
X134550595Y-109426247D01*
X134550595Y-109426247D02*
X134550595Y-109283390D01*
X134550595Y-109283390D02*
X134598214Y-109092914D01*
X134598214Y-109092914D02*
X134645833Y-108997676D01*
X134645833Y-108997676D02*
X134741071Y-108902438D01*
X134741071Y-108902438D02*
X134883928Y-108854819D01*
X134883928Y-108854819D02*
X134979166Y-108854819D01*
X134979166Y-108854819D02*
X135122023Y-108902438D01*
X135122023Y-108902438D02*
X135169642Y-108950057D01*
X136122023Y-109854819D02*
X135550595Y-109854819D01*
X135836309Y-109854819D02*
X135836309Y-108854819D01*
X135836309Y-108854819D02*
X135741071Y-108997676D01*
X135741071Y-108997676D02*
X135645833Y-109092914D01*
X135645833Y-109092914D02*
X135550595Y-109140533D01*
X136502976Y-108950057D02*
X136550595Y-108902438D01*
X136550595Y-108902438D02*
X136645833Y-108854819D01*
X136645833Y-108854819D02*
X136883928Y-108854819D01*
X136883928Y-108854819D02*
X136979166Y-108902438D01*
X136979166Y-108902438D02*
X137026785Y-108950057D01*
X137026785Y-108950057D02*
X137074404Y-109045295D01*
X137074404Y-109045295D02*
X137074404Y-109140533D01*
X137074404Y-109140533D02*
X137026785Y-109283390D01*
X137026785Y-109283390D02*
X136455357Y-109854819D01*
X136455357Y-109854819D02*
X137074404Y-109854819D01*
X114157142Y-93154819D02*
X113823809Y-92678628D01*
X113585714Y-93154819D02*
X113585714Y-92154819D01*
X113585714Y-92154819D02*
X113966666Y-92154819D01*
X113966666Y-92154819D02*
X114061904Y-92202438D01*
X114061904Y-92202438D02*
X114109523Y-92250057D01*
X114109523Y-92250057D02*
X114157142Y-92345295D01*
X114157142Y-92345295D02*
X114157142Y-92488152D01*
X114157142Y-92488152D02*
X114109523Y-92583390D01*
X114109523Y-92583390D02*
X114061904Y-92631009D01*
X114061904Y-92631009D02*
X113966666Y-92678628D01*
X113966666Y-92678628D02*
X113585714Y-92678628D01*
X115109523Y-93154819D02*
X114538095Y-93154819D01*
X114823809Y-93154819D02*
X114823809Y-92154819D01*
X114823809Y-92154819D02*
X114728571Y-92297676D01*
X114728571Y-92297676D02*
X114633333Y-92392914D01*
X114633333Y-92392914D02*
X114538095Y-92440533D01*
X115728571Y-92154819D02*
X115823809Y-92154819D01*
X115823809Y-92154819D02*
X115919047Y-92202438D01*
X115919047Y-92202438D02*
X115966666Y-92250057D01*
X115966666Y-92250057D02*
X116014285Y-92345295D01*
X116014285Y-92345295D02*
X116061904Y-92535771D01*
X116061904Y-92535771D02*
X116061904Y-92773866D01*
X116061904Y-92773866D02*
X116014285Y-92964342D01*
X116014285Y-92964342D02*
X115966666Y-93059580D01*
X115966666Y-93059580D02*
X115919047Y-93107200D01*
X115919047Y-93107200D02*
X115823809Y-93154819D01*
X115823809Y-93154819D02*
X115728571Y-93154819D01*
X115728571Y-93154819D02*
X115633333Y-93107200D01*
X115633333Y-93107200D02*
X115585714Y-93059580D01*
X115585714Y-93059580D02*
X115538095Y-92964342D01*
X115538095Y-92964342D02*
X115490476Y-92773866D01*
X115490476Y-92773866D02*
X115490476Y-92535771D01*
X115490476Y-92535771D02*
X115538095Y-92345295D01*
X115538095Y-92345295D02*
X115585714Y-92250057D01*
X115585714Y-92250057D02*
X115633333Y-92202438D01*
X115633333Y-92202438D02*
X115728571Y-92154819D01*
X112004819Y-135861904D02*
X111004819Y-135861904D01*
X111481009Y-135861904D02*
X111481009Y-135290476D01*
X112004819Y-135290476D02*
X111004819Y-135290476D01*
X111338152Y-134385714D02*
X112004819Y-134385714D01*
X110957200Y-134623809D02*
X111671485Y-134861904D01*
X111671485Y-134861904D02*
X111671485Y-134242857D01*
X170404819Y-104295238D02*
X169928628Y-104628571D01*
X170404819Y-104866666D02*
X169404819Y-104866666D01*
X169404819Y-104866666D02*
X169404819Y-104485714D01*
X169404819Y-104485714D02*
X169452438Y-104390476D01*
X169452438Y-104390476D02*
X169500057Y-104342857D01*
X169500057Y-104342857D02*
X169595295Y-104295238D01*
X169595295Y-104295238D02*
X169738152Y-104295238D01*
X169738152Y-104295238D02*
X169833390Y-104342857D01*
X169833390Y-104342857D02*
X169881009Y-104390476D01*
X169881009Y-104390476D02*
X169928628Y-104485714D01*
X169928628Y-104485714D02*
X169928628Y-104866666D01*
X169404819Y-104009523D02*
X170404819Y-103676190D01*
X170404819Y-103676190D02*
X169404819Y-103342857D01*
X170404819Y-102485714D02*
X170404819Y-103057142D01*
X170404819Y-102771428D02*
X169404819Y-102771428D01*
X169404819Y-102771428D02*
X169547676Y-102866666D01*
X169547676Y-102866666D02*
X169642914Y-102961904D01*
X169642914Y-102961904D02*
X169690533Y-103057142D01*
X148054819Y-108361904D02*
X148864342Y-108361904D01*
X148864342Y-108361904D02*
X148959580Y-108314285D01*
X148959580Y-108314285D02*
X149007200Y-108266666D01*
X149007200Y-108266666D02*
X149054819Y-108171428D01*
X149054819Y-108171428D02*
X149054819Y-107980952D01*
X149054819Y-107980952D02*
X149007200Y-107885714D01*
X149007200Y-107885714D02*
X148959580Y-107838095D01*
X148959580Y-107838095D02*
X148864342Y-107790476D01*
X148864342Y-107790476D02*
X148054819Y-107790476D01*
X149054819Y-106790476D02*
X149054819Y-107361904D01*
X149054819Y-107076190D02*
X148054819Y-107076190D01*
X148054819Y-107076190D02*
X148197676Y-107171428D01*
X148197676Y-107171428D02*
X148292914Y-107266666D01*
X148292914Y-107266666D02*
X148340533Y-107361904D01*
X142054819Y-110399999D02*
X142292914Y-110399999D01*
X142197676Y-110638094D02*
X142292914Y-110399999D01*
X142292914Y-110399999D02*
X142197676Y-110161904D01*
X142483390Y-110542856D02*
X142292914Y-110399999D01*
X142292914Y-110399999D02*
X142483390Y-110257142D01*
X113556819Y-128161904D02*
X113556819Y-127590476D01*
X114556819Y-127876190D02*
X113556819Y-127876190D01*
X114556819Y-127257142D02*
X113556819Y-127257142D01*
X113556819Y-127257142D02*
X113556819Y-126876190D01*
X113556819Y-126876190D02*
X113604438Y-126780952D01*
X113604438Y-126780952D02*
X113652057Y-126733333D01*
X113652057Y-126733333D02*
X113747295Y-126685714D01*
X113747295Y-126685714D02*
X113890152Y-126685714D01*
X113890152Y-126685714D02*
X113985390Y-126733333D01*
X113985390Y-126733333D02*
X114033009Y-126780952D01*
X114033009Y-126780952D02*
X114080628Y-126876190D01*
X114080628Y-126876190D02*
X114080628Y-127257142D01*
X113985390Y-126114285D02*
X113937771Y-126209523D01*
X113937771Y-126209523D02*
X113890152Y-126257142D01*
X113890152Y-126257142D02*
X113794914Y-126304761D01*
X113794914Y-126304761D02*
X113747295Y-126304761D01*
X113747295Y-126304761D02*
X113652057Y-126257142D01*
X113652057Y-126257142D02*
X113604438Y-126209523D01*
X113604438Y-126209523D02*
X113556819Y-126114285D01*
X113556819Y-126114285D02*
X113556819Y-125923809D01*
X113556819Y-125923809D02*
X113604438Y-125828571D01*
X113604438Y-125828571D02*
X113652057Y-125780952D01*
X113652057Y-125780952D02*
X113747295Y-125733333D01*
X113747295Y-125733333D02*
X113794914Y-125733333D01*
X113794914Y-125733333D02*
X113890152Y-125780952D01*
X113890152Y-125780952D02*
X113937771Y-125828571D01*
X113937771Y-125828571D02*
X113985390Y-125923809D01*
X113985390Y-125923809D02*
X113985390Y-126114285D01*
X113985390Y-126114285D02*
X114033009Y-126209523D01*
X114033009Y-126209523D02*
X114080628Y-126257142D01*
X114080628Y-126257142D02*
X114175866Y-126304761D01*
X114175866Y-126304761D02*
X114366342Y-126304761D01*
X114366342Y-126304761D02*
X114461580Y-126257142D01*
X114461580Y-126257142D02*
X114509200Y-126209523D01*
X114509200Y-126209523D02*
X114556819Y-126114285D01*
X114556819Y-126114285D02*
X114556819Y-125923809D01*
X114556819Y-125923809D02*
X114509200Y-125828571D01*
X114509200Y-125828571D02*
X114461580Y-125780952D01*
X114461580Y-125780952D02*
X114366342Y-125733333D01*
X114366342Y-125733333D02*
X114175866Y-125733333D01*
X114175866Y-125733333D02*
X114080628Y-125780952D01*
X114080628Y-125780952D02*
X114033009Y-125828571D01*
X114033009Y-125828571D02*
X113985390Y-125923809D01*
X117954819Y-127923808D02*
X118954819Y-127590475D01*
X118954819Y-127590475D02*
X117954819Y-127257142D01*
X118954819Y-126923808D02*
X118288152Y-126923808D01*
X117954819Y-126923808D02*
X118002438Y-126971427D01*
X118002438Y-126971427D02*
X118050057Y-126923808D01*
X118050057Y-126923808D02*
X118002438Y-126876189D01*
X118002438Y-126876189D02*
X117954819Y-126923808D01*
X117954819Y-126923808D02*
X118050057Y-126923808D01*
X118288152Y-126447618D02*
X118954819Y-126447618D01*
X118383390Y-126447618D02*
X118335771Y-126399999D01*
X118335771Y-126399999D02*
X118288152Y-126304761D01*
X118288152Y-126304761D02*
X118288152Y-126161904D01*
X118288152Y-126161904D02*
X118335771Y-126066666D01*
X118335771Y-126066666D02*
X118431009Y-126019047D01*
X118431009Y-126019047D02*
X118954819Y-126019047D01*
X136133333Y-107659580D02*
X136085714Y-107707200D01*
X136085714Y-107707200D02*
X135942857Y-107754819D01*
X135942857Y-107754819D02*
X135847619Y-107754819D01*
X135847619Y-107754819D02*
X135704762Y-107707200D01*
X135704762Y-107707200D02*
X135609524Y-107611961D01*
X135609524Y-107611961D02*
X135561905Y-107516723D01*
X135561905Y-107516723D02*
X135514286Y-107326247D01*
X135514286Y-107326247D02*
X135514286Y-107183390D01*
X135514286Y-107183390D02*
X135561905Y-106992914D01*
X135561905Y-106992914D02*
X135609524Y-106897676D01*
X135609524Y-106897676D02*
X135704762Y-106802438D01*
X135704762Y-106802438D02*
X135847619Y-106754819D01*
X135847619Y-106754819D02*
X135942857Y-106754819D01*
X135942857Y-106754819D02*
X136085714Y-106802438D01*
X136085714Y-106802438D02*
X136133333Y-106850057D01*
X136990476Y-107088152D02*
X136990476Y-107754819D01*
X136752381Y-106707200D02*
X136514286Y-107421485D01*
X136514286Y-107421485D02*
X137133333Y-107421485D01*
X113124819Y-110366666D02*
X112648628Y-110699999D01*
X113124819Y-110938094D02*
X112124819Y-110938094D01*
X112124819Y-110938094D02*
X112124819Y-110557142D01*
X112124819Y-110557142D02*
X112172438Y-110461904D01*
X112172438Y-110461904D02*
X112220057Y-110414285D01*
X112220057Y-110414285D02*
X112315295Y-110366666D01*
X112315295Y-110366666D02*
X112458152Y-110366666D01*
X112458152Y-110366666D02*
X112553390Y-110414285D01*
X112553390Y-110414285D02*
X112601009Y-110461904D01*
X112601009Y-110461904D02*
X112648628Y-110557142D01*
X112648628Y-110557142D02*
X112648628Y-110938094D01*
X112553390Y-109795237D02*
X112505771Y-109890475D01*
X112505771Y-109890475D02*
X112458152Y-109938094D01*
X112458152Y-109938094D02*
X112362914Y-109985713D01*
X112362914Y-109985713D02*
X112315295Y-109985713D01*
X112315295Y-109985713D02*
X112220057Y-109938094D01*
X112220057Y-109938094D02*
X112172438Y-109890475D01*
X112172438Y-109890475D02*
X112124819Y-109795237D01*
X112124819Y-109795237D02*
X112124819Y-109604761D01*
X112124819Y-109604761D02*
X112172438Y-109509523D01*
X112172438Y-109509523D02*
X112220057Y-109461904D01*
X112220057Y-109461904D02*
X112315295Y-109414285D01*
X112315295Y-109414285D02*
X112362914Y-109414285D01*
X112362914Y-109414285D02*
X112458152Y-109461904D01*
X112458152Y-109461904D02*
X112505771Y-109509523D01*
X112505771Y-109509523D02*
X112553390Y-109604761D01*
X112553390Y-109604761D02*
X112553390Y-109795237D01*
X112553390Y-109795237D02*
X112601009Y-109890475D01*
X112601009Y-109890475D02*
X112648628Y-109938094D01*
X112648628Y-109938094D02*
X112743866Y-109985713D01*
X112743866Y-109985713D02*
X112934342Y-109985713D01*
X112934342Y-109985713D02*
X113029580Y-109938094D01*
X113029580Y-109938094D02*
X113077200Y-109890475D01*
X113077200Y-109890475D02*
X113124819Y-109795237D01*
X113124819Y-109795237D02*
X113124819Y-109604761D01*
X113124819Y-109604761D02*
X113077200Y-109509523D01*
X113077200Y-109509523D02*
X113029580Y-109461904D01*
X113029580Y-109461904D02*
X112934342Y-109414285D01*
X112934342Y-109414285D02*
X112743866Y-109414285D01*
X112743866Y-109414285D02*
X112648628Y-109461904D01*
X112648628Y-109461904D02*
X112601009Y-109509523D01*
X112601009Y-109509523D02*
X112553390Y-109604761D01*
X161652819Y-95981904D02*
X161652819Y-95410476D01*
X162652819Y-95696190D02*
X161652819Y-95696190D01*
X162652819Y-95077142D02*
X161652819Y-95077142D01*
X161652819Y-95077142D02*
X161652819Y-94696190D01*
X161652819Y-94696190D02*
X161700438Y-94600952D01*
X161700438Y-94600952D02*
X161748057Y-94553333D01*
X161748057Y-94553333D02*
X161843295Y-94505714D01*
X161843295Y-94505714D02*
X161986152Y-94505714D01*
X161986152Y-94505714D02*
X162081390Y-94553333D01*
X162081390Y-94553333D02*
X162129009Y-94600952D01*
X162129009Y-94600952D02*
X162176628Y-94696190D01*
X162176628Y-94696190D02*
X162176628Y-95077142D01*
X161652819Y-93600952D02*
X161652819Y-94077142D01*
X161652819Y-94077142D02*
X162129009Y-94124761D01*
X162129009Y-94124761D02*
X162081390Y-94077142D01*
X162081390Y-94077142D02*
X162033771Y-93981904D01*
X162033771Y-93981904D02*
X162033771Y-93743809D01*
X162033771Y-93743809D02*
X162081390Y-93648571D01*
X162081390Y-93648571D02*
X162129009Y-93600952D01*
X162129009Y-93600952D02*
X162224247Y-93553333D01*
X162224247Y-93553333D02*
X162462342Y-93553333D01*
X162462342Y-93553333D02*
X162557580Y-93600952D01*
X162557580Y-93600952D02*
X162605200Y-93648571D01*
X162605200Y-93648571D02*
X162652819Y-93743809D01*
X162652819Y-93743809D02*
X162652819Y-93981904D01*
X162652819Y-93981904D02*
X162605200Y-94077142D01*
X162605200Y-94077142D02*
X162557580Y-94124761D01*
X157907200Y-98696190D02*
X157954819Y-98553333D01*
X157954819Y-98553333D02*
X157954819Y-98315238D01*
X157954819Y-98315238D02*
X157907200Y-98220000D01*
X157907200Y-98220000D02*
X157859580Y-98172381D01*
X157859580Y-98172381D02*
X157764342Y-98124762D01*
X157764342Y-98124762D02*
X157669104Y-98124762D01*
X157669104Y-98124762D02*
X157573866Y-98172381D01*
X157573866Y-98172381D02*
X157526247Y-98220000D01*
X157526247Y-98220000D02*
X157478628Y-98315238D01*
X157478628Y-98315238D02*
X157431009Y-98505714D01*
X157431009Y-98505714D02*
X157383390Y-98600952D01*
X157383390Y-98600952D02*
X157335771Y-98648571D01*
X157335771Y-98648571D02*
X157240533Y-98696190D01*
X157240533Y-98696190D02*
X157145295Y-98696190D01*
X157145295Y-98696190D02*
X157050057Y-98648571D01*
X157050057Y-98648571D02*
X157002438Y-98600952D01*
X157002438Y-98600952D02*
X156954819Y-98505714D01*
X156954819Y-98505714D02*
X156954819Y-98267619D01*
X156954819Y-98267619D02*
X157002438Y-98124762D01*
X157288152Y-97791428D02*
X157954819Y-97553333D01*
X157288152Y-97315238D02*
X157954819Y-97553333D01*
X157954819Y-97553333D02*
X158192914Y-97648571D01*
X158192914Y-97648571D02*
X158240533Y-97696190D01*
X158240533Y-97696190D02*
X158288152Y-97791428D01*
X157288152Y-96934285D02*
X157954819Y-96934285D01*
X157383390Y-96934285D02*
X157335771Y-96886666D01*
X157335771Y-96886666D02*
X157288152Y-96791428D01*
X157288152Y-96791428D02*
X157288152Y-96648571D01*
X157288152Y-96648571D02*
X157335771Y-96553333D01*
X157335771Y-96553333D02*
X157431009Y-96505714D01*
X157431009Y-96505714D02*
X157954819Y-96505714D01*
X157907200Y-95600952D02*
X157954819Y-95696190D01*
X157954819Y-95696190D02*
X157954819Y-95886666D01*
X157954819Y-95886666D02*
X157907200Y-95981904D01*
X157907200Y-95981904D02*
X157859580Y-96029523D01*
X157859580Y-96029523D02*
X157764342Y-96077142D01*
X157764342Y-96077142D02*
X157478628Y-96077142D01*
X157478628Y-96077142D02*
X157383390Y-96029523D01*
X157383390Y-96029523D02*
X157335771Y-95981904D01*
X157335771Y-95981904D02*
X157288152Y-95886666D01*
X157288152Y-95886666D02*
X157288152Y-95696190D01*
X157288152Y-95696190D02*
X157335771Y-95600952D01*
X156907200Y-94458095D02*
X158192914Y-95315237D01*
X157954819Y-94124761D02*
X156954819Y-94124761D01*
X156954819Y-94124761D02*
X157669104Y-93791428D01*
X157669104Y-93791428D02*
X156954819Y-93458095D01*
X156954819Y-93458095D02*
X157954819Y-93458095D01*
X157954819Y-92839047D02*
X157907200Y-92934285D01*
X157907200Y-92934285D02*
X157859580Y-92981904D01*
X157859580Y-92981904D02*
X157764342Y-93029523D01*
X157764342Y-93029523D02*
X157478628Y-93029523D01*
X157478628Y-93029523D02*
X157383390Y-92981904D01*
X157383390Y-92981904D02*
X157335771Y-92934285D01*
X157335771Y-92934285D02*
X157288152Y-92839047D01*
X157288152Y-92839047D02*
X157288152Y-92696190D01*
X157288152Y-92696190D02*
X157335771Y-92600952D01*
X157335771Y-92600952D02*
X157383390Y-92553333D01*
X157383390Y-92553333D02*
X157478628Y-92505714D01*
X157478628Y-92505714D02*
X157764342Y-92505714D01*
X157764342Y-92505714D02*
X157859580Y-92553333D01*
X157859580Y-92553333D02*
X157907200Y-92600952D01*
X157907200Y-92600952D02*
X157954819Y-92696190D01*
X157954819Y-92696190D02*
X157954819Y-92839047D01*
X157954819Y-91648571D02*
X156954819Y-91648571D01*
X157907200Y-91648571D02*
X157954819Y-91743809D01*
X157954819Y-91743809D02*
X157954819Y-91934285D01*
X157954819Y-91934285D02*
X157907200Y-92029523D01*
X157907200Y-92029523D02*
X157859580Y-92077142D01*
X157859580Y-92077142D02*
X157764342Y-92124761D01*
X157764342Y-92124761D02*
X157478628Y-92124761D01*
X157478628Y-92124761D02*
X157383390Y-92077142D01*
X157383390Y-92077142D02*
X157335771Y-92029523D01*
X157335771Y-92029523D02*
X157288152Y-91934285D01*
X157288152Y-91934285D02*
X157288152Y-91743809D01*
X157288152Y-91743809D02*
X157335771Y-91648571D01*
X157907200Y-90791428D02*
X157954819Y-90886666D01*
X157954819Y-90886666D02*
X157954819Y-91077142D01*
X157954819Y-91077142D02*
X157907200Y-91172380D01*
X157907200Y-91172380D02*
X157811961Y-91219999D01*
X157811961Y-91219999D02*
X157431009Y-91219999D01*
X157431009Y-91219999D02*
X157335771Y-91172380D01*
X157335771Y-91172380D02*
X157288152Y-91077142D01*
X157288152Y-91077142D02*
X157288152Y-90886666D01*
X157288152Y-90886666D02*
X157335771Y-90791428D01*
X157335771Y-90791428D02*
X157431009Y-90743809D01*
X157431009Y-90743809D02*
X157526247Y-90743809D01*
X157526247Y-90743809D02*
X157621485Y-91219999D01*
X113642319Y-97849404D02*
X114451842Y-97849404D01*
X114451842Y-97849404D02*
X114547080Y-97801785D01*
X114547080Y-97801785D02*
X114594700Y-97754166D01*
X114594700Y-97754166D02*
X114642319Y-97658928D01*
X114642319Y-97658928D02*
X114642319Y-97468452D01*
X114642319Y-97468452D02*
X114594700Y-97373214D01*
X114594700Y-97373214D02*
X114547080Y-97325595D01*
X114547080Y-97325595D02*
X114451842Y-97277976D01*
X114451842Y-97277976D02*
X113642319Y-97277976D01*
X113737557Y-96849404D02*
X113689938Y-96801785D01*
X113689938Y-96801785D02*
X113642319Y-96706547D01*
X113642319Y-96706547D02*
X113642319Y-96468452D01*
X113642319Y-96468452D02*
X113689938Y-96373214D01*
X113689938Y-96373214D02*
X113737557Y-96325595D01*
X113737557Y-96325595D02*
X113832795Y-96277976D01*
X113832795Y-96277976D02*
X113928033Y-96277976D01*
X113928033Y-96277976D02*
X114070890Y-96325595D01*
X114070890Y-96325595D02*
X114642319Y-96897023D01*
X114642319Y-96897023D02*
X114642319Y-96277976D01*
X148183333Y-116559580D02*
X148135714Y-116607200D01*
X148135714Y-116607200D02*
X147992857Y-116654819D01*
X147992857Y-116654819D02*
X147897619Y-116654819D01*
X147897619Y-116654819D02*
X147754762Y-116607200D01*
X147754762Y-116607200D02*
X147659524Y-116511961D01*
X147659524Y-116511961D02*
X147611905Y-116416723D01*
X147611905Y-116416723D02*
X147564286Y-116226247D01*
X147564286Y-116226247D02*
X147564286Y-116083390D01*
X147564286Y-116083390D02*
X147611905Y-115892914D01*
X147611905Y-115892914D02*
X147659524Y-115797676D01*
X147659524Y-115797676D02*
X147754762Y-115702438D01*
X147754762Y-115702438D02*
X147897619Y-115654819D01*
X147897619Y-115654819D02*
X147992857Y-115654819D01*
X147992857Y-115654819D02*
X148135714Y-115702438D01*
X148135714Y-115702438D02*
X148183333Y-115750057D01*
X149135714Y-116654819D02*
X148564286Y-116654819D01*
X148850000Y-116654819D02*
X148850000Y-115654819D01*
X148850000Y-115654819D02*
X148754762Y-115797676D01*
X148754762Y-115797676D02*
X148659524Y-115892914D01*
X148659524Y-115892914D02*
X148564286Y-115940533D01*
X121538095Y-111306819D02*
X122109523Y-111306819D01*
X121823809Y-112306819D02*
X121823809Y-111306819D01*
X122442857Y-112306819D02*
X122442857Y-111306819D01*
X122442857Y-111306819D02*
X122823809Y-111306819D01*
X122823809Y-111306819D02*
X122919047Y-111354438D01*
X122919047Y-111354438D02*
X122966666Y-111402057D01*
X122966666Y-111402057D02*
X123014285Y-111497295D01*
X123014285Y-111497295D02*
X123014285Y-111640152D01*
X123014285Y-111640152D02*
X122966666Y-111735390D01*
X122966666Y-111735390D02*
X122919047Y-111783009D01*
X122919047Y-111783009D02*
X122823809Y-111830628D01*
X122823809Y-111830628D02*
X122442857Y-111830628D01*
X123871428Y-111306819D02*
X123680952Y-111306819D01*
X123680952Y-111306819D02*
X123585714Y-111354438D01*
X123585714Y-111354438D02*
X123538095Y-111402057D01*
X123538095Y-111402057D02*
X123442857Y-111544914D01*
X123442857Y-111544914D02*
X123395238Y-111735390D01*
X123395238Y-111735390D02*
X123395238Y-112116342D01*
X123395238Y-112116342D02*
X123442857Y-112211580D01*
X123442857Y-112211580D02*
X123490476Y-112259200D01*
X123490476Y-112259200D02*
X123585714Y-112306819D01*
X123585714Y-112306819D02*
X123776190Y-112306819D01*
X123776190Y-112306819D02*
X123871428Y-112259200D01*
X123871428Y-112259200D02*
X123919047Y-112211580D01*
X123919047Y-112211580D02*
X123966666Y-112116342D01*
X123966666Y-112116342D02*
X123966666Y-111878247D01*
X123966666Y-111878247D02*
X123919047Y-111783009D01*
X123919047Y-111783009D02*
X123871428Y-111735390D01*
X123871428Y-111735390D02*
X123776190Y-111687771D01*
X123776190Y-111687771D02*
X123585714Y-111687771D01*
X123585714Y-111687771D02*
X123490476Y-111735390D01*
X123490476Y-111735390D02*
X123442857Y-111783009D01*
X123442857Y-111783009D02*
X123395238Y-111878247D01*
X119800000Y-116181009D02*
X120133333Y-116181009D01*
X120276190Y-116704819D02*
X119800000Y-116704819D01*
X119800000Y-116704819D02*
X119800000Y-115704819D01*
X119800000Y-115704819D02*
X120276190Y-115704819D01*
X120704762Y-116704819D02*
X120704762Y-115704819D01*
X120704762Y-115704819D02*
X121276190Y-116704819D01*
X121276190Y-116704819D02*
X121276190Y-115704819D01*
X121514286Y-116800057D02*
X122276190Y-116800057D01*
X122514286Y-115704819D02*
X122514286Y-116514342D01*
X122514286Y-116514342D02*
X122561905Y-116609580D01*
X122561905Y-116609580D02*
X122609524Y-116657200D01*
X122609524Y-116657200D02*
X122704762Y-116704819D01*
X122704762Y-116704819D02*
X122895238Y-116704819D01*
X122895238Y-116704819D02*
X122990476Y-116657200D01*
X122990476Y-116657200D02*
X123038095Y-116609580D01*
X123038095Y-116609580D02*
X123085714Y-116514342D01*
X123085714Y-116514342D02*
X123085714Y-115704819D01*
X123419048Y-115704819D02*
X123752381Y-116704819D01*
X123752381Y-116704819D02*
X124085714Y-115704819D01*
X124895238Y-116704819D02*
X124419048Y-116704819D01*
X124419048Y-116704819D02*
X124419048Y-115704819D01*
X125419048Y-115704819D02*
X125609524Y-115704819D01*
X125609524Y-115704819D02*
X125704762Y-115752438D01*
X125704762Y-115752438D02*
X125800000Y-115847676D01*
X125800000Y-115847676D02*
X125847619Y-116038152D01*
X125847619Y-116038152D02*
X125847619Y-116371485D01*
X125847619Y-116371485D02*
X125800000Y-116561961D01*
X125800000Y-116561961D02*
X125704762Y-116657200D01*
X125704762Y-116657200D02*
X125609524Y-116704819D01*
X125609524Y-116704819D02*
X125419048Y-116704819D01*
X125419048Y-116704819D02*
X125323810Y-116657200D01*
X125323810Y-116657200D02*
X125228572Y-116561961D01*
X125228572Y-116561961D02*
X125180953Y-116371485D01*
X125180953Y-116371485D02*
X125180953Y-116038152D01*
X125180953Y-116038152D02*
X125228572Y-115847676D01*
X125228572Y-115847676D02*
X125323810Y-115752438D01*
X125323810Y-115752438D02*
X125419048Y-115704819D01*
X108057142Y-89459580D02*
X108009523Y-89507200D01*
X108009523Y-89507200D02*
X107866666Y-89554819D01*
X107866666Y-89554819D02*
X107771428Y-89554819D01*
X107771428Y-89554819D02*
X107628571Y-89507200D01*
X107628571Y-89507200D02*
X107533333Y-89411961D01*
X107533333Y-89411961D02*
X107485714Y-89316723D01*
X107485714Y-89316723D02*
X107438095Y-89126247D01*
X107438095Y-89126247D02*
X107438095Y-88983390D01*
X107438095Y-88983390D02*
X107485714Y-88792914D01*
X107485714Y-88792914D02*
X107533333Y-88697676D01*
X107533333Y-88697676D02*
X107628571Y-88602438D01*
X107628571Y-88602438D02*
X107771428Y-88554819D01*
X107771428Y-88554819D02*
X107866666Y-88554819D01*
X107866666Y-88554819D02*
X108009523Y-88602438D01*
X108009523Y-88602438D02*
X108057142Y-88650057D01*
X109009523Y-89554819D02*
X108438095Y-89554819D01*
X108723809Y-89554819D02*
X108723809Y-88554819D01*
X108723809Y-88554819D02*
X108628571Y-88697676D01*
X108628571Y-88697676D02*
X108533333Y-88792914D01*
X108533333Y-88792914D02*
X108438095Y-88840533D01*
X109961904Y-89554819D02*
X109390476Y-89554819D01*
X109676190Y-89554819D02*
X109676190Y-88554819D01*
X109676190Y-88554819D02*
X109580952Y-88697676D01*
X109580952Y-88697676D02*
X109485714Y-88792914D01*
X109485714Y-88792914D02*
X109390476Y-88840533D01*
X154754819Y-96466666D02*
X154278628Y-96799999D01*
X154754819Y-97038094D02*
X153754819Y-97038094D01*
X153754819Y-97038094D02*
X153754819Y-96657142D01*
X153754819Y-96657142D02*
X153802438Y-96561904D01*
X153802438Y-96561904D02*
X153850057Y-96514285D01*
X153850057Y-96514285D02*
X153945295Y-96466666D01*
X153945295Y-96466666D02*
X154088152Y-96466666D01*
X154088152Y-96466666D02*
X154183390Y-96514285D01*
X154183390Y-96514285D02*
X154231009Y-96561904D01*
X154231009Y-96561904D02*
X154278628Y-96657142D01*
X154278628Y-96657142D02*
X154278628Y-97038094D01*
X153754819Y-96133332D02*
X153754819Y-95514285D01*
X153754819Y-95514285D02*
X154135771Y-95847618D01*
X154135771Y-95847618D02*
X154135771Y-95704761D01*
X154135771Y-95704761D02*
X154183390Y-95609523D01*
X154183390Y-95609523D02*
X154231009Y-95561904D01*
X154231009Y-95561904D02*
X154326247Y-95514285D01*
X154326247Y-95514285D02*
X154564342Y-95514285D01*
X154564342Y-95514285D02*
X154659580Y-95561904D01*
X154659580Y-95561904D02*
X154707200Y-95609523D01*
X154707200Y-95609523D02*
X154754819Y-95704761D01*
X154754819Y-95704761D02*
X154754819Y-95990475D01*
X154754819Y-95990475D02*
X154707200Y-96085713D01*
X154707200Y-96085713D02*
X154659580Y-96133332D01*
X120756819Y-128361904D02*
X120756819Y-127790476D01*
X121756819Y-128076190D02*
X120756819Y-128076190D01*
X121756819Y-127457142D02*
X120756819Y-127457142D01*
X120756819Y-127457142D02*
X120756819Y-127076190D01*
X120756819Y-127076190D02*
X120804438Y-126980952D01*
X120804438Y-126980952D02*
X120852057Y-126933333D01*
X120852057Y-126933333D02*
X120947295Y-126885714D01*
X120947295Y-126885714D02*
X121090152Y-126885714D01*
X121090152Y-126885714D02*
X121185390Y-126933333D01*
X121185390Y-126933333D02*
X121233009Y-126980952D01*
X121233009Y-126980952D02*
X121280628Y-127076190D01*
X121280628Y-127076190D02*
X121280628Y-127457142D01*
X120756819Y-126552380D02*
X120756819Y-125885714D01*
X120756819Y-125885714D02*
X121756819Y-126314285D01*
X125202438Y-127861904D02*
X125154819Y-127957142D01*
X125154819Y-127957142D02*
X125154819Y-128099999D01*
X125154819Y-128099999D02*
X125202438Y-128242856D01*
X125202438Y-128242856D02*
X125297676Y-128338094D01*
X125297676Y-128338094D02*
X125392914Y-128385713D01*
X125392914Y-128385713D02*
X125583390Y-128433332D01*
X125583390Y-128433332D02*
X125726247Y-128433332D01*
X125726247Y-128433332D02*
X125916723Y-128385713D01*
X125916723Y-128385713D02*
X126011961Y-128338094D01*
X126011961Y-128338094D02*
X126107200Y-128242856D01*
X126107200Y-128242856D02*
X126154819Y-128099999D01*
X126154819Y-128099999D02*
X126154819Y-128004761D01*
X126154819Y-128004761D02*
X126107200Y-127861904D01*
X126107200Y-127861904D02*
X126059580Y-127814285D01*
X126059580Y-127814285D02*
X125726247Y-127814285D01*
X125726247Y-127814285D02*
X125726247Y-128004761D01*
X126154819Y-127385713D02*
X125154819Y-127385713D01*
X125154819Y-127385713D02*
X126154819Y-126814285D01*
X126154819Y-126814285D02*
X125154819Y-126814285D01*
X126154819Y-126338094D02*
X125154819Y-126338094D01*
X125154819Y-126338094D02*
X125154819Y-126099999D01*
X125154819Y-126099999D02*
X125202438Y-125957142D01*
X125202438Y-125957142D02*
X125297676Y-125861904D01*
X125297676Y-125861904D02*
X125392914Y-125814285D01*
X125392914Y-125814285D02*
X125583390Y-125766666D01*
X125583390Y-125766666D02*
X125726247Y-125766666D01*
X125726247Y-125766666D02*
X125916723Y-125814285D01*
X125916723Y-125814285D02*
X126011961Y-125861904D01*
X126011961Y-125861904D02*
X126107200Y-125957142D01*
X126107200Y-125957142D02*
X126154819Y-126099999D01*
X126154819Y-126099999D02*
X126154819Y-126338094D01*
X182804819Y-85361904D02*
X181804819Y-85361904D01*
X182281009Y-85361904D02*
X182281009Y-84790476D01*
X182804819Y-84790476D02*
X181804819Y-84790476D01*
X182804819Y-83790476D02*
X182804819Y-84361904D01*
X182804819Y-84076190D02*
X181804819Y-84076190D01*
X181804819Y-84076190D02*
X181947676Y-84171428D01*
X181947676Y-84171428D02*
X182042914Y-84266666D01*
X182042914Y-84266666D02*
X182090533Y-84361904D01*
X142333333Y-98154819D02*
X141857143Y-98154819D01*
X141857143Y-98154819D02*
X141857143Y-97154819D01*
X143190476Y-98154819D02*
X142619048Y-98154819D01*
X142904762Y-98154819D02*
X142904762Y-97154819D01*
X142904762Y-97154819D02*
X142809524Y-97297676D01*
X142809524Y-97297676D02*
X142714286Y-97392914D01*
X142714286Y-97392914D02*
X142619048Y-97440533D01*
X182804819Y-135761904D02*
X181804819Y-135761904D01*
X182281009Y-135761904D02*
X182281009Y-135190476D01*
X182804819Y-135190476D02*
X181804819Y-135190476D01*
X181900057Y-134761904D02*
X181852438Y-134714285D01*
X181852438Y-134714285D02*
X181804819Y-134619047D01*
X181804819Y-134619047D02*
X181804819Y-134380952D01*
X181804819Y-134380952D02*
X181852438Y-134285714D01*
X181852438Y-134285714D02*
X181900057Y-134238095D01*
X181900057Y-134238095D02*
X181995295Y-134190476D01*
X181995295Y-134190476D02*
X182090533Y-134190476D01*
X182090533Y-134190476D02*
X182233390Y-134238095D01*
X182233390Y-134238095D02*
X182804819Y-134809523D01*
X182804819Y-134809523D02*
X182804819Y-134190476D01*
X156356819Y-89061904D02*
X156356819Y-88490476D01*
X157356819Y-88776190D02*
X156356819Y-88776190D01*
X157356819Y-88157142D02*
X156356819Y-88157142D01*
X156356819Y-88157142D02*
X156356819Y-87776190D01*
X156356819Y-87776190D02*
X156404438Y-87680952D01*
X156404438Y-87680952D02*
X156452057Y-87633333D01*
X156452057Y-87633333D02*
X156547295Y-87585714D01*
X156547295Y-87585714D02*
X156690152Y-87585714D01*
X156690152Y-87585714D02*
X156785390Y-87633333D01*
X156785390Y-87633333D02*
X156833009Y-87680952D01*
X156833009Y-87680952D02*
X156880628Y-87776190D01*
X156880628Y-87776190D02*
X156880628Y-88157142D01*
X156356819Y-87252380D02*
X156356819Y-86633333D01*
X156356819Y-86633333D02*
X156737771Y-86966666D01*
X156737771Y-86966666D02*
X156737771Y-86823809D01*
X156737771Y-86823809D02*
X156785390Y-86728571D01*
X156785390Y-86728571D02*
X156833009Y-86680952D01*
X156833009Y-86680952D02*
X156928247Y-86633333D01*
X156928247Y-86633333D02*
X157166342Y-86633333D01*
X157166342Y-86633333D02*
X157261580Y-86680952D01*
X157261580Y-86680952D02*
X157309200Y-86728571D01*
X157309200Y-86728571D02*
X157356819Y-86823809D01*
X157356819Y-86823809D02*
X157356819Y-87109523D01*
X157356819Y-87109523D02*
X157309200Y-87204761D01*
X157309200Y-87204761D02*
X157261580Y-87252380D01*
X161231009Y-88157142D02*
X161231009Y-88490475D01*
X161754819Y-88490475D02*
X160754819Y-88490475D01*
X160754819Y-88490475D02*
X160754819Y-88014285D01*
X161231009Y-87299999D02*
X161278628Y-87157142D01*
X161278628Y-87157142D02*
X161326247Y-87109523D01*
X161326247Y-87109523D02*
X161421485Y-87061904D01*
X161421485Y-87061904D02*
X161564342Y-87061904D01*
X161564342Y-87061904D02*
X161659580Y-87109523D01*
X161659580Y-87109523D02*
X161707200Y-87157142D01*
X161707200Y-87157142D02*
X161754819Y-87252380D01*
X161754819Y-87252380D02*
X161754819Y-87633332D01*
X161754819Y-87633332D02*
X160754819Y-87633332D01*
X160754819Y-87633332D02*
X160754819Y-87299999D01*
X160754819Y-87299999D02*
X160802438Y-87204761D01*
X160802438Y-87204761D02*
X160850057Y-87157142D01*
X160850057Y-87157142D02*
X160945295Y-87109523D01*
X160945295Y-87109523D02*
X161040533Y-87109523D01*
X161040533Y-87109523D02*
X161135771Y-87157142D01*
X161135771Y-87157142D02*
X161183390Y-87204761D01*
X161183390Y-87204761D02*
X161231009Y-87299999D01*
X161231009Y-87299999D02*
X161231009Y-87633332D01*
X177596819Y-102521904D02*
X177596819Y-101950476D01*
X178596819Y-102236190D02*
X177596819Y-102236190D01*
X178596819Y-101617142D02*
X177596819Y-101617142D01*
X177596819Y-101617142D02*
X177596819Y-101236190D01*
X177596819Y-101236190D02*
X177644438Y-101140952D01*
X177644438Y-101140952D02*
X177692057Y-101093333D01*
X177692057Y-101093333D02*
X177787295Y-101045714D01*
X177787295Y-101045714D02*
X177930152Y-101045714D01*
X177930152Y-101045714D02*
X178025390Y-101093333D01*
X178025390Y-101093333D02*
X178073009Y-101140952D01*
X178073009Y-101140952D02*
X178120628Y-101236190D01*
X178120628Y-101236190D02*
X178120628Y-101617142D01*
X178596819Y-100569523D02*
X178596819Y-100379047D01*
X178596819Y-100379047D02*
X178549200Y-100283809D01*
X178549200Y-100283809D02*
X178501580Y-100236190D01*
X178501580Y-100236190D02*
X178358723Y-100140952D01*
X178358723Y-100140952D02*
X178168247Y-100093333D01*
X178168247Y-100093333D02*
X177787295Y-100093333D01*
X177787295Y-100093333D02*
X177692057Y-100140952D01*
X177692057Y-100140952D02*
X177644438Y-100188571D01*
X177644438Y-100188571D02*
X177596819Y-100283809D01*
X177596819Y-100283809D02*
X177596819Y-100474285D01*
X177596819Y-100474285D02*
X177644438Y-100569523D01*
X177644438Y-100569523D02*
X177692057Y-100617142D01*
X177692057Y-100617142D02*
X177787295Y-100664761D01*
X177787295Y-100664761D02*
X178025390Y-100664761D01*
X178025390Y-100664761D02*
X178120628Y-100617142D01*
X178120628Y-100617142D02*
X178168247Y-100569523D01*
X178168247Y-100569523D02*
X178215866Y-100474285D01*
X178215866Y-100474285D02*
X178215866Y-100283809D01*
X178215866Y-100283809D02*
X178168247Y-100188571D01*
X178168247Y-100188571D02*
X178120628Y-100140952D01*
X178120628Y-100140952D02*
X178025390Y-100093333D01*
X181994819Y-102783809D02*
X182994819Y-102450476D01*
X182994819Y-102450476D02*
X181994819Y-102117143D01*
X182994819Y-101640952D02*
X182947200Y-101736190D01*
X182947200Y-101736190D02*
X182899580Y-101783809D01*
X182899580Y-101783809D02*
X182804342Y-101831428D01*
X182804342Y-101831428D02*
X182518628Y-101831428D01*
X182518628Y-101831428D02*
X182423390Y-101783809D01*
X182423390Y-101783809D02*
X182375771Y-101736190D01*
X182375771Y-101736190D02*
X182328152Y-101640952D01*
X182328152Y-101640952D02*
X182328152Y-101498095D01*
X182328152Y-101498095D02*
X182375771Y-101402857D01*
X182375771Y-101402857D02*
X182423390Y-101355238D01*
X182423390Y-101355238D02*
X182518628Y-101307619D01*
X182518628Y-101307619D02*
X182804342Y-101307619D01*
X182804342Y-101307619D02*
X182899580Y-101355238D01*
X182899580Y-101355238D02*
X182947200Y-101402857D01*
X182947200Y-101402857D02*
X182994819Y-101498095D01*
X182994819Y-101498095D02*
X182994819Y-101640952D01*
X182328152Y-100450476D02*
X182994819Y-100450476D01*
X182328152Y-100879047D02*
X182851961Y-100879047D01*
X182851961Y-100879047D02*
X182947200Y-100831428D01*
X182947200Y-100831428D02*
X182994819Y-100736190D01*
X182994819Y-100736190D02*
X182994819Y-100593333D01*
X182994819Y-100593333D02*
X182947200Y-100498095D01*
X182947200Y-100498095D02*
X182899580Y-100450476D01*
X182328152Y-100117142D02*
X182328152Y-99736190D01*
X181994819Y-99974285D02*
X182851961Y-99974285D01*
X182851961Y-99974285D02*
X182947200Y-99926666D01*
X182947200Y-99926666D02*
X182994819Y-99831428D01*
X182994819Y-99831428D02*
X182994819Y-99736190D01*
X141033333Y-132954819D02*
X140700000Y-132478628D01*
X140461905Y-132954819D02*
X140461905Y-131954819D01*
X140461905Y-131954819D02*
X140842857Y-131954819D01*
X140842857Y-131954819D02*
X140938095Y-132002438D01*
X140938095Y-132002438D02*
X140985714Y-132050057D01*
X140985714Y-132050057D02*
X141033333Y-132145295D01*
X141033333Y-132145295D02*
X141033333Y-132288152D01*
X141033333Y-132288152D02*
X140985714Y-132383390D01*
X140985714Y-132383390D02*
X140938095Y-132431009D01*
X140938095Y-132431009D02*
X140842857Y-132478628D01*
X140842857Y-132478628D02*
X140461905Y-132478628D01*
X141890476Y-131954819D02*
X141700000Y-131954819D01*
X141700000Y-131954819D02*
X141604762Y-132002438D01*
X141604762Y-132002438D02*
X141557143Y-132050057D01*
X141557143Y-132050057D02*
X141461905Y-132192914D01*
X141461905Y-132192914D02*
X141414286Y-132383390D01*
X141414286Y-132383390D02*
X141414286Y-132764342D01*
X141414286Y-132764342D02*
X141461905Y-132859580D01*
X141461905Y-132859580D02*
X141509524Y-132907200D01*
X141509524Y-132907200D02*
X141604762Y-132954819D01*
X141604762Y-132954819D02*
X141795238Y-132954819D01*
X141795238Y-132954819D02*
X141890476Y-132907200D01*
X141890476Y-132907200D02*
X141938095Y-132859580D01*
X141938095Y-132859580D02*
X141985714Y-132764342D01*
X141985714Y-132764342D02*
X141985714Y-132526247D01*
X141985714Y-132526247D02*
X141938095Y-132431009D01*
X141938095Y-132431009D02*
X141890476Y-132383390D01*
X141890476Y-132383390D02*
X141795238Y-132335771D01*
X141795238Y-132335771D02*
X141604762Y-132335771D01*
X141604762Y-132335771D02*
X141509524Y-132383390D01*
X141509524Y-132383390D02*
X141461905Y-132431009D01*
X141461905Y-132431009D02*
X141414286Y-132526247D01*
X112004819Y-85361904D02*
X111004819Y-85361904D01*
X111481009Y-85361904D02*
X111481009Y-84790476D01*
X112004819Y-84790476D02*
X111004819Y-84790476D01*
X111004819Y-84409523D02*
X111004819Y-83790476D01*
X111004819Y-83790476D02*
X111385771Y-84123809D01*
X111385771Y-84123809D02*
X111385771Y-83980952D01*
X111385771Y-83980952D02*
X111433390Y-83885714D01*
X111433390Y-83885714D02*
X111481009Y-83838095D01*
X111481009Y-83838095D02*
X111576247Y-83790476D01*
X111576247Y-83790476D02*
X111814342Y-83790476D01*
X111814342Y-83790476D02*
X111909580Y-83838095D01*
X111909580Y-83838095D02*
X111957200Y-83885714D01*
X111957200Y-83885714D02*
X112004819Y-83980952D01*
X112004819Y-83980952D02*
X112004819Y-84266666D01*
X112004819Y-84266666D02*
X111957200Y-84361904D01*
X111957200Y-84361904D02*
X111909580Y-84409523D01*
X117033333Y-91584819D02*
X116700000Y-91108628D01*
X116461905Y-91584819D02*
X116461905Y-90584819D01*
X116461905Y-90584819D02*
X116842857Y-90584819D01*
X116842857Y-90584819D02*
X116938095Y-90632438D01*
X116938095Y-90632438D02*
X116985714Y-90680057D01*
X116985714Y-90680057D02*
X117033333Y-90775295D01*
X117033333Y-90775295D02*
X117033333Y-90918152D01*
X117033333Y-90918152D02*
X116985714Y-91013390D01*
X116985714Y-91013390D02*
X116938095Y-91061009D01*
X116938095Y-91061009D02*
X116842857Y-91108628D01*
X116842857Y-91108628D02*
X116461905Y-91108628D01*
X117509524Y-91584819D02*
X117700000Y-91584819D01*
X117700000Y-91584819D02*
X117795238Y-91537200D01*
X117795238Y-91537200D02*
X117842857Y-91489580D01*
X117842857Y-91489580D02*
X117938095Y-91346723D01*
X117938095Y-91346723D02*
X117985714Y-91156247D01*
X117985714Y-91156247D02*
X117985714Y-90775295D01*
X117985714Y-90775295D02*
X117938095Y-90680057D01*
X117938095Y-90680057D02*
X117890476Y-90632438D01*
X117890476Y-90632438D02*
X117795238Y-90584819D01*
X117795238Y-90584819D02*
X117604762Y-90584819D01*
X117604762Y-90584819D02*
X117509524Y-90632438D01*
X117509524Y-90632438D02*
X117461905Y-90680057D01*
X117461905Y-90680057D02*
X117414286Y-90775295D01*
X117414286Y-90775295D02*
X117414286Y-91013390D01*
X117414286Y-91013390D02*
X117461905Y-91108628D01*
X117461905Y-91108628D02*
X117509524Y-91156247D01*
X117509524Y-91156247D02*
X117604762Y-91203866D01*
X117604762Y-91203866D02*
X117795238Y-91203866D01*
X117795238Y-91203866D02*
X117890476Y-91156247D01*
X117890476Y-91156247D02*
X117938095Y-91108628D01*
X117938095Y-91108628D02*
X117985714Y-91013390D01*
X142133333Y-94754819D02*
X141800000Y-94278628D01*
X141561905Y-94754819D02*
X141561905Y-93754819D01*
X141561905Y-93754819D02*
X141942857Y-93754819D01*
X141942857Y-93754819D02*
X142038095Y-93802438D01*
X142038095Y-93802438D02*
X142085714Y-93850057D01*
X142085714Y-93850057D02*
X142133333Y-93945295D01*
X142133333Y-93945295D02*
X142133333Y-94088152D01*
X142133333Y-94088152D02*
X142085714Y-94183390D01*
X142085714Y-94183390D02*
X142038095Y-94231009D01*
X142038095Y-94231009D02*
X141942857Y-94278628D01*
X141942857Y-94278628D02*
X141561905Y-94278628D01*
X142514286Y-93850057D02*
X142561905Y-93802438D01*
X142561905Y-93802438D02*
X142657143Y-93754819D01*
X142657143Y-93754819D02*
X142895238Y-93754819D01*
X142895238Y-93754819D02*
X142990476Y-93802438D01*
X142990476Y-93802438D02*
X143038095Y-93850057D01*
X143038095Y-93850057D02*
X143085714Y-93945295D01*
X143085714Y-93945295D02*
X143085714Y-94040533D01*
X143085714Y-94040533D02*
X143038095Y-94183390D01*
X143038095Y-94183390D02*
X142466667Y-94754819D01*
X142466667Y-94754819D02*
X143085714Y-94754819D01*
X107359580Y-98466666D02*
X107407200Y-98514285D01*
X107407200Y-98514285D02*
X107454819Y-98657142D01*
X107454819Y-98657142D02*
X107454819Y-98752380D01*
X107454819Y-98752380D02*
X107407200Y-98895237D01*
X107407200Y-98895237D02*
X107311961Y-98990475D01*
X107311961Y-98990475D02*
X107216723Y-99038094D01*
X107216723Y-99038094D02*
X107026247Y-99085713D01*
X107026247Y-99085713D02*
X106883390Y-99085713D01*
X106883390Y-99085713D02*
X106692914Y-99038094D01*
X106692914Y-99038094D02*
X106597676Y-98990475D01*
X106597676Y-98990475D02*
X106502438Y-98895237D01*
X106502438Y-98895237D02*
X106454819Y-98752380D01*
X106454819Y-98752380D02*
X106454819Y-98657142D01*
X106454819Y-98657142D02*
X106502438Y-98514285D01*
X106502438Y-98514285D02*
X106550057Y-98466666D01*
X106883390Y-97895237D02*
X106835771Y-97990475D01*
X106835771Y-97990475D02*
X106788152Y-98038094D01*
X106788152Y-98038094D02*
X106692914Y-98085713D01*
X106692914Y-98085713D02*
X106645295Y-98085713D01*
X106645295Y-98085713D02*
X106550057Y-98038094D01*
X106550057Y-98038094D02*
X106502438Y-97990475D01*
X106502438Y-97990475D02*
X106454819Y-97895237D01*
X106454819Y-97895237D02*
X106454819Y-97704761D01*
X106454819Y-97704761D02*
X106502438Y-97609523D01*
X106502438Y-97609523D02*
X106550057Y-97561904D01*
X106550057Y-97561904D02*
X106645295Y-97514285D01*
X106645295Y-97514285D02*
X106692914Y-97514285D01*
X106692914Y-97514285D02*
X106788152Y-97561904D01*
X106788152Y-97561904D02*
X106835771Y-97609523D01*
X106835771Y-97609523D02*
X106883390Y-97704761D01*
X106883390Y-97704761D02*
X106883390Y-97895237D01*
X106883390Y-97895237D02*
X106931009Y-97990475D01*
X106931009Y-97990475D02*
X106978628Y-98038094D01*
X106978628Y-98038094D02*
X107073866Y-98085713D01*
X107073866Y-98085713D02*
X107264342Y-98085713D01*
X107264342Y-98085713D02*
X107359580Y-98038094D01*
X107359580Y-98038094D02*
X107407200Y-97990475D01*
X107407200Y-97990475D02*
X107454819Y-97895237D01*
X107454819Y-97895237D02*
X107454819Y-97704761D01*
X107454819Y-97704761D02*
X107407200Y-97609523D01*
X107407200Y-97609523D02*
X107359580Y-97561904D01*
X107359580Y-97561904D02*
X107264342Y-97514285D01*
X107264342Y-97514285D02*
X107073866Y-97514285D01*
X107073866Y-97514285D02*
X106978628Y-97561904D01*
X106978628Y-97561904D02*
X106931009Y-97609523D01*
X106931009Y-97609523D02*
X106883390Y-97704761D01*
D12*
%TO.C,D2*%
X110200000Y-116920000D02*
X110200000Y-115900000D01*
X108730000Y-115900000D02*
X111670000Y-115900000D01*
X111670000Y-115900000D02*
X111670000Y-110460000D01*
X108730000Y-115120000D02*
X111670000Y-115120000D01*
X108730000Y-115000000D02*
X111670000Y-115000000D01*
X108730000Y-114880000D02*
X111670000Y-114880000D01*
X108730000Y-110460000D02*
X108730000Y-115900000D01*
X111670000Y-110460000D02*
X108730000Y-110460000D01*
X110200000Y-109440000D02*
X110200000Y-110460000D01*
%TO.C,R12*%
X123500000Y-99960000D02*
X123500000Y-100730000D01*
X124870000Y-100730000D02*
X122130000Y-100730000D01*
X122130000Y-100730000D02*
X122130000Y-107270000D01*
X124870000Y-107270000D02*
X124870000Y-100730000D01*
X122130000Y-107270000D02*
X124870000Y-107270000D01*
X123500000Y-108040000D02*
X123500000Y-107270000D01*
%TO.C,J3*%
X135500000Y-120900000D02*
X136750000Y-120900000D01*
X139250000Y-120900000D02*
X141500000Y-120900000D01*
X146000000Y-120900000D02*
X148250000Y-120900000D01*
X152000000Y-120900000D02*
X150750000Y-120900000D01*
X132000000Y-111900000D02*
X132000000Y-114900000D01*
X155500000Y-111650000D02*
X155500000Y-114650000D01*
X132000000Y-107150000D02*
X132000000Y-109400000D01*
X155500000Y-106900000D02*
X155500000Y-109150000D01*
X132000000Y-100400000D02*
X132000000Y-102650000D01*
X155500000Y-100150000D02*
X155500000Y-102400000D01*
X132000000Y-97900000D02*
X132000000Y-94900000D01*
X155500000Y-97650000D02*
X155500000Y-94650000D01*
X135500000Y-88900000D02*
X136750000Y-88900000D01*
X139250000Y-88900000D02*
X141500000Y-88900000D01*
X146000000Y-88900000D02*
X148250000Y-88900000D01*
X152000000Y-88900000D02*
X150750000Y-88900000D01*
X132000000Y-117400000D02*
G75*
G03*
X135500000Y-120900000I3500000J0D01*
G01*
X152000000Y-120900000D02*
G75*
G03*
X155500000Y-117400000I0J3500000D01*
G01*
X135500000Y-88900000D02*
G75*
G03*
X132000000Y-92400000I0J-3500000D01*
G01*
X155499986Y-92150001D02*
G75*
G03*
X152000000Y-88900000I-3499986J-259599D01*
G01*
%TO.C,C3*%
X148753733Y-100590000D02*
X149046267Y-100590000D01*
X148753733Y-101610000D02*
X149046267Y-101610000D01*
%TO.C,J1*%
X107520000Y-127270000D02*
X107520000Y-129870000D01*
X107520000Y-127270000D02*
X110180000Y-127270000D01*
X107520000Y-129870000D02*
X110180000Y-129870000D01*
X108850000Y-124670000D02*
X110180000Y-124670000D01*
X110180000Y-124670000D02*
X110180000Y-126000000D01*
X110180000Y-127270000D02*
X110180000Y-129870000D01*
%TO.C,C9*%
X180310000Y-98730000D02*
X180310000Y-98025000D01*
X180310000Y-98730000D02*
X171070000Y-98730000D01*
X180310000Y-96695000D02*
X180310000Y-95990000D01*
X180310000Y-95990000D02*
X171070000Y-95990000D01*
X171070000Y-98730000D02*
X171070000Y-98025000D01*
X171070000Y-96695000D02*
X171070000Y-95990000D01*
%TO.C,C6*%
X139580000Y-84630000D02*
X139580000Y-87370000D01*
X139580000Y-84630000D02*
X146820000Y-84630000D01*
X139580000Y-87370000D02*
X146820000Y-87370000D01*
X146820000Y-84630000D02*
X146820000Y-87370000D01*
%TO.C,R11*%
X111892224Y-102647500D02*
X111382776Y-102647500D01*
X111892224Y-101602500D02*
X111382776Y-101602500D01*
%TO.C,D1*%
X136540000Y-106110000D02*
X136540000Y-104090000D01*
X136540000Y-106110000D02*
X139850000Y-106110000D01*
X139850000Y-104090000D02*
X136540000Y-104090000D01*
%TO.C,R15*%
X144070000Y-117100000D02*
X143300000Y-117100000D01*
X143300000Y-118470000D02*
X143300000Y-115730000D01*
X143300000Y-115730000D02*
X136760000Y-115730000D01*
X136760000Y-118470000D02*
X143300000Y-118470000D01*
X136760000Y-115730000D02*
X136760000Y-118470000D01*
X135990000Y-117100000D02*
X136760000Y-117100000D01*
%TO.C,R13*%
X127950000Y-100080000D02*
X127950000Y-100850000D01*
X129320000Y-100850000D02*
X126580000Y-100850000D01*
X126580000Y-100850000D02*
X126580000Y-107390000D01*
X129320000Y-107390000D02*
X129320000Y-100850000D01*
X126580000Y-107390000D02*
X129320000Y-107390000D01*
X127950000Y-108160000D02*
X127950000Y-107390000D01*
%TO.C,C10*%
X108290000Y-95946267D02*
X108290000Y-95653733D01*
X109310000Y-95946267D02*
X109310000Y-95653733D01*
%TO.C,TP4*%
X146200000Y-95850000D02*
X149100000Y-95850000D01*
X146200000Y-98750000D02*
X146200000Y-95850000D01*
X149100000Y-95850000D02*
X149100000Y-98750000D01*
X149100000Y-98750000D02*
X146200000Y-98750000D01*
%TO.C,F1*%
X117450000Y-123700000D02*
X117450000Y-123450000D01*
X117450000Y-123700000D02*
X117229000Y-123700000D01*
X117450000Y-121950000D02*
X117450000Y-120500000D01*
X117450000Y-120500000D02*
X112128000Y-120500000D01*
X115471000Y-123700000D02*
X110150000Y-123700000D01*
X110371000Y-120500000D02*
X110150000Y-120500000D01*
X110150000Y-123700000D02*
X110150000Y-122249000D01*
X110150000Y-120750000D02*
X110150000Y-120500000D01*
%TO.C,R5*%
X163900000Y-93140000D02*
X163900000Y-92370000D01*
X162530000Y-92370000D02*
X165270000Y-92370000D01*
X165270000Y-92370000D02*
X165270000Y-85830000D01*
X162530000Y-85830000D02*
X162530000Y-92370000D01*
X165270000Y-85830000D02*
X162530000Y-85830000D01*
X163900000Y-85060000D02*
X163900000Y-85830000D01*
%TO.C,R14*%
X127950000Y-112680000D02*
X127950000Y-113450000D01*
X129320000Y-113450000D02*
X126580000Y-113450000D01*
X126580000Y-113450000D02*
X126580000Y-119990000D01*
X129320000Y-119990000D02*
X129320000Y-113450000D01*
X126580000Y-119990000D02*
X129320000Y-119990000D01*
X127950000Y-120760000D02*
X127950000Y-119990000D01*
%TO.C,J2*%
X184130000Y-94530000D02*
X184130000Y-91930000D01*
X184130000Y-94530000D02*
X181470000Y-94530000D01*
X184130000Y-91930000D02*
X181470000Y-91930000D01*
X182800000Y-97130000D02*
X181470000Y-97130000D01*
X181470000Y-97130000D02*
X181470000Y-95800000D01*
X181470000Y-94530000D02*
X181470000Y-91930000D01*
%TO.C,C2*%
X144433767Y-113610000D02*
X144141233Y-113610000D01*
X144433767Y-112590000D02*
X144141233Y-112590000D01*
%TO.C,R1*%
X151850000Y-108440000D02*
X151850000Y-109210000D01*
X153220000Y-109210000D02*
X150480000Y-109210000D01*
X150480000Y-109210000D02*
X150480000Y-115750000D01*
X153220000Y-115750000D02*
X153220000Y-109210000D01*
X150480000Y-115750000D02*
X153220000Y-115750000D01*
X151850000Y-116520000D02*
X151850000Y-115750000D01*
%TO.C,TP10*%
X174250000Y-91250000D02*
X174250000Y-88350000D01*
X177150000Y-91250000D02*
X174250000Y-91250000D01*
X174250000Y-88350000D02*
X177150000Y-88350000D01*
X177150000Y-88350000D02*
X177150000Y-91250000D01*
%TO.C,C5*%
X168805000Y-133269285D02*
X168805000Y-130869285D01*
X167605000Y-132069285D02*
X170005000Y-132069285D01*
X163519000Y-120300000D02*
X187681000Y-120300000D01*
X163520000Y-120260000D02*
X187680000Y-120260000D01*
X163520000Y-120220000D02*
X187680000Y-120220000D01*
X163520000Y-120180000D02*
X187680000Y-120180000D01*
X163521000Y-120140000D02*
X187679000Y-120140000D01*
X163521000Y-120100000D02*
X187679000Y-120100000D01*
X163522000Y-120060000D02*
X187678000Y-120060000D01*
X163523000Y-120020000D02*
X187677000Y-120020000D01*
X163524000Y-119980000D02*
X187676000Y-119980000D01*
X163525000Y-119940000D02*
X187675000Y-119940000D01*
X163526000Y-119900000D02*
X187674000Y-119900000D01*
X163527000Y-119860000D02*
X187673000Y-119860000D01*
X163529000Y-119820000D02*
X187671000Y-119820000D01*
X163531000Y-119780000D02*
X187669000Y-119780000D01*
X163532000Y-119740000D02*
X187668000Y-119740000D01*
X163534000Y-119700000D02*
X187666000Y-119700000D01*
X163536000Y-119660000D02*
X187664000Y-119660000D01*
X163539000Y-119620000D02*
X187661000Y-119620000D01*
X163541000Y-119579000D02*
X187659000Y-119579000D01*
X163543000Y-119539000D02*
X187657000Y-119539000D01*
X163546000Y-119499000D02*
X187654000Y-119499000D01*
X163549000Y-119459000D02*
X187651000Y-119459000D01*
X163551000Y-119419000D02*
X187649000Y-119419000D01*
X163554000Y-119379000D02*
X187646000Y-119379000D01*
X163558000Y-119339000D02*
X187642000Y-119339000D01*
X163561000Y-119299000D02*
X187639000Y-119299000D01*
X163564000Y-119259000D02*
X187636000Y-119259000D01*
X163568000Y-119219000D02*
X187632000Y-119219000D01*
X163571000Y-119179000D02*
X187629000Y-119179000D01*
X163575000Y-119139000D02*
X187625000Y-119139000D01*
X163579000Y-119099000D02*
X187621000Y-119099000D01*
X163583000Y-119059000D02*
X187617000Y-119059000D01*
X163587000Y-119019000D02*
X187613000Y-119019000D01*
X163592000Y-118979000D02*
X187608000Y-118979000D01*
X163596000Y-118939000D02*
X187604000Y-118939000D01*
X163601000Y-118899000D02*
X187599000Y-118899000D01*
X163605000Y-118859000D02*
X187595000Y-118859000D01*
X163610000Y-118819000D02*
X187590000Y-118819000D01*
X163615000Y-118779000D02*
X187585000Y-118779000D01*
X163620000Y-118739000D02*
X187580000Y-118739000D01*
X163626000Y-118699000D02*
X187574000Y-118699000D01*
X163631000Y-118659000D02*
X187569000Y-118659000D01*
X163637000Y-118619000D02*
X187563000Y-118619000D01*
X163642000Y-118579000D02*
X187558000Y-118579000D01*
X163648000Y-118539000D02*
X187552000Y-118539000D01*
X163654000Y-118499000D02*
X187546000Y-118499000D01*
X163660000Y-118459000D02*
X187540000Y-118459000D01*
X163666000Y-118419000D02*
X187534000Y-118419000D01*
X163673000Y-118379000D02*
X187527000Y-118379000D01*
X163679000Y-118339000D02*
X187521000Y-118339000D01*
X163686000Y-118299000D02*
X187514000Y-118299000D01*
X163692000Y-118259000D02*
X187508000Y-118259000D01*
X163699000Y-118219000D02*
X187501000Y-118219000D01*
X163706000Y-118179000D02*
X187494000Y-118179000D01*
X163714000Y-118139000D02*
X187486000Y-118139000D01*
X163721000Y-118099000D02*
X187479000Y-118099000D01*
X163728000Y-118059000D02*
X187472000Y-118059000D01*
X163736000Y-118019000D02*
X187464000Y-118019000D01*
X163744000Y-117979000D02*
X187456000Y-117979000D01*
X163751000Y-117939000D02*
X187449000Y-117939000D01*
X163759000Y-117899000D02*
X187441000Y-117899000D01*
X163768000Y-117859000D02*
X187432000Y-117859000D01*
X163776000Y-117819000D02*
X187424000Y-117819000D01*
X163784000Y-117779000D02*
X187416000Y-117779000D01*
X163793000Y-117739000D02*
X187407000Y-117739000D01*
X163802000Y-117699000D02*
X187398000Y-117699000D01*
X163811000Y-117659000D02*
X187389000Y-117659000D01*
X163820000Y-117619000D02*
X187380000Y-117619000D01*
X163829000Y-117579000D02*
X187371000Y-117579000D01*
X163838000Y-117539000D02*
X173360000Y-117539000D01*
X177840000Y-117539000D02*
X187362000Y-117539000D01*
X163847000Y-117499000D02*
X173360000Y-117499000D01*
X177840000Y-117499000D02*
X187353000Y-117499000D01*
X163857000Y-117459000D02*
X173360000Y-117459000D01*
X177840000Y-117459000D02*
X187343000Y-117459000D01*
X163867000Y-117419000D02*
X173360000Y-117419000D01*
X177840000Y-117419000D02*
X187333000Y-117419000D01*
X163877000Y-117379000D02*
X173360000Y-117379000D01*
X177840000Y-117379000D02*
X187323000Y-117379000D01*
X163887000Y-117339000D02*
X173360000Y-117339000D01*
X177840000Y-117339000D02*
X187313000Y-117339000D01*
X163897000Y-117299000D02*
X173360000Y-117299000D01*
X177840000Y-117299000D02*
X187303000Y-117299000D01*
X163907000Y-117259000D02*
X173360000Y-117259000D01*
X177840000Y-117259000D02*
X187293000Y-117259000D01*
X163917000Y-117219000D02*
X173360000Y-117219000D01*
X177840000Y-117219000D02*
X187283000Y-117219000D01*
X163928000Y-117179000D02*
X173360000Y-117179000D01*
X177840000Y-117179000D02*
X187272000Y-117179000D01*
X163939000Y-117139000D02*
X173360000Y-117139000D01*
X177840000Y-117139000D02*
X187261000Y-117139000D01*
X163950000Y-117099000D02*
X173360000Y-117099000D01*
X177840000Y-117099000D02*
X187250000Y-117099000D01*
X163961000Y-117059000D02*
X173360000Y-117059000D01*
X177840000Y-117059000D02*
X187239000Y-117059000D01*
X163972000Y-117019000D02*
X173360000Y-117019000D01*
X177840000Y-117019000D02*
X187228000Y-117019000D01*
X163983000Y-116979000D02*
X173360000Y-116979000D01*
X177840000Y-116979000D02*
X187217000Y-116979000D01*
X163995000Y-116939000D02*
X173360000Y-116939000D01*
X177840000Y-116939000D02*
X187205000Y-116939000D01*
X164006000Y-116899000D02*
X173360000Y-116899000D01*
X177840000Y-116899000D02*
X187194000Y-116899000D01*
X164018000Y-116859000D02*
X173360000Y-116859000D01*
X177840000Y-116859000D02*
X187182000Y-116859000D01*
X164030000Y-116819000D02*
X173360000Y-116819000D01*
X177840000Y-116819000D02*
X187170000Y-116819000D01*
X164042000Y-116779000D02*
X173360000Y-116779000D01*
X177840000Y-116779000D02*
X187158000Y-116779000D01*
X164054000Y-116739000D02*
X173360000Y-116739000D01*
X177840000Y-116739000D02*
X187146000Y-116739000D01*
X164066000Y-116699000D02*
X173360000Y-116699000D01*
X177840000Y-116699000D02*
X187134000Y-116699000D01*
X164079000Y-116659000D02*
X173360000Y-116659000D01*
X177840000Y-116659000D02*
X187121000Y-116659000D01*
X164092000Y-116619000D02*
X173360000Y-116619000D01*
X177840000Y-116619000D02*
X187108000Y-116619000D01*
X164105000Y-116579000D02*
X173360000Y-116579000D01*
X177840000Y-116579000D02*
X187095000Y-116579000D01*
X164117000Y-116539000D02*
X173360000Y-116539000D01*
X177840000Y-116539000D02*
X187083000Y-116539000D01*
X164131000Y-116499000D02*
X173360000Y-116499000D01*
X177840000Y-116499000D02*
X187069000Y-116499000D01*
X164144000Y-116459000D02*
X173360000Y-116459000D01*
X177840000Y-116459000D02*
X187056000Y-116459000D01*
X164157000Y-116419000D02*
X173360000Y-116419000D01*
X177840000Y-116419000D02*
X187043000Y-116419000D01*
X164171000Y-116379000D02*
X173360000Y-116379000D01*
X177840000Y-116379000D02*
X187029000Y-116379000D01*
X164185000Y-116339000D02*
X173360000Y-116339000D01*
X177840000Y-116339000D02*
X187015000Y-116339000D01*
X164199000Y-116299000D02*
X173360000Y-116299000D01*
X177840000Y-116299000D02*
X187001000Y-116299000D01*
X164213000Y-116259000D02*
X173360000Y-116259000D01*
X177840000Y-116259000D02*
X186987000Y-116259000D01*
X164227000Y-116219000D02*
X173360000Y-116219000D01*
X177840000Y-116219000D02*
X186973000Y-116219000D01*
X164241000Y-116179000D02*
X173360000Y-116179000D01*
X177840000Y-116179000D02*
X186959000Y-116179000D01*
X164256000Y-116139000D02*
X173360000Y-116139000D01*
X177840000Y-116139000D02*
X186944000Y-116139000D01*
X164270000Y-116099000D02*
X173360000Y-116099000D01*
X177840000Y-116099000D02*
X186930000Y-116099000D01*
X164285000Y-116059000D02*
X173360000Y-116059000D01*
X177840000Y-116059000D02*
X186915000Y-116059000D01*
X164300000Y-116019000D02*
X173360000Y-116019000D01*
X177840000Y-116019000D02*
X186900000Y-116019000D01*
X164316000Y-115979000D02*
X173360000Y-115979000D01*
X177840000Y-115979000D02*
X186884000Y-115979000D01*
X164331000Y-115939000D02*
X173360000Y-115939000D01*
X177840000Y-115939000D02*
X186869000Y-115939000D01*
X164346000Y-115899000D02*
X173360000Y-115899000D01*
X177840000Y-115899000D02*
X186854000Y-115899000D01*
X164362000Y-115859000D02*
X173360000Y-115859000D01*
X177840000Y-115859000D02*
X186838000Y-115859000D01*
X164378000Y-115819000D02*
X173360000Y-115819000D01*
X177840000Y-115819000D02*
X186822000Y-115819000D01*
X164394000Y-115779000D02*
X173360000Y-115779000D01*
X177840000Y-115779000D02*
X186806000Y-115779000D01*
X164410000Y-115739000D02*
X173360000Y-115739000D01*
X177840000Y-115739000D02*
X186790000Y-115739000D01*
X164426000Y-115699000D02*
X173360000Y-115699000D01*
X177840000Y-115699000D02*
X186774000Y-115699000D01*
X164443000Y-115659000D02*
X173360000Y-115659000D01*
X177840000Y-115659000D02*
X186757000Y-115659000D01*
X164460000Y-115619000D02*
X173360000Y-115619000D01*
X177840000Y-115619000D02*
X186740000Y-115619000D01*
X164476000Y-115579000D02*
X173360000Y-115579000D01*
X177840000Y-115579000D02*
X186724000Y-115579000D01*
X164493000Y-115539000D02*
X173360000Y-115539000D01*
X177840000Y-115539000D02*
X186707000Y-115539000D01*
X164511000Y-115499000D02*
X173360000Y-115499000D01*
X177840000Y-115499000D02*
X186689000Y-115499000D01*
X164528000Y-115459000D02*
X173360000Y-115459000D01*
X177840000Y-115459000D02*
X186672000Y-115459000D01*
X164545000Y-115419000D02*
X173360000Y-115419000D01*
X177840000Y-115419000D02*
X186655000Y-115419000D01*
X164563000Y-115379000D02*
X173360000Y-115379000D01*
X177840000Y-115379000D02*
X186637000Y-115379000D01*
X164581000Y-115339000D02*
X173360000Y-115339000D01*
X177840000Y-115339000D02*
X186619000Y-115339000D01*
X164599000Y-115299000D02*
X173360000Y-115299000D01*
X177840000Y-115299000D02*
X186601000Y-115299000D01*
X164617000Y-115259000D02*
X173360000Y-115259000D01*
X177840000Y-115259000D02*
X186583000Y-115259000D01*
X164636000Y-115219000D02*
X173360000Y-115219000D01*
X177840000Y-115219000D02*
X186564000Y-115219000D01*
X164654000Y-115179000D02*
X173360000Y-115179000D01*
X177840000Y-115179000D02*
X186546000Y-115179000D01*
X164673000Y-115139000D02*
X173360000Y-115139000D01*
X177840000Y-115139000D02*
X186527000Y-115139000D01*
X164692000Y-115099000D02*
X173360000Y-115099000D01*
X177840000Y-115099000D02*
X186508000Y-115099000D01*
X164711000Y-115059000D02*
X173360000Y-115059000D01*
X177840000Y-115059000D02*
X186489000Y-115059000D01*
X164730000Y-115019000D02*
X173360000Y-115019000D01*
X177840000Y-115019000D02*
X186470000Y-115019000D01*
X164750000Y-114979000D02*
X173360000Y-114979000D01*
X177840000Y-114979000D02*
X186450000Y-114979000D01*
X164769000Y-114939000D02*
X173360000Y-114939000D01*
X177840000Y-114939000D02*
X186431000Y-114939000D01*
X164789000Y-114899000D02*
X173360000Y-114899000D01*
X177840000Y-114899000D02*
X186411000Y-114899000D01*
X164809000Y-114859000D02*
X173360000Y-114859000D01*
X177840000Y-114859000D02*
X186391000Y-114859000D01*
X164829000Y-114819000D02*
X173360000Y-114819000D01*
X177840000Y-114819000D02*
X186371000Y-114819000D01*
X164850000Y-114779000D02*
X173360000Y-114779000D01*
X177840000Y-114779000D02*
X186350000Y-114779000D01*
X164870000Y-114739000D02*
X173360000Y-114739000D01*
X177840000Y-114739000D02*
X186330000Y-114739000D01*
X164891000Y-114699000D02*
X173360000Y-114699000D01*
X177840000Y-114699000D02*
X186309000Y-114699000D01*
X164912000Y-114659000D02*
X173360000Y-114659000D01*
X177840000Y-114659000D02*
X186288000Y-114659000D01*
X164933000Y-114619000D02*
X173360000Y-114619000D01*
X177840000Y-114619000D02*
X186267000Y-114619000D01*
X164954000Y-114579000D02*
X173360000Y-114579000D01*
X177840000Y-114579000D02*
X186246000Y-114579000D01*
X164976000Y-114539000D02*
X173360000Y-114539000D01*
X177840000Y-114539000D02*
X186224000Y-114539000D01*
X164997000Y-114499000D02*
X173360000Y-114499000D01*
X177840000Y-114499000D02*
X186203000Y-114499000D01*
X165019000Y-114459000D02*
X173360000Y-114459000D01*
X177840000Y-114459000D02*
X186181000Y-114459000D01*
X165041000Y-114419000D02*
X173360000Y-114419000D01*
X177840000Y-114419000D02*
X186159000Y-114419000D01*
X165064000Y-114379000D02*
X173360000Y-114379000D01*
X177840000Y-114379000D02*
X186136000Y-114379000D01*
X165086000Y-114339000D02*
X173360000Y-114339000D01*
X177840000Y-114339000D02*
X186114000Y-114339000D01*
X165109000Y-114299000D02*
X173360000Y-114299000D01*
X177840000Y-114299000D02*
X186091000Y-114299000D01*
X165132000Y-114259000D02*
X173360000Y-114259000D01*
X177840000Y-114259000D02*
X186068000Y-114259000D01*
X165155000Y-114219000D02*
X173360000Y-114219000D01*
X177840000Y-114219000D02*
X186045000Y-114219000D01*
X165178000Y-114179000D02*
X173360000Y-114179000D01*
X177840000Y-114179000D02*
X186022000Y-114179000D01*
X165202000Y-114139000D02*
X173360000Y-114139000D01*
X177840000Y-114139000D02*
X185998000Y-114139000D01*
X165225000Y-114099000D02*
X173360000Y-114099000D01*
X177840000Y-114099000D02*
X185975000Y-114099000D01*
X165249000Y-114059000D02*
X173360000Y-114059000D01*
X177840000Y-114059000D02*
X185951000Y-114059000D01*
X165273000Y-114019000D02*
X173360000Y-114019000D01*
X177840000Y-114019000D02*
X185927000Y-114019000D01*
X165298000Y-113979000D02*
X173360000Y-113979000D01*
X177840000Y-113979000D02*
X185902000Y-113979000D01*
X165322000Y-113939000D02*
X173360000Y-113939000D01*
X177840000Y-113939000D02*
X185878000Y-113939000D01*
X165347000Y-113899000D02*
X173360000Y-113899000D01*
X177840000Y-113899000D02*
X185853000Y-113899000D01*
X165372000Y-113859000D02*
X173360000Y-113859000D01*
X177840000Y-113859000D02*
X185828000Y-113859000D01*
X165397000Y-113819000D02*
X173360000Y-113819000D01*
X177840000Y-113819000D02*
X185803000Y-113819000D01*
X165423000Y-113779000D02*
X173360000Y-113779000D01*
X177840000Y-113779000D02*
X185777000Y-113779000D01*
X165448000Y-113739000D02*
X173360000Y-113739000D01*
X177840000Y-113739000D02*
X185752000Y-113739000D01*
X165474000Y-113699000D02*
X173360000Y-113699000D01*
X177840000Y-113699000D02*
X185726000Y-113699000D01*
X165500000Y-113659000D02*
X173360000Y-113659000D01*
X177840000Y-113659000D02*
X185700000Y-113659000D01*
X165527000Y-113619000D02*
X173360000Y-113619000D01*
X177840000Y-113619000D02*
X185673000Y-113619000D01*
X165553000Y-113579000D02*
X173360000Y-113579000D01*
X177840000Y-113579000D02*
X185647000Y-113579000D01*
X165580000Y-113539000D02*
X173360000Y-113539000D01*
X177840000Y-113539000D02*
X185620000Y-113539000D01*
X165607000Y-113499000D02*
X173360000Y-113499000D01*
X177840000Y-113499000D02*
X185593000Y-113499000D01*
X165634000Y-113459000D02*
X173360000Y-113459000D01*
X177840000Y-113459000D02*
X185566000Y-113459000D01*
X165662000Y-113419000D02*
X173360000Y-113419000D01*
X177840000Y-113419000D02*
X185538000Y-113419000D01*
X165689000Y-113379000D02*
X173360000Y-113379000D01*
X177840000Y-113379000D02*
X185511000Y-113379000D01*
X165717000Y-113339000D02*
X173360000Y-113339000D01*
X177840000Y-113339000D02*
X185483000Y-113339000D01*
X165745000Y-113299000D02*
X173360000Y-113299000D01*
X177840000Y-113299000D02*
X185455000Y-113299000D01*
X165774000Y-113259000D02*
X173360000Y-113259000D01*
X177840000Y-113259000D02*
X185426000Y-113259000D01*
X165802000Y-113219000D02*
X173360000Y-113219000D01*
X177840000Y-113219000D02*
X185398000Y-113219000D01*
X165831000Y-113179000D02*
X173360000Y-113179000D01*
X177840000Y-113179000D02*
X185369000Y-113179000D01*
X165861000Y-113139000D02*
X173360000Y-113139000D01*
X177840000Y-113139000D02*
X185339000Y-113139000D01*
X165890000Y-113099000D02*
X173360000Y-113099000D01*
X177840000Y-113099000D02*
X185310000Y-113099000D01*
X165920000Y-113059000D02*
X185280000Y-113059000D01*
X165950000Y-113019000D02*
X185250000Y-113019000D01*
X165980000Y-112979000D02*
X185220000Y-112979000D01*
X166010000Y-112939000D02*
X185190000Y-112939000D01*
X166041000Y-112899000D02*
X185159000Y-112899000D01*
X166072000Y-112859000D02*
X185128000Y-112859000D01*
X166103000Y-112819000D02*
X185097000Y-112819000D01*
X166135000Y-112779000D02*
X185065000Y-112779000D01*
X166166000Y-112739000D02*
X185034000Y-112739000D01*
X166198000Y-112699000D02*
X185002000Y-112699000D01*
X166231000Y-112659000D02*
X184969000Y-112659000D01*
X166263000Y-112619000D02*
X184937000Y-112619000D01*
X166296000Y-112579000D02*
X184904000Y-112579000D01*
X166329000Y-112539000D02*
X184871000Y-112539000D01*
X166363000Y-112499000D02*
X184837000Y-112499000D01*
X166397000Y-112459000D02*
X184803000Y-112459000D01*
X166431000Y-112419000D02*
X184769000Y-112419000D01*
X166465000Y-112379000D02*
X184735000Y-112379000D01*
X166500000Y-112339000D02*
X184700000Y-112339000D01*
X166535000Y-112299000D02*
X184665000Y-112299000D01*
X166570000Y-112259000D02*
X184630000Y-112259000D01*
X166606000Y-112219000D02*
X184594000Y-112219000D01*
X166642000Y-112179000D02*
X184558000Y-112179000D01*
X166678000Y-112139000D02*
X184522000Y-112139000D01*
X166715000Y-112100000D02*
X184485000Y-112100000D01*
X166751000Y-112060000D02*
X184449000Y-112060000D01*
X166789000Y-112020000D02*
X184411000Y-112020000D01*
X166826000Y-111980000D02*
X184374000Y-111980000D01*
X166864000Y-111940000D02*
X184336000Y-111940000D01*
X166903000Y-111900000D02*
X184297000Y-111900000D01*
X166941000Y-111860000D02*
X184259000Y-111860000D01*
X166980000Y-111820000D02*
X184220000Y-111820000D01*
X167020000Y-111780000D02*
X184180000Y-111780000D01*
X167059000Y-111740000D02*
X184141000Y-111740000D01*
X167099000Y-111700000D02*
X184101000Y-111700000D01*
X167140000Y-111660000D02*
X184060000Y-111660000D01*
X167181000Y-111620000D02*
X184019000Y-111620000D01*
X167222000Y-111580000D02*
X183978000Y-111580000D01*
X167264000Y-111540000D02*
X183936000Y-111540000D01*
X167306000Y-111500000D02*
X183894000Y-111500000D01*
X167348000Y-111460000D02*
X183852000Y-111460000D01*
X167391000Y-111420000D02*
X183809000Y-111420000D01*
X167434000Y-111380000D02*
X183766000Y-111380000D01*
X167478000Y-111340000D02*
X183722000Y-111340000D01*
X167522000Y-111300000D02*
X183678000Y-111300000D01*
X167567000Y-111260000D02*
X183633000Y-111260000D01*
X167612000Y-111220000D02*
X183588000Y-111220000D01*
X167657000Y-111180000D02*
X183543000Y-111180000D01*
X167703000Y-111140000D02*
X183497000Y-111140000D01*
X167749000Y-111100000D02*
X183451000Y-111100000D01*
X167796000Y-111060000D02*
X183404000Y-111060000D01*
X167844000Y-111020000D02*
X183356000Y-111020000D01*
X167891000Y-110980000D02*
X183309000Y-110980000D01*
X167940000Y-110940000D02*
X183260000Y-110940000D01*
X167989000Y-110900000D02*
X183211000Y-110900000D01*
X168038000Y-110860000D02*
X183162000Y-110860000D01*
X168088000Y-110820000D02*
X183112000Y-110820000D01*
X168139000Y-110780000D02*
X183061000Y-110780000D01*
X168190000Y-110740000D02*
X183010000Y-110740000D01*
X168241000Y-110700000D02*
X182959000Y-110700000D01*
X168293000Y-110660000D02*
X182907000Y-110660000D01*
X168346000Y-110620000D02*
X182854000Y-110620000D01*
X168400000Y-110580000D02*
X182800000Y-110580000D01*
X168454000Y-110540000D02*
X182746000Y-110540000D01*
X168508000Y-110500000D02*
X182692000Y-110500000D01*
X168564000Y-110460000D02*
X182636000Y-110460000D01*
X168620000Y-110420000D02*
X182580000Y-110420000D01*
X168676000Y-110380000D02*
X182524000Y-110380000D01*
X168734000Y-110340000D02*
X182466000Y-110340000D01*
X168792000Y-110300000D02*
X182408000Y-110300000D01*
X168850000Y-110260000D02*
X182350000Y-110260000D01*
X168910000Y-110220000D02*
X182290000Y-110220000D01*
X168970000Y-110180000D02*
X182230000Y-110180000D01*
X169031000Y-110140000D02*
X182169000Y-110140000D01*
X169093000Y-110100000D02*
X182107000Y-110100000D01*
X169156000Y-110060000D02*
X182044000Y-110060000D01*
X169220000Y-110020000D02*
X181980000Y-110020000D01*
X169284000Y-109980000D02*
X181916000Y-109980000D01*
X169349000Y-109940000D02*
X181851000Y-109940000D01*
X169416000Y-109900000D02*
X181784000Y-109900000D01*
X169483000Y-109860000D02*
X181717000Y-109860000D01*
X169551000Y-109820000D02*
X181649000Y-109820000D01*
X169621000Y-109780000D02*
X181579000Y-109780000D01*
X169691000Y-109740000D02*
X181509000Y-109740000D01*
X169763000Y-109700000D02*
X181437000Y-109700000D01*
X169836000Y-109660000D02*
X181364000Y-109660000D01*
X169910000Y-109620000D02*
X181290000Y-109620000D01*
X169985000Y-109580000D02*
X181215000Y-109580000D01*
X170061000Y-109540000D02*
X181139000Y-109540000D01*
X170139000Y-109500000D02*
X181061000Y-109500000D01*
X170218000Y-109460000D02*
X180982000Y-109460000D01*
X170299000Y-109420000D02*
X180901000Y-109420000D01*
X170381000Y-109380000D02*
X180819000Y-109380000D01*
X170465000Y-109340000D02*
X180735000Y-109340000D01*
X170551000Y-109300000D02*
X180649000Y-109300000D01*
X170638000Y-109260000D02*
X180562000Y-109260000D01*
X170727000Y-109220000D02*
X180473000Y-109220000D01*
X170819000Y-109180000D02*
X180381000Y-109180000D01*
X170912000Y-109140000D02*
X180288000Y-109140000D01*
X171008000Y-109100000D02*
X180192000Y-109100000D01*
X171106000Y-109060000D02*
X180094000Y-109060000D01*
X171206000Y-109020000D02*
X179994000Y-109020000D01*
X171309000Y-108980000D02*
X179891000Y-108980000D01*
X171415000Y-108940000D02*
X179785000Y-108940000D01*
X171524000Y-108900000D02*
X179676000Y-108900000D01*
X171637000Y-108860000D02*
X179563000Y-108860000D01*
X171753000Y-108820000D02*
X179447000Y-108820000D01*
X171873000Y-108780000D02*
X179327000Y-108780000D01*
X171998000Y-108740000D02*
X179202000Y-108740000D01*
X172127000Y-108700000D02*
X179073000Y-108700000D01*
X172262000Y-108660000D02*
X178938000Y-108660000D01*
X172403000Y-108620000D02*
X178797000Y-108620000D01*
X172551000Y-108580000D02*
X178649000Y-108580000D01*
X172707000Y-108540000D02*
X178493000Y-108540000D01*
X172873000Y-108500000D02*
X178327000Y-108500000D01*
X173049000Y-108460000D02*
X178151000Y-108460000D01*
X173239000Y-108420000D02*
X177961000Y-108420000D01*
X173447000Y-108380000D02*
X177753000Y-108380000D01*
X173677000Y-108340000D02*
X177523000Y-108340000D01*
X173938000Y-108300000D02*
X177262000Y-108300000D01*
X174249000Y-108260000D02*
X176951000Y-108260000D01*
X174656000Y-108220000D02*
X176544000Y-108220000D01*
X175560000Y-108180000D02*
X175640000Y-108180000D01*
X187720000Y-120300000D02*
G75*
G03*
X187720000Y-120300000I-12120000J0D01*
G01*
%TO.C,TP1*%
X143600000Y-123150000D02*
X146500000Y-123150000D01*
X143600000Y-126050000D02*
X143600000Y-123150000D01*
X146500000Y-123150000D02*
X146500000Y-126050000D01*
X146500000Y-126050000D02*
X143600000Y-126050000D01*
%TO.C,R7*%
X118100000Y-110280000D02*
X118100000Y-110170000D01*
X115730000Y-110170000D02*
X120470000Y-110170000D01*
X120470000Y-110170000D02*
X120470000Y-98030000D01*
X115730000Y-98030000D02*
X115730000Y-110170000D01*
X120470000Y-98030000D02*
X115730000Y-98030000D01*
X118100000Y-97920000D02*
X118100000Y-98030000D01*
%TO.C,C7*%
X124485000Y-91912349D02*
X124485000Y-91112349D01*
X124085000Y-91512349D02*
X124885000Y-91512349D01*
X122720000Y-87502651D02*
X130880000Y-87502651D01*
X122720000Y-87462651D02*
X130880000Y-87462651D01*
X122720000Y-87422651D02*
X130880000Y-87422651D01*
X122721000Y-87382651D02*
X130879000Y-87382651D01*
X122723000Y-87342651D02*
X130877000Y-87342651D01*
X122724000Y-87302651D02*
X130876000Y-87302651D01*
X122726000Y-87262651D02*
X130874000Y-87262651D01*
X122729000Y-87222651D02*
X130871000Y-87222651D01*
X122732000Y-87182651D02*
X130868000Y-87182651D01*
X122735000Y-87142651D02*
X130865000Y-87142651D01*
X122739000Y-87102651D02*
X130861000Y-87102651D01*
X122743000Y-87062651D02*
X130857000Y-87062651D01*
X122748000Y-87022651D02*
X130852000Y-87022651D01*
X122752000Y-86982651D02*
X130848000Y-86982651D01*
X122758000Y-86942651D02*
X130842000Y-86942651D01*
X122763000Y-86902651D02*
X130837000Y-86902651D01*
X122770000Y-86862651D02*
X130830000Y-86862651D01*
X122776000Y-86822651D02*
X130824000Y-86822651D01*
X122783000Y-86781651D02*
X130817000Y-86781651D01*
X122790000Y-86741651D02*
X130810000Y-86741651D01*
X122798000Y-86701651D02*
X130802000Y-86701651D01*
X122806000Y-86661651D02*
X130794000Y-86661651D01*
X122815000Y-86621651D02*
X125760000Y-86621651D01*
X127840000Y-86621651D02*
X130785000Y-86621651D01*
X122824000Y-86581651D02*
X125760000Y-86581651D01*
X127840000Y-86581651D02*
X130776000Y-86581651D01*
X122833000Y-86541651D02*
X125760000Y-86541651D01*
X127840000Y-86541651D02*
X130767000Y-86541651D01*
X122843000Y-86501651D02*
X125760000Y-86501651D01*
X127840000Y-86501651D02*
X130757000Y-86501651D01*
X122853000Y-86461651D02*
X125760000Y-86461651D01*
X127840000Y-86461651D02*
X130747000Y-86461651D01*
X122864000Y-86421651D02*
X125760000Y-86421651D01*
X127840000Y-86421651D02*
X130736000Y-86421651D01*
X122875000Y-86381651D02*
X125760000Y-86381651D01*
X127840000Y-86381651D02*
X130725000Y-86381651D01*
X122886000Y-86341651D02*
X125760000Y-86341651D01*
X127840000Y-86341651D02*
X130714000Y-86341651D01*
X122898000Y-86301651D02*
X125760000Y-86301651D01*
X127840000Y-86301651D02*
X130702000Y-86301651D01*
X122911000Y-86261651D02*
X125760000Y-86261651D01*
X127840000Y-86261651D02*
X130689000Y-86261651D01*
X122923000Y-86221651D02*
X125760000Y-86221651D01*
X127840000Y-86221651D02*
X130677000Y-86221651D01*
X122937000Y-86181651D02*
X125760000Y-86181651D01*
X127840000Y-86181651D02*
X130663000Y-86181651D01*
X122950000Y-86141651D02*
X125760000Y-86141651D01*
X127840000Y-86141651D02*
X130650000Y-86141651D01*
X122965000Y-86101651D02*
X125760000Y-86101651D01*
X127840000Y-86101651D02*
X130635000Y-86101651D01*
X122979000Y-86061651D02*
X125760000Y-86061651D01*
X127840000Y-86061651D02*
X130621000Y-86061651D01*
X122995000Y-86021651D02*
X125760000Y-86021651D01*
X127840000Y-86021651D02*
X130605000Y-86021651D01*
X123010000Y-85981651D02*
X125760000Y-85981651D01*
X127840000Y-85981651D02*
X130590000Y-85981651D01*
X123026000Y-85941651D02*
X125760000Y-85941651D01*
X127840000Y-85941651D02*
X130574000Y-85941651D01*
X123043000Y-85901651D02*
X125760000Y-85901651D01*
X127840000Y-85901651D02*
X130557000Y-85901651D01*
X123060000Y-85861651D02*
X125760000Y-85861651D01*
X127840000Y-85861651D02*
X130540000Y-85861651D01*
X123078000Y-85821651D02*
X125760000Y-85821651D01*
X127840000Y-85821651D02*
X130522000Y-85821651D01*
X123096000Y-85781651D02*
X125760000Y-85781651D01*
X127840000Y-85781651D02*
X130504000Y-85781651D01*
X123114000Y-85741651D02*
X125760000Y-85741651D01*
X127840000Y-85741651D02*
X130486000Y-85741651D01*
X123134000Y-85701651D02*
X125760000Y-85701651D01*
X127840000Y-85701651D02*
X130466000Y-85701651D01*
X123153000Y-85661651D02*
X125760000Y-85661651D01*
X127840000Y-85661651D02*
X130447000Y-85661651D01*
X123173000Y-85621651D02*
X125760000Y-85621651D01*
X127840000Y-85621651D02*
X130427000Y-85621651D01*
X123194000Y-85581651D02*
X125760000Y-85581651D01*
X127840000Y-85581651D02*
X130406000Y-85581651D01*
X123216000Y-85541651D02*
X125760000Y-85541651D01*
X127840000Y-85541651D02*
X130384000Y-85541651D01*
X123238000Y-85501651D02*
X125760000Y-85501651D01*
X127840000Y-85501651D02*
X130362000Y-85501651D01*
X123260000Y-85461651D02*
X125760000Y-85461651D01*
X127840000Y-85461651D02*
X130340000Y-85461651D01*
X123283000Y-85421651D02*
X125760000Y-85421651D01*
X127840000Y-85421651D02*
X130317000Y-85421651D01*
X123307000Y-85381651D02*
X125760000Y-85381651D01*
X127840000Y-85381651D02*
X130293000Y-85381651D01*
X123331000Y-85341651D02*
X125760000Y-85341651D01*
X127840000Y-85341651D02*
X130269000Y-85341651D01*
X123356000Y-85301651D02*
X125760000Y-85301651D01*
X127840000Y-85301651D02*
X130244000Y-85301651D01*
X123382000Y-85261651D02*
X125760000Y-85261651D01*
X127840000Y-85261651D02*
X130218000Y-85261651D01*
X123408000Y-85221651D02*
X125760000Y-85221651D01*
X127840000Y-85221651D02*
X130192000Y-85221651D01*
X123435000Y-85181651D02*
X125760000Y-85181651D01*
X127840000Y-85181651D02*
X130165000Y-85181651D01*
X123462000Y-85141651D02*
X125760000Y-85141651D01*
X127840000Y-85141651D02*
X130138000Y-85141651D01*
X123491000Y-85101651D02*
X125760000Y-85101651D01*
X127840000Y-85101651D02*
X130109000Y-85101651D01*
X123520000Y-85061651D02*
X125760000Y-85061651D01*
X127840000Y-85061651D02*
X130080000Y-85061651D01*
X123550000Y-85021651D02*
X125760000Y-85021651D01*
X127840000Y-85021651D02*
X130050000Y-85021651D01*
X123580000Y-84981651D02*
X125760000Y-84981651D01*
X127840000Y-84981651D02*
X130020000Y-84981651D01*
X123611000Y-84941651D02*
X125760000Y-84941651D01*
X127840000Y-84941651D02*
X129989000Y-84941651D01*
X123644000Y-84901651D02*
X125760000Y-84901651D01*
X127840000Y-84901651D02*
X129956000Y-84901651D01*
X123676000Y-84861651D02*
X125760000Y-84861651D01*
X127840000Y-84861651D02*
X129924000Y-84861651D01*
X123710000Y-84821651D02*
X125760000Y-84821651D01*
X127840000Y-84821651D02*
X129890000Y-84821651D01*
X123745000Y-84781651D02*
X125760000Y-84781651D01*
X127840000Y-84781651D02*
X129855000Y-84781651D01*
X123781000Y-84741651D02*
X125760000Y-84741651D01*
X127840000Y-84741651D02*
X129819000Y-84741651D01*
X123817000Y-84701651D02*
X125760000Y-84701651D01*
X127840000Y-84701651D02*
X129783000Y-84701651D01*
X123855000Y-84661651D02*
X125760000Y-84661651D01*
X127840000Y-84661651D02*
X129745000Y-84661651D01*
X123893000Y-84621651D02*
X125760000Y-84621651D01*
X127840000Y-84621651D02*
X129707000Y-84621651D01*
X123933000Y-84581651D02*
X125760000Y-84581651D01*
X127840000Y-84581651D02*
X129667000Y-84581651D01*
X123974000Y-84541651D02*
X129626000Y-84541651D01*
X124016000Y-84501651D02*
X129584000Y-84501651D01*
X124059000Y-84461651D02*
X129541000Y-84461651D01*
X124103000Y-84421651D02*
X129497000Y-84421651D01*
X124149000Y-84381651D02*
X129451000Y-84381651D01*
X124196000Y-84341651D02*
X129404000Y-84341651D01*
X124244000Y-84301651D02*
X129356000Y-84301651D01*
X124295000Y-84261651D02*
X129305000Y-84261651D01*
X124346000Y-84221651D02*
X129254000Y-84221651D01*
X124400000Y-84181651D02*
X129200000Y-84181651D01*
X124455000Y-84141651D02*
X129145000Y-84141651D01*
X124513000Y-84101651D02*
X129087000Y-84101651D01*
X124572000Y-84061651D02*
X129028000Y-84061651D01*
X124634000Y-84021651D02*
X128966000Y-84021651D01*
X124698000Y-83981651D02*
X128902000Y-83981651D01*
X124766000Y-83941651D02*
X128834000Y-83941651D01*
X124836000Y-83901651D02*
X128764000Y-83901651D01*
X124910000Y-83861651D02*
X128690000Y-83861651D01*
X124987000Y-83821651D02*
X128613000Y-83821651D01*
X125069000Y-83781651D02*
X128531000Y-83781651D01*
X125155000Y-83741651D02*
X128445000Y-83741651D01*
X125248000Y-83701651D02*
X128352000Y-83701651D01*
X125347000Y-83661651D02*
X128253000Y-83661651D01*
X125454000Y-83621651D02*
X128146000Y-83621651D01*
X125571000Y-83581651D02*
X128029000Y-83581651D01*
X125702000Y-83541651D02*
X127898000Y-83541651D01*
X125852000Y-83501651D02*
X127748000Y-83501651D01*
X126032000Y-83461651D02*
X127568000Y-83461651D01*
X126267000Y-83421651D02*
X127333000Y-83421651D01*
X130920000Y-87502651D02*
G75*
G03*
X130920000Y-87502651I-4120000J0D01*
G01*
%TO.C,R4*%
X160900000Y-108040000D02*
X160900000Y-107270000D01*
X159530000Y-107270000D02*
X162270000Y-107270000D01*
X162270000Y-107270000D02*
X162270000Y-100730000D01*
X159530000Y-100730000D02*
X159530000Y-107270000D01*
X162270000Y-100730000D02*
X159530000Y-100730000D01*
X160900000Y-99960000D02*
X160900000Y-100730000D01*
%TO.C,L2*%
X149600000Y-123400000D02*
X162200000Y-123400000D01*
X149600000Y-126400000D02*
X149600000Y-123400000D01*
X149600000Y-136000000D02*
X149600000Y-133000000D01*
X162200000Y-123400000D02*
X162200000Y-126400000D01*
X162200000Y-133000000D02*
X162200000Y-136000000D01*
X162200000Y-136000000D02*
X149600000Y-136000000D01*
%TO.C,TP2*%
X138900000Y-123150000D02*
X141800000Y-123150000D01*
X138900000Y-126050000D02*
X138900000Y-123150000D01*
X141800000Y-123150000D02*
X141800000Y-126050000D01*
X141800000Y-126050000D02*
X138900000Y-126050000D01*
%TO.C,C12*%
X138716233Y-108890000D02*
X139008767Y-108890000D01*
X138716233Y-109910000D02*
X139008767Y-109910000D01*
%TO.C,R10*%
X112067224Y-93147500D02*
X111557776Y-93147500D01*
X112067224Y-92102500D02*
X111557776Y-92102500D01*
%TO.C,RV1*%
X163870000Y-108745000D02*
X168940000Y-108745000D01*
X163870000Y-108745000D02*
X163870000Y-98975000D01*
X168940000Y-108745000D02*
X168940000Y-98975000D01*
X163870000Y-98975000D02*
X168940000Y-98975000D01*
D13*
%TO.C,U1*%
X147471702Y-108959439D02*
X147471702Y-106213863D01*
X143128302Y-106213859D02*
X143128302Y-108959435D01*
G36*
X146740502Y-104255350D02*
G01*
X146359502Y-104255350D01*
X146359502Y-104001350D01*
X146740502Y-104001350D01*
X146740502Y-104255350D01*
G37*
D12*
%TO.C,TP8*%
X114800000Y-128350000D02*
X114800000Y-125450000D01*
X117700000Y-128350000D02*
X114800000Y-128350000D01*
X114800000Y-125450000D02*
X117700000Y-125450000D01*
X117700000Y-125450000D02*
X117700000Y-128350000D01*
%TO.C,C4*%
X138716233Y-106790000D02*
X139008767Y-106790000D01*
X138716233Y-107810000D02*
X139008767Y-107810000D01*
%TO.C,R8*%
X113577500Y-110454724D02*
X113577500Y-109945276D01*
X114622500Y-110454724D02*
X114622500Y-109945276D01*
%TO.C,TP5*%
X161500000Y-93270000D02*
X161500000Y-96170000D01*
X158600000Y-93270000D02*
X161500000Y-93270000D01*
X161500000Y-96170000D02*
X158600000Y-96170000D01*
X158600000Y-96170000D02*
X158600000Y-93270000D01*
%TO.C,U2*%
X110027500Y-96925000D02*
X110027500Y-98725000D01*
X110027500Y-96925000D02*
X110027500Y-96125000D01*
X113147500Y-96925000D02*
X113147500Y-97725000D01*
X113147500Y-96925000D02*
X113147500Y-96125000D01*
%TO.C,C1*%
X148496267Y-118110000D02*
X148203733Y-118110000D01*
X148496267Y-117090000D02*
X148203733Y-117090000D01*
%TO.C,TP6*%
X121350000Y-112550000D02*
X124250000Y-112550000D01*
X121350000Y-115450000D02*
X121350000Y-112550000D01*
X124250000Y-112550000D02*
X124250000Y-115450000D01*
X124250000Y-115450000D02*
X121350000Y-115450000D01*
%TO.C,C11*%
X111958767Y-89635000D02*
X111666233Y-89635000D01*
X111958767Y-88615000D02*
X111666233Y-88615000D01*
%TO.C,R3*%
X152150000Y-94240000D02*
X152150000Y-95010000D01*
X153520000Y-95010000D02*
X150780000Y-95010000D01*
X150780000Y-95010000D02*
X150780000Y-101550000D01*
X153520000Y-101550000D02*
X153520000Y-95010000D01*
X150780000Y-101550000D02*
X153520000Y-101550000D01*
X152150000Y-102320000D02*
X152150000Y-101550000D01*
%TO.C,TP7*%
X122000000Y-128550000D02*
X122000000Y-125650000D01*
X124900000Y-128550000D02*
X122000000Y-128550000D01*
X122000000Y-125650000D02*
X124900000Y-125650000D01*
X124900000Y-125650000D02*
X124900000Y-128550000D01*
%TO.C,L1*%
X140340000Y-98900000D02*
X140340000Y-102900000D01*
X144560000Y-100900000D02*
X144560000Y-102900000D01*
%TO.C,TP3*%
X157600000Y-89250000D02*
X157600000Y-86350000D01*
X160500000Y-89250000D02*
X157600000Y-89250000D01*
X157600000Y-86350000D02*
X160500000Y-86350000D01*
X160500000Y-86350000D02*
X160500000Y-89250000D01*
%TO.C,TP9*%
X178840000Y-102710000D02*
X178840000Y-99810000D01*
X181740000Y-102710000D02*
X178840000Y-102710000D01*
X178840000Y-99810000D02*
X181740000Y-99810000D01*
X181740000Y-99810000D02*
X181740000Y-102710000D01*
%TO.C,R6*%
X137340000Y-130100000D02*
X138110000Y-130100000D01*
X138110000Y-128730000D02*
X138110000Y-131470000D01*
X138110000Y-131470000D02*
X144650000Y-131470000D01*
X144650000Y-128730000D02*
X138110000Y-128730000D01*
X144650000Y-131470000D02*
X144650000Y-128730000D01*
X145420000Y-130100000D02*
X144650000Y-130100000D01*
%TO.C,R9*%
X117454724Y-90222500D02*
X116945276Y-90222500D01*
X117454724Y-89177500D02*
X116945276Y-89177500D01*
%TO.C,R2*%
X138290000Y-92100000D02*
X139060000Y-92100000D01*
X139060000Y-90730000D02*
X139060000Y-93470000D01*
X139060000Y-93470000D02*
X145600000Y-93470000D01*
X145600000Y-90730000D02*
X139060000Y-90730000D01*
X145600000Y-93470000D02*
X145600000Y-90730000D01*
X146370000Y-92100000D02*
X145600000Y-92100000D01*
%TO.C,C8*%
X106490000Y-95946267D02*
X106490000Y-95653733D01*
X107510000Y-95946267D02*
X107510000Y-95653733D01*
%TD*%
M02*
